/* XPM */
static char *result[] = {
/* columns rows colors chars-per-pixel */
"64 64 165 2 ",
"   c #2A3E72",
".  c #2B4176",
"X  c #2E457C",
"o  c #2F487F",
"O  c #30477D",
"+  c #30487F",
"@  c #2F4680",
"#  c #2F4981",
"$  c #324B84",
"%  c #334E89",
"&  c #36518D",
"*  c #38558F",
"=  c #344F90",
"-  c #365492",
";  c #395694",
":  c #3A5996",
">  c #375699",
",  c #395799",
"<  c #3C5B9C",
"1  c #3E609F",
"2  c #3D5EA2",
"3  c #3D5EA9",
"4  c #3E61A3",
"5  c #3E62AB",
"6  c #3E68AC",
"7  c #3F64B3",
"8  c #3F6DB6",
"9  c #3F68B8",
"0  c #405F9D",
"q  c #40609E",
"w  c #4163A5",
"e  c #4265AB",
"r  c #4469AD",
"t  c #507CAF",
"y  c #4266B2",
"u  c #456BB4",
"i  c #486EB5",
"p  c #456DBB",
"a  c #486FB9",
"s  c #4671B5",
"d  c #4971B6",
"f  c #4671BD",
"g  c #4A72BC",
"h  c #4379BA",
"j  c #4D79BE",
"k  c #466FC0",
"l  c #4772C3",
"z  c #4B75C3",
"x  c #4778C4",
"c  c #4D7AC4",
"v  c #4773C8",
"b  c #4B76C9",
"n  c #4D7ACB",
"m  c #517DC4",
"M  c #507DCC",
"N  c #4B77D2",
"B  c #4E7CD1",
"V  c #4E7BDD",
"C  c #517ED2",
"Z  c #5489B5",
"A  c #4B83C4",
"S  c #4E83CC",
"D  c #5282C6",
"F  c #508AC5",
"G  c #5383CC",
"H  c #538ACD",
"J  c #5D9AC5",
"K  c #5593CD",
"L  c #5A94CE",
"P  c #5498CF",
"I  c #4F82D3",
"U  c #4F89D0",
"Y  c #5283D4",
"T  c #5887D6",
"R  c #548AD4",
"E  c #598CD5",
"W  c #5484DA",
"Q  c #568ADC",
"!  c #598DDC",
"~  c #5592D3",
"^  c #5C94D6",
"/  c #5498D2",
"(  c #5C9CD5",
")  c #5692DB",
"_  c #5C93DD",
"`  c #569CD8",
"'  c #5D9BDC",
"]  c #619AD7",
"[  c #6197DD",
"{  c #6199DE",
"}  c #5DA4D5",
"|  c #5EA3DD",
" . c #5EAAD8",
".. c #61ADCC",
"X. c #61A8D5",
"o. c #63A4DD",
"O. c #63ABDD",
"+. c #69B1D4",
"@. c #62B1DC",
"#. c #69B3DD",
"$. c #4F81E0",
"%. c #5284E4",
"&. c #568BE2",
"*. c #598DE2",
"=. c #5486EA",
"-. c #578DEB",
";. c #598CEA",
":. c #5C94E3",
">. c #5E9AE2",
",. c #5D94EA",
"<. c #5E9AEB",
"1. c #5B96F5",
"2. c #5E9BF5",
"3. c #6196E3",
"4. c #619BE4",
"5. c #6097E9",
"6. c #629CEA",
"7. c #629BF3",
"8. c #5FA4E1",
"9. c #63A4E4",
"0. c #69A5E1",
"q. c #65ADE2",
"w. c #6AACE6",
"e. c #65A3EB",
"r. c #68A5ED",
"t. c #67A9EB",
"y. c #6BADEC",
"u. c #70AEE9",
"i. c #64B1E2",
"p. c #6AB4E4",
"a. c #6CBDE4",
"s. c #67B2E8",
"d. c #6CB3EB",
"f. c #6EB9EC",
"g. c #72B5E6",
"h. c #74B4E9",
"j. c #7EB6EA",
"k. c #73BCEC",
"l. c #79BEE8",
"z. c #66A4F4",
"x. c #68A3F4",
"c. c #67A9F1",
"v. c #6DACF3",
"b. c #6BA7FA",
"n. c #6EACF9",
"m. c #6FB3F1",
"M. c #74B5F3",
"N. c #7DB6F1",
"B. c #73BBF2",
"V. c #7ABEF6",
"C. c #73B4FA",
"Z. c #75C2EB",
"A. c #7AC6ED",
"S. c #7AC4F3",
"D. c #7DC9F5",
"F. c #8BBEEB",
"G. c #81C3E9",
"H. c #83C4F1",
"J. c #88C3F2",
"K. c #83CBF4",
"L. c #88CDF2",
"P. c #94CFF3",
"I. c #84D1F7",
"U. c #8FD5F7",
"Y. c #93D1F6",
/* pixels */
"; < 2 2 : > - : 4 g g I u 4 1 1 w r d m c i c g d i c ^ p.c y 5 z p % @ o & , , & & & % & u { O.p r r r d R i.| g ~ | g c 5 & $ ",
": 2 w y e 4 4 4 w < s R n < : : q < e i r r g z g j G } q.N k 9 p 7 $ $ # - 2 5 4 , - & > d 4.q.g u r r g | ` n m ) o.x s 4 & & ",
", 3 e r u u u b z u 5 n E Y Z y w w q e r r m n n T Q  .Q N N v b 3 # % % - , p e < ; & , 4 q.p.f i s r S j n I M c b G r 6 : & ",
"< w w u x W W n p e < f T E _ n w q 0 0 r i n Y T :.>.i.<.%.=.V N y = % = > 2 e 7 < & - > < o.p.b c G D 1 7 f u e w g d u < 2 - ",
"< < w u C &.W p r 4 0 y n E _ _ m w ; 0 q r g Y &.<.9.f.m.-.=.W v y 2 & = - - , 2 > & & : _ u.p.Q 6.i.s 1 < 4 4 : 4 < w u > , ; ",
"; 0 w M W W B u w 4 e u _ E 4._ ! u ; , w r a n ! :.6.d.L.7.V p 3 > > 2 3 , % % - > & # R 7.3.l.h.K.L r ; % & 4 < : : < j A 6 , ",
"< w u b B B l u w w r u ! ^ 4.:.3.u * : < e i m ) 9.y.S.F.=.<.:.G d g j c g < $ $ & - : z.2._ Y.K.~ u < & & - ; < 4 ; r c ) h 4 ",
"z y l b z b g i u e r r Y 4.4.4.E w : : : w r d G S.I.U.d.:.>.,.T Y g 5 , - r - 3 z V Q z.z.z.F.m 8 3 < : - & & ; 4 4 g z W ` j ",
"x S z b z b g g u e r e G r.6.3.C e 0 ; ; ; d G 3.H.K.h.E ! _ d 4 5 % # @ @ 2 p b %.<.c.r.z.e.e.W k > - 2 2 & & ; 2 8 u c Y :.` ",
"F c n z b C z z i u r e G r.4.6.&.u < , * w T r.r.w.D w & ; 3 $ # & # . .   X 2 u k ) >._ 6.I *.C z 2 > 2 u ; ; - < d b z T <.9.",
"9.D Y z c C z a r u e e G 4.[ [ C w < < e E 4.4.H a * & & $ + + o $ # X .     = 2 , n W _ v.E j.3.n p 5 e y 3 : - : p B B W :.4.",
"Q ' g b z b z u r a e e x :.G ! u & 0 z 3.r.E C u 2 ; ; & % + + o $ $ X o . X $ % u R n 9.! } G.P.u.[ W z y y 2 ; 1 5 B W Q T R ",
"G 3._ n n n b u w w 0 w p R c A 4 w j m a z C b a r 2 < ; & $ + $ & $ o o # # % 2 b Y S >.x X.a.A.L.u.R G z z y < : u I ~ I z c ",
"z ! y.{ R Y I u w 0 0 q i c j d d d a 4 p C z b b a y w < & $ $ % & - - $ % % : g n G I E a O.! *.9.k.E G M m a 4 4 v U I v p g ",
"u x G :.E ' ~ d w i w w g g m m d g e y z z g z b a u e < : % & & : 4 ; & > < w s j R l R H O.m x Y Q ! m g d r 4 e I U f u w r ",
"q e l I 9.R q.X.d d e i i a z H G a a z z z z a a u u e 1 : * - : w u 2 , r s s s d G d z ^ O.m g B T z G u g u e x T g r w < : ",
": < r d R ' R A.! M j c j M T T E G ) Y b z a i i u u e w w r p k k k p 7 f z j j d j s w o.K r u c ~ ~ n S s r s r e 4 < 4 : * ",
"& * w r c ' w.0.A.t.*.T C ! 6.d.( O.>.Y z g a i i a u r u l S R b k p u 5 u j G G c u u < ( g q 0 r z E n H } r r r i w 0 < : * ",
"% * w r l Y p.o.H.K.B.v.r.M.M.S.R q.*.&.C z g z b n n n R R g r w w a u i f T ! H c i u < F a w w e u b I B R | j j G G g 0 : & ",
"$ * q e i ! f.K.M.D.U.K.K.I.S.B._ _ Y Y T C W T Y Y W W Y a 4 : < 3 e u l R d.! m u < w e / C g g d d c R W W ! } G H { :.d : % ",
"% % ; u 5.n.M.V.N.e.N.J.J.G.K.] w.! b c C C C W C W W W c i < : < < w a M 9.d.Q b e - w d #.! C z c z m C ! W b C ! T [ 4.,.z , ",
"w , w W x.n.n.C.C.x.,.! :.3.{ T p.:.C c z c b c n R B z g s : * * * 3 z Y k.9.T Y w , e m o.>.Q C m M M V ! Q M b c M W 6.6.&.b ",
"b B ) ,.7.b.C.C.x.G G b C 4.3.[ R o.:.T M z g g n Y g u r e 5 * & ; w b ] k.*.Q T a e e G ^ 9.*.&.V W V &.Q ! C z g a a C e.5.N ",
"p b -.,.7.7.;.&.z y r r u [ 4._ Q m 0.*.M g d g n n e w q 2 u 2 , y k z f.3.b b Q W b C R ) 8.&.W C C W Q *.*.C g g a y l T R n ",
"x c ! <.;.W C z z y e 2 w g T _ T m R 9.Y g u g S p 0 : : < r 4 w z z >.s.n u 4 b 5.T 3.z / T b z z z b C &.*.B z z l r e k p p ",
"x z ! :.n z a u i i w 2 w w u z M n z F ~ n z S n r 0 : : 1 u c R m ' >.R u 4 2 z T 4.:.l ` b a a a a a l T &.B b k p 3 w e l z ",
"p y Y ,.b u w 4 2 w 0 , < : < e g n n i S R R ~ i w : 0 < g R m G R n b 2 : : : y a ^ :.z ) z a a a p a g Y %.Y b a u e 2 u b c ",
"> 2 y C k 5 < 4 < w 2 2 * * * < u c G T R H ` T g q 0 q e G _ m G u p k w 2 ; ; - , j _ z Q l u u u a a a C ! R k a p e 7 7 d u ",
"= - - 2 2 , , : , < 6 : & % & & < a m T _ G j / G w 0 w m _ j m e e l e < : ; ; - ; a E b z p u y y i y u l Q Y p u 5 9 5 5 , % ",
"% = , > , , ; 2 ; ; < ; * % * ; : < w g E 9.( D H i e g [ _ z u w u M u ; % $ % = - n _ &.a y e e u e w w p Y N u 8 5 5 5 : $ $ ",
"% = - - , < , < ; ; < : : : < 2 0 < w i I Q ' R c E n 5.9.M n w e l M w & % $ $ % % p [ 6.C 0 , , 2 0 0 2 u b l y 5 4 2 , $ @ - ",
"@ % - - , < < 2 ; ; 2 w 1 q w w w w r n z f g _ D @.8.s.H m y 4 r a p : & + O @ $ % p 6.5.2 % & & * = = ; 5 p 3 3 p , - % o o o ",
". O $ - - , ; ; - ; u y y e w w r z z j i w e t H D O.~ H H w < w k p ; % O X O # > b <.:.> $ & & & & ; ; 3 , & > 5 1 < # o # o ",
". X $ - & - - ; < w a a a a u u b C g r w 0 0 q e ~ E S R c 4 < w u w & $ O o $ % 3 &.W p # % - ; ; ; : < 3 : 2 r r 4 > $ # # o ",
"O $ $ % ; ; ; ; < w i a a g n W ! b d r 0 0 q q w i w._ n U e w e w 2 & $ o O @ & x &.7 ; & & : 2 : 4 6 u p y p h g r - - & & # ",
"O o $ - < < : < < r z z z C C &.Q b g r w 0 q q 0 0 j d.g A c u k l w - % $ $ $ > Q n 5 , - ; 4 < 3 7 x B B N k p b 3 4 5 : - & ",
"% $ ; < 3 w w 5 4 u n C B C C C M b i r w w r r e w r ] v.R ! C z R G r , % # % 2 ) x 5 , , e b R Q 5.z.;.&.v k 9 p 7 y 9 5 2 - ",
"% & , 4 5 e e i u z W C C C b z M m g a r e r r r i j 3.S.6.c.:.W M S n g i u 4 4 H U x u z k k a n C ,.;.*.N p 9 > , , , 5 2 - ",
"& & 2 y p k l n I U R R C b z a g z c g i r r r i C 5.v.y.S m D L D A e 2 2 < ; % % # 6 n n n n Y Q Q W *.<.*.N 5 - , , - > > - ",
"$ $ - 2 p x I I b b n V m z g c z z c b M j g g T 6.k.g.c } | | ' G S t $ @ . o . . X # 4 p y N W W ! 4.6.4.<.W p , 4 , & - % # ",
"o $ $ * q u b l u u i n B l g b C M M M C C M T 6.B.! g G c d d z R } Z . . .     . . O $ 3 7 7 5 3 p M ^ >.e.&.B k e 3 , % % $ ",
"+ $ + % g d u 6 w r r u n z d z m M M C C T [ 4.w.{ ( G u 4 q q w j H +.q . .   . . o O $ > , , , ; 2 3 a Q ,.Q W N b u 3 - % % ",
"$ & $ $ 4 i 4 4 w u e w r z a g z z m C T _ 0.0.o.^ { i w q q q e u g } J O . .   X X @ $ = - - - , , % - y W ,.5.:.E C p , & $ ",
"+ $ + $ > < < 2 w w w e w y a z m b ! 0.6._ E u.g.] R i e e e r r i z R ..r + . X X X X @ $ % & - - , % % , b _ 6.r.6.:.l 5 - $ ",
"o o $ % 1 ; - ; w < w w w e a C ! E [ { 4.3.j.k.] _ b g i i u i d r i m O.#.d % @ $ $ @ @ $ % % % - , - & & 5 b 4.v.4.>.W p > $ ",
"o $ % - < - & & ; , < w e g &.Q m T r.r.^ E d.y.^ _ c g a g a g d r r c o.p.O.r , > > = % % % % % - , , * * < u Y e.>.R m p 2 $ ",
"& # $ ; < - < 4 u z z a z C &.e.z.E E T M C r.u.[ 4.m a i a a g j i g M | 9.Z.G p y 5 2 % = = % % & ; - % % & ; u _ >.c z p 3 > ",
"; % & ; 4 < 4 5 m ,.4.:.! *.5.:.T z i i d n 4.M.y.E m a a a a g g g g M _ 6.a.k.b k p 7 = % & % % & - & % & & ; 4 z R R g u p 3 ",
"4 : 1 6 r 5 r g E _ _ >.:.Y m c g i i i i i T r.j.[ M u z l i g j a z m _ 6.h.A.E Y B p % % % % * : 4 4 < 2 4 : ; : 6 S S u 6 e ",
"u r f b z z c Y G G Q ! S g z z i i r i i i M 4.A.E M r a g i i i g a Y >.e.y.S.h.! W k * & & * < < u k r 4 - & ; , 1 4 b b y y ",
"b G ! _ T n N b f y g n g a z c i i i i r i g E l.D m i w r r r u r d C ' 9.r.y.Z.E C a < ; ; : 2 4 p l r < : & & * * : e b B u ",
"Y >.6.8.:.z 5 k l i b n i u i i i r i i i t g [ #.m z i 4 : : r i i x Y ` Q W 3.f.4.C i < , : : w p v p w 1 : & % % * : 4 e b I ",
") 4.9._ Q z p u a a C ! z u r i r i i i a c M 9.O.j D y < : * q a b Y R M i r r R r.*.:.< ; < < y f l p e 2 : & & & ; < 3 e u k ",
"E w._ ,.W u u u a z M V c a r i r r r g g M ! 0._ m T g : * * < i n W B a e w 0 4 C 4._ R 4 : w l p u u r < : & % * : 4 e e u p ",
">.^ _ p p p 5 u a k b C M g g i i e r d c C C [ o.[ G y ; : < w r n Q I a e w 0 < r Y Q :.G u e l u u r w 1 : : & * < u e e y n ",
"W ) p : p p u u i a g z z g a i i d d z m W M m ( 9.T u : < q w u v Q Q n u e 4 < 4 p k Y ! Y b f u u r 1 4 4 : ; : 4 4 5 4 f S ",
"&.x % - y y y u a i z z z g g a i g m W Q C M g x 8.' T < < < < e l b I B u w w 4 4 w z b *.:.T f r r i r w 0 : : : 1 2 < 2 x v ",
"&.%.v 7 p p e e r r g z b M M m g z C *.*.&.M g u _ r.6.c : < < e u u d f w < < < < 4 a z 5.5.&.g e r s i w 0 < : 0 6 6 8 h s %.",
"u x Q k 3 l 8 e e e a b C V C C m z W &.W C M m i 3.e._ G < 2 w u p 4 5 y 0 < , : < w y g 0.6.R d r e r p i e e d r e p U 8 5 2.",
"# 2 N x 3 6 S p u a b &.*.*.*.C C C C m M z g i i 4.w.R c ; 2 e p u 4 4 w 0 , ; ; ; < 4 a o.9.M i r u i l b x d g a b R F > $.2.",
"# % , v 7 5 A S l i g Q 3.3.! C W C n z d d d e w r w.q.G 2 w e p e 4 4 2 3 ; ; : : : < y ( s.I p u i d b W T B n n ! P l I 1.-.",
"# # # & u 4 , s w w e b C W C C C C C z d r d r w w E g.~ , u z a e 2 4 w 5 ; & & & & & w G p.U i r u p b C ,._ n ' @.R Q -.Q = ",
"o # # o $ & 4 ; , 2 w u z z z z m C W M g d i u r r d 9.o.u u G G c < , < < & % $ $ % $ , z @.R u r r i z M :.9.W p.O.G I I 6 . ",
"% & - & % $ & 4 i e r l u u r u z C C T M c j i d u j 4.p.m w a C z ; % % ; & % $ + o + & z O.P u w e r g n &.:.| H S x l 9 % # "
};
