/* XPM */
static char *result[] = {
/* columns rows colors chars-per-pixel */
"64 64 98 2 ",
"   c #312723",
".  c #362B27",
"X  c #382A25",
"o  c #3A2E29",
"O  c #37312E",
"+  c #3C322E",
"@  c #3D3532",
"#  c #3F3835",
"$  c #43342E",
"%  c #4B372F",
"&  c #563A2F",
"*  c #423631",
"=  c #4A3730",
"-  c #433936",
";  c #4B3B34",
":  c #443C39",
">  c #4A3E39",
",  c #533D34",
"<  c #5C3F33",
"1  c #523F38",
"2  c #623425",
"3  c #6F3E2D",
"4  c #723F2D",
"5  c #47403D",
"6  c #4B403C",
"7  c #554037",
"8  c #5A4136",
"9  c #54423A",
"0  c #5C453A",
"q  c #5F483F",
"w  c #74412F",
"e  c #7C422E",
"r  c #634335",
"t  c #6D4534",
"y  c #63463A",
"u  c #65493D",
"i  c #6C4B3C",
"p  c #764532",
"a  c #7B4531",
"s  c #754A36",
"d  c #7D4A35",
"f  c #734D3C",
"g  c #7B4E39",
"h  c #76503E",
"j  c #7D513D",
"k  c #5E4941",
"l  c #674C41",
"z  c #6A4D40",
"x  c #724F40",
"c  c #755141",
"v  c #7C5441",
"b  c #834631",
"n  c #834B35",
"m  c #8B4C35",
"M  c #844E38",
"N  c #8C4F38",
"B  c #924E37",
"V  c #944F38",
"C  c #84533C",
"Z  c #8C533C",
"A  c #8E583F",
"S  c #93533B",
"D  c #9B543B",
"F  c #95583F",
"G  c #9C593F",
"H  c #A2563D",
"J  c #A3593E",
"K  c #A85B3F",
"L  c #845642",
"P  c #8A5740",
"I  c #875842",
"U  c #8C5A42",
"Y  c #925740",
"T  c #945B42",
"R  c #9B5C42",
"E  c #915F48",
"W  c #A25D42",
"Q  c #AB5E42",
"!  c #966146",
"~  c #9D6146",
"^  c #946049",
"/  c #9B6449",
"(  c #9F684B",
")  c #A46146",
"_  c #AD6245",
"`  c #A36549",
"'  c #AC6649",
"]  c #A5694C",
"[  c #AC6A4D",
"{  c #B06346",
"}  c #B46748",
"|  c #B36B4C",
" . c #B96B4B",
".. c #AE6E50",
"X. c #B06F51",
"o. c #B27152",
"O. c #B97555",
"+. c #C17452",
/* pixels */
"0 8 7 ; 7 7 7 0 9 6 5 @ 6 5 5 5 : : # - : @ @ # : : 5 5 : k # # 5 : > ; ; $ $ * ; = , 8 y ; # # 5 9 l i i f h h h v v v h h h u ",
"! ! ! U U U U U U ! ! ! ! U y 5 : : y i i i s h h L L L I I L U R ' } { ' ) ' _ _ ) ' ' | [ ; : 9 ] ( ^ ! A ! / / ( ( ! ( / / ! ",
"! ! A U E T U U A I j j I I U 5 : C R S S N n N S B Z N S S S S Y R R R W W W W R R W ' | ` i # x ( / ! ! I U A U A A ! ! ( / ! ",
"C C A U U ! ! ! ! ! A A ! U U 7 : ~ T R G F S G S S S S D S D R W W W W W W ) W W J R W ' G h # v / ! U I t g g j j j C C C A U ",
"j C j j A A C A A U ! U ! I C 7 : R S R G F G R R D S D R R S S S S S D D S D D S D S W ) F i : v ! T C C j g g g g g g j A A g ",
"j C C A C j j A j C C C A I g 8 - A S R S B Z B B S N N B S S B B N B S S S S S S S D ) W G i - h ! E C j j g g s s s g j C C C ",
"C C j g s s j C C C C A A U C 8 + Z F G B m m m m S N N S B S B m M N N B S S S S B S W S B u # h E C C j g d s s s s s g C C C ",
"C C C g g s j C C j j j A ! C 8 + A S S N M n m m Z N B N N N N n m n N B m D S B N S G R S i - v E g s j g s s s s s g g j j C ",
"C C U j j C C C C C C C U ! I 7 + Z Z G M n n n m N N S B S S N m M m m B S S m m N S D W D i 5 v ! C s g g s s s t s s g C C j ",
"C C j A C I C C C C C j U U C 7 + U S S m m m M n n m B S S B N m M N m N b n m N N S S R F h 5 v ! C g g g s s s t s g g j C C ",
"C j j C A j j C U j A A ! ! ! 7 @ S Z S Z m m N m m m N S B B N N N N B N N m m N N B F R S h : s ! j g s s s s t t s g C j C C ",
"C A A C A C j A ! ! ! ! ( ! ! & * U S R G S F S Z S N S S Z B S S V S S N N Z S B S S R R S f # h U A g s s g g s s g j C C C C ",
"! ! U ! ! U I A j A I I U ! ( 7 * I R S S S S S S S D S S R R G D S D G R G G F Z Z S R G G x 5 i U v v j g g j g g j j A U U U ",
"A A U U A A I C C g g s j A ( $ ; x W S S S S S S N N Z S S D R R W ) ) ) R G B n n Z F ) ) q 5 u ! U U j I U U I A A ! ! ! ! A ",
"! ! ! ! ! ! ! A U A h j h v 7 @ - - x U T P Y S S P Z S W ' ' W ) ) ) W _ ) R A S Z R R ~ U : # 7 ! ! U I ! ! ! ! ! ( ! ! ! ! ! ",
"v h h i y 8 , 6 - * # * * * - - > * - - @ + + + @ . . o o * * ; ; , % , ; $ @ + + - - 5 - # : : @ 6 0 r s h v v j v v v j v v v ",
": # 7 7 r t s h L L L P P I L U U U P P L L L L L M v g v y ; : $ 6 t h g h t s t s i t t t r 8 8 r 8 , & % $ - - 6 $ $ @ $ @ - ",
"@ ! [ ) ( ! ~ ( R W W ] [ [ [ ] [ [ [ [ X.| ' ' X.O.[ ` ' X.` * + U ( F A C A N A A g C j g g A j j j j Z A C A ! A F C I v 8 @ ",
"8 o.( W F R ) ) W R Y R W W W R ` ) ) ` ) ` W R R R Y Y R ` ] < $ ! A ! C A A A C C C n g s d p d d d d C C d Z C A Z n A A / @ ",
"i O.] ) ) ~ ) F R Y V R W R R W W R W W W W W Y N P N Z Y R ~ < $ A A A C d g M d g g d d s g g C C C A A A A A A A C A A ! ! 6 ",
"t [ ] W F R G G R Y N Y W R D R W Y W Y Y W Y Y M S N N Z ~ ~ < $ A N A g d d d d d d d d p d p d d n Z Z Z Z d d Z d Z ! A F & ",
"i ' ~ Z F ~ G ~ R N N P b R R R Y W Y W R Y Y m M Z M N Z R ~ < $ A M A N g M d d d d p p p p p d d d C Z d n C d d d C C A A 7 ",
"i ] ~ Z Z F G G Y N N P N R R R Q Y W Y Y Y P e S Z M Z Z R R r X A M A N d M g n g M d d d p p d p p Z Z n C d d d d M C A ! 7 ",
"i ] G Z Z N Z Z P N N N N Y R Z W Y Y Y Y Y L b S Z Z Z S R R t   A d n Z M d d M d d d d s p d d d d d C Z n d n d d n A ! ! 7 ",
"t ` ! M M M m Z m M M M M N Z Z V Y Y Y Y N P Y N N P N Z R ~ s   C d d A d g n M d g n d d d d p d d d N A C M C d M Z A G ! 8 ",
"y ` R N M n n C M M M n n M M m m B V Y Y N Y V P V N Y A R ` s   A d d Z M M d d d d d p d d d p p d g d N A C n Z M A F ! A , ",
"i ] R Z M n n n n M m M M M M n b L m b a M Y V N Z S P S R R p   A d n A M g n d d d d p d d d d d d N N g N N Z C Z N A A ! 8 ",
"s ~ ~ A C d n M M M M M M d n n b 4 L 4 d a P P Y N Y V Y R ~ <   A g A C M M n n d d d p s d d d d d d N A d A Z A N A ~ ! / 7 ",
"i ( F F A A Z Z N m M m n d d d 4 4 4 L Y n n V S Y Y Y R ~ ` < o T C A A C A A N C C Z N g M g M d C n n A A p Z F F ! ] ~ ) 7 ",
"8 ( A Z Z F R T Y A Z Z M n M d P L M n N Y Y S R Y R R W ] ' & $ ~ A ! ! F A A A A A C A C N A A A A C C C F ~ ) ~ ) ~ ' ( ( * ",
"- h ! T T ! R T R R R T R T T T Y Y Y Y Y R R R W R R R ~ ..] * $ U ( ( F A A A C A A A A A A j A A A A A C C ! ! ~ ! ) ( ..U # ",
"@ # - ; 7 7 r i i f f f i s f s 4 x x s g L L L L g L M L g , * $ 7 i s i 8 8 7 5 7 7 8 8 8 y i h s g t s s s h v j v v h 0 : - ",
"j j j j g i i 0 9 7 7 = $ @ + @ $ = - $ $ + $ + + + + X o X $ $ o $ 6 % 7 r t h g j f h y 7 # @ 5 * - 6 7 5 7 8 r t h h f g j j ",
"R G F F F Z Z M M Z p N A U t = : 0 C d d d d m F F W J W J G D W G H G S S S W K G G G F F y @ 5 j A n M n e d M C S G F F G ! ",
"F A S S Z Z N N M M N n N F F 6 = ~ S m b m b B B V D D D D V D F D D S B S Z B B B V D F N S $ 8 F Z n n m N M m M M Z Z Z F S ",
"N m M m B n a a a a M Z F G F 8 % ) G S N m V B S D D G J G H H G G S m n b e b b B V B V F F 7 8 Z F Z A N n n n n a b n N N N ",
"N N m n a a w w e a n b N F F r % W W G b m m b m m B B V D D V B B b e e e b b b m m B S D G 0 y F F m N m b a a a a n m n n N ",
"N S N n a w w w p a p n m Z Z r % W G B b b b b m m B B D V H H D B b e e b b e b m b b b N D 0 y Z F N N n a p a a a b b n b n ",
"B D F S n a w w w w e a n Z Z s % W G B b b b b b b m b 2 V H H D B b b e e e e b b m m m D G y y Z S M M n a p p p a d b n N N ",
"N F D F n w w w w w p a b M Z t = J G B b b 4 m m m B m B V H H H D b e e e e e b m b b m m F r 8 F F N m n b a e a b n n n n M ",
"m S F B M w w w w w w w b m Z i - W G m m b b m B V V V B V V H D D b 4 w e e b e b b b b S F y 0 A F N N n a e a a n m N N m m ",
"m m m n e w 3 w w p a a d n Z i % W G B m m m B B B V V B B B V B b e e e e e e b b b m m B D r u S F B m n a a n n m N m M M m ",
"M N N n a w w w a p a a d n Z i = W G B m m m B B m m m B D V D B b b b e b b e b b m b m S F 8 u S F n m n n n n n n n b d n m ",
"N S N N n a w w n n b d b N Z g $ ) W G V B B m b b b b B V H H H D B b b m m m b b b m m S F 7 i F Z N N N N N n n b a a p a m ",
"S S D S N N N n N M N M M F ~ h $ ) W ) H D B B b b N V D W Q Q H D B m B N S m B b m m B D D 7 i F F N B B N M n a e w a b n N ",
"G ) W R W F N N N m n n n N F i # T W J D V B B N S J G D H Q W H B m B S S D S V B S S F G ~ * 0 ! R G F F F N N m d n N Z F F ",
") ) ` ) G ~ G ~ G F F M M Z j 6 5 0 F R J G D G D R W _ { ) W R G ~ G W Q _ G W D S S Z D T U 5 5 ! R F Z S S F F F F A F R W W ",
"U U I L h u u 9 6 5 5 - 5 @ O # # 5 - 5 - 6 - 6 = = 1 9 > * # - 5 * 5 5 7 0 u u h i i t t 8 @ 5 5 6 i i h h h h j C C C A ! E U ",
": - 5 6 9 y i i i x x x x i i f z z i y < < , , % = = ; 1 @ @ # : > i f f x x y l l l u l i i a h i h h s i i y 8 , ; ; 7 - 5 - ",
"- 0 / ` ] ] ] ` ` ] ..o.X.O.O.X.o.X.` E E E E R R E E R E U : - > R Y B B V D V W { Q { Q { Q { _ K W D V V S V B N m B G R 9 # ",
"# ( ~ T R E T R R ~ ] ] ` ' ] R R ] R P P P C P U A E T M U k : y S N N V S V D Q Q Q { Q { { { ) J G G H H H D V B B B G Q I : ",
"- ] ` ~ R ` T Y Y R W R R R ` d P R R N n n M P Z C n C C P z : u S N m m B B V V H Q V H H H V B V B B B B V H D J G G _ ) ! # ",
"- ] ` T T R M P Y R R T R R R R Y R R Y P N P Y A Z Z C n C c 5 u S S B B B b B B B V V H H V B B m m b b B V D D H D H { Q ~ : ",
"> ] R M s T d Y R R R R R E R W Y Y R R Y Y Y T Y Y R E P Z L : l W D D V V B m B B B B V V V V m m m m B B V H H H H H { Q R - ",
"- X.` Y T S Y T R T R R R R R R Y Y Y R Y Y T R M R R R P P U : q ' D D V V B m B V B V D D H V B m m B B V H H H H J J { Q ) : ",
"- o.] R T Y R R T R Y T R E R R P Y Y R Y Y T R R R Y R Y R U : 9 _ D D V V V B B V V D V H H H B B B V H H H H H H J J { Q ) - ",
": X.[ ~ R R R R R R Y R Y Y R R R Y Y P Y Z P Y R T Y Y ~ R ! : 5 R D D D V V B V V H H H H H H H V V V H H H Q H H H K { { Q ; ",
"* ....) R R Y Y R Y Y R T R E R R R R Z Z M g M M C Y P T A E - : R m m m m B B D H H H H V H H H H H H H H H H V H H H { K { - ",
"* X.X.W Y Y Y E Y T Y Y Y R Y Y Y T T R R Y R R R R R Z U U ~ : : P m m B b m B V V D D V V H H H H H K V H D H K H H K Q { } * ",
"@ X.o.) Y E R R R Y R Y R R Y Y P Y Y Y Y R R R R R S A A Z U : : Y m m b b b B V V V V V B V V H H H H H Q D W K H K K Q {  .* ",
"@ ..X.[ W W R R W R R R R R R Y Y Y Y Y Y R W R R R Y P T C U : : S V m m m B B b B B B m V V D H Q Q Q Q { _ Q { Q { Q {  . .1 ",
"@ ^ O.o.....X.] ] ] ] ` ) R W ^ R R R ~ ` ] ] ` ] R / R T P I 5 : T S N B V D D W D B N V B m V H Q Q Q Q Q W Q Q Q Q Q Q  .+.> ",
"O 9 o.O.O.X.o.o.X.X.X.o...` ] ] ` ] X.X.X...[ ..] ` ~ / / ] z @ # v R D ) _ Q Q _ W D V m S V Y W Q Q { Q Q { W S { { { Q | E @ ",
"O @ : > 1 1 1 9 < 9 < < l l l l i i f x f f z g v x x f i 0 : @ # : y g P U P S U g f i y 1 1 ; 1 1 l l k k k 6 : : 6 : 6 > : @ "
};
