/* XPM */
static char *result[] = {
/* columns rows colors chars-per-pixel */
"64 64 60 1 ",
"  c #35672C",
". c #37692C",
"X c #396D2D",
"o c #3C732D",
"O c #3F792D",
"+ c #3B6E30",
"@ c #3E7431",
"# c #417D2E",
"$ c #417635",
"% c #437B34",
"& c #497E37",
"* c #467C38",
"= c #487F38",
"- c #44832E",
"; c #47882E",
": c #48892F",
"> c #468232",
", c #4A8535",
"< c #4C8B34",
"1 c #4B8438",
"2 c #4E8B38",
"3 c #518637",
"4 c #548B37",
"5 c #5A8E35",
"6 c #528D38",
"7 c #4F9134",
"8 c #529436",
"9 c #5C9336",
"0 c #549837",
"q c #5F9937",
"w c #549438",
"e c #5A9638",
"r c #569A39",
"t c #5A9D39",
"y c #629535",
"u c #639B36",
"i c #699E35",
"p c #619E38",
"a c #5DA13A",
"s c #65A137",
"d c #6BA436",
"f c #6DAB37",
"g c #63A439",
"h c #68A738",
"j c #66A939",
"k c #6AAC38",
"l c #71A634",
"z c #73AC35",
"x c #79AF34",
"c c #6FB138",
"v c #75B337",
"b c #7AB435",
"n c #77B837",
"m c #7CBB36",
"M c #72B338",
"N c #80BC35",
"B c #84C236",
"V c #89C635",
"C c #8BC935",
"Z c None",
/* pixels */
"ZZZZZZZZZZZZZZZZZZZZZZZZZZZZZZZZZZZZZZZZZZZZZZZZZZZZZZZZZZZZZZZZ",
"ZZZZZZZZZZZZZZZZZZZZZZZZZZZZZZZZZZZZZZZZZZZZZZZZZZZZZZZZZZZZZZZZ",
"ZZZZZZZZZZZZZZZZZZZZZZZZZZZZZZZZZZZZZZZZZZZZZZZZZZZZZZZZZZZZZZZZ",
"ZZZZZZZZZZZZZZZZZZZZZZZZZZZZZZZZZZZZZZZZZZZZZZZZZZZZZZZZZZZZZZZZ",
"ZZZZ&&&===>>>%OO><rgfvmNNncgr7;-:8ajcmNNmvfg8<-O>>,,,111&11&ZZZZ",
"ZZZZ&11111111>###,2tkznmNncgt7;-:8akMNBBvMje7>O#-1,,111131&&ZZZZ",
"ZZZZ&33422622,>%O-<8afnNBmvkt7;;70acnBBnMktw:>#>><26266443&*ZZZZ",
"ZZZZ&345544w22<>#O>2rhvmBNnkt7;-:0acBBBnkg07>O->228wr99543**ZZZZ",
"ZZZZ*149yqqq942,-O#:6afmBBncr7;;:0anBVBnka7;#--<6wqqquq942**ZZZZ",
"ZZZZ$&39yuuuqqw2>##-<wknBVBca7;;70jnBCBca0:---,2weupuuy94&*$ZZZZ",
"ZZZZ$*35quiiuuew<>##>7tMBCBna7;;:0jnCCmc07-##,2wpuddduy93&$$ZZZZ",
"ZZZZ$*149yidddpr7>-#-<wkmVVna7;;70jBCCna8:-#>2rphdldduq41**@ZZZZ",
"ZZZZ@*=45yidlldsw2>##-7anBCna07;:0jBCBc0<-#><8tdfllldy93**@@ZZZZ",
"ZZZZ@$*14qudfzlfgw2-#-:0kBCma0:770kBCma0:-#;7tdfvvvduq62**@@ZZZZ",
"ZZZZ+@*=25uulzbvkp2:--;7anBmar7770cBBcr7;>;28hzbbxliy421*@++ZZZZ",
"ZZZZ +@*&25udzxbMcr7;;;70cBmj0778rcBnj0:::<7akbmbfdpw2=$@+..ZZZZ",
"ZZZZ+.+@$>2wudzbNbhw<<;<0tcncr770acmct7<:<8rlbNbvdu62>$@o.. ZZZZ",
"ZZZZ+..+oO&,6qfzNbvs8<<<7rjnja070acnj077<88jnNNvdq6,>@@XXX++ZZZZ",
"ZZZZ@+.XXoO%,2ehxmbvq8<<70jccar00acca07778sMNNvhr2,%OooXo@@@ZZZZ",
"ZZZZ*$@@XXXo%>1wuzbbk0880rajcar0aacja877wtzbNzsw2,$OoXo@@*=1ZZZZ",
"ZZZZ3&*$@ooooO%<6qkvMg08700acarr0acjt788tkvvft81>Ooooo@*&&44ZZZZ",
"ZZZZ5331&$@ooOO-12rhzkgr000tjarrajkar80tgMzhe7<>OOOoO>113555ZZZZ",
"ZZZZ555421>%%OO%-,7rskharrrtjjtrajja00rgkkgr<<>#-O%&,,6459y5ZZZZ",
"ZZZZyyyy996,>>>#-><2wgjhtrraajttaja00eakkar7<<>>>>,<6eyuyyyyZZZZ",
"ZZZZyyiiiyyy4211<,<<6rajjartaaataaarrajjaw62<<1<<29uiidiiiyyZZZZ",
"ZZZZyyiilllldpr6<<<<780aggrrraataatrajjar8872<28euglzlldiyy5ZZZZ",
"ZZZZ55yiilxxxldsew6667w0ajaarattaarraaa0w88w8rqsfzxxxlliiy55ZZZZ",
"ZZZZ359yiillzxzffgat0wwwrraatttaaaaaarr000reajfMbbxxlduy9543ZZZZ",
"ZZZZ&134559upusdhhhhgttrrrrttttattaaarrtaahhdkfhhsuu999643&*ZZZZ",
"ZZZZ$$%%&&>12268rqpasghatrtrtttttarraaaajgggtqer6622,&>&$$$$ZZZZ",
"ZZZZ.++$o@%%%>,<227wretaatttttttataraaaaarr0w62<<>>%##$$$X$.ZZZZ",
"ZZZZ.....XoO%#>>1<2788wrrttttttattratarr00667<<>>%OOooXX....ZZZZ",
"ZZZZ  . XXoO%#->12222rrrrrrrtarattaraarrww86721>>>OOooXX..  ZZZZ",
"ZZZZ$.$$O@O%%>1<22wrrraaaaattraataarraaattr06722<>>%%@OO@o++ZZZZ",
"ZZZZ$$&%&&11<22wrraaajaattttttaratrrraaahhggaeer82<,211%$$$$ZZZZ",
"ZZZZ&#&4699uusddjjjjaarrrrttttrttaaaarratahhjkkfddup9944611%ZZZZ",
"ZZZZ355yuillxzzzkgperr88rtaaaraaaraaaarr00rtshfzvbzzldiy5543ZZZZ",
"ZZZZ5yyidlzxzzdseww8278rtaatraraaarraaarw6888rtsdvbxxlliyy55ZZZZ",
"ZZZZyiiiilldsqw22<2<78rajatrraaaaaarajaar8772227euhfzllliiyyZZZZ",
"ZZZZyyyiiiu962,,>,<20rajjarraaaraaaraajjar7<<<<,224uiidiiyyyZZZZ",
"ZZZZyyyye961>%%>>><7rtkga000aja0ajar00ajjjr02<->>>1249quyiyyZZZZ",
"ZZZZy5542,%%%###><2wskhg000ajja0ajja00rajjar7<>-#O#%12655yy5ZZZZ",
"ZZZZ55&&%%OooO#-<2tklkgr07aacaa0ajja000rjccar2<-#OoO%%>,4555ZZZZ",
"ZZZZ&&%$@oXooO%,6afvMgr8700jkaa0rjca0700ajnnft61>OoooO$&%145ZZZZ",
"ZZZZ*$$XXXXo#>19sbmndr8270akka00racjar770acnnMpw2>#OXooo$%&&ZZZZ",
"ZZZZ$.X.X@O%>2efbNbft87270acka00aaccar777racmBbhr6,%OoXXX$$$ZZZZ",
"ZZZZX..X@O&16ulbNbMq77<<70jnka07racMar07<70anNmbhu6<%#OXXXX+ZZZZ",
"ZZZZ..X$@&,wudbbbxhw<;<:7aMmk070rrcnca07;<70knmmzhuw2&%$X...ZZZZ",
"ZZZZ.+$%&2wudlbbvdw<>>:<8gmNk07700cNmj07:::7tzbbbzdu92=$@@..ZZZZ",
"ZZZZ+$$&34yilvxzkq2<--:7tcBNk07:7acNBcr7:;-<8gzvbbzsu92=$@@+ZZZZ",
"ZZZZ$$&34qudlxzdp8:---<8jmCNj07<70cBVna8<-->2ehfzbzfuq41=@@@ZZZZ",
"ZZZZ$*&49uidzfdsr<>#->7tMBVBa0;;70cBCBct<>O-<8qsfllliu961$@@ZZZZ",
"ZZZZ$*15yuifddue2,-#-<wkmVVna8;;:0jBCVMg8:-O-28qsfdfdue4=**$ZZZZ",
"ZZZZ$&15yuiuuuew<-O#,8aMBVVna7;;:ajmVVmkt7>-->2rquudiiu42*@@ZZZZ",
"ZZZZ*&59uuuyqe62>##-<0knBVBca7;;;0jnVVBMaw<-#-<2wquuuuu93=*@ZZZZ",
"ZZZZ*&4y9yq9r221#O-<8qzmBBmca7;-:aanBVNnjt7:-#><6rqquuy96=**ZZZZ",
"ZZZZ&3459966221%##>2rgzmBBnka7;-:0aMBBBnkgr2>#->26wwey9941**ZZZZ",
"ZZZZ&33632222,>OO-<wafnNBmck07;;;0acnBBnMkt8<-##,126666443&*ZZZZ",
"ZZZZ&11111>,,>OO#<9tfvnmmnca07;;:0acMmBmbMkt7>##>>112=23311&ZZZZ",
"ZZZZ&&=&=&1%>>O%>2rkMvmNmnca07;;70aaMnBmmvkjr1-##>,111=111&&ZZZZ",
"ZZZZZZZZZZZZZZZZZZZZZZZZZZZZZZZZZZZZZZZZZZZZZZZZZZZZZZZZZZZZZZZZ",
"ZZZZZZZZZZZZZZZZZZZZZZZZZZZZZZZZZZZZZZZZZZZZZZZZZZZZZZZZZZZZZZZZ",
"ZZZZZZZZZZZZZZZZZZZZZZZZZZZZZZZZZZZZZZZZZZZZZZZZZZZZZZZZZZZZZZZZ",
"ZZZZZZZZZZZZZZZZZZZZZZZZZZZZZZZZZZZZZZZZZZZZZZZZZZZZZZZZZZZZZZZZ"
};
