/* XPM */
static char *result[] = {
/* columns rows colors chars-per-pixel */
"64 64 40 1 ",
"  c #4C463F",
". c #4F4941",
"X c #534D45",
"o c #575047",
"O c #575148",
"+ c #5C554C",
"@ c #5F584E",
"# c #5F5A51",
"$ c #60594F",
"% c #645D52",
"& c #685F54",
"* c #676055",
"= c #696156",
"- c #6D655A",
"; c #6F685D",
": c #70675B",
"> c #736A5E",
", c #6F6A60",
"< c #746E63",
"1 c #786F61",
"2 c #767165",
"3 c #7A7365",
"4 c #7B7569",
"5 c #7E796C",
"6 c #807768",
"7 c #827C6D",
"8 c #847E70",
"9 c #868172",
"0 c #8A8474",
"q c #8E8877",
"w c #8C8778",
"e c #8E8979",
"r c #918977",
"t c #928C7B",
"y c #96917F",
"u c #979280",
"i c #9A9482",
"p c #9E9986",
"a c #A29D89",
"s c #A6A18D",
/* pixels */
":-::=%XXX+-;*--*>&96361116- ++OO@2itw5-*%+XXXOO@&<23%X O$>3668::",
"=-:-&+++XX=&%%*:>&9663--:--$O+%4te5550w3,;-#++OOOOO.  X&6673466%",
"#&&%@-4<=O->>>>>11>3>>&>>1>$%-wu97555590eie,+#%%%#+O$-288431>69%",
"+@%&*tp01-+=>1>333:-->>>>>-&-9w54,42222450s-#%&&%++-400533>>>67&",
"%1420t8701:=$:1111>>>-&&&$*;9q942,22222225i*%@%%@+>7084<<<>3366=",
"%>tt8432245>>>:>->>>:-693170955442222,2,25u;*+%%O;7873<,<12337>%",
"+%7e742<125>>636>1>>->0r>17733324222<<,224u7<&#+%2t8332<<>>247:$",
"O+0044223233>>33>>>>=>031441222,2222222225i-=+%+<u83<3<2<23447-%",
"O#u544433221<<;>>:>>:3912<1<,1<<,2,2222225e#%++%2u52222222<247=%",
"O,u5558900821<><6>>1>>66>;2<;<<>2,2242245u5#@$+=4u52,,,22<2259%$",
"+4u45#%,-*45<11<3>>1>::3>2<;;<>2<2223-;48i5#++$;594422,222<277$@",
"%e92,,;,;;%241<26>111>:3721<><32<2224;;59e;%%&=28844222,<22495+%",
"#w94<,<<<<;>71261>131>=6741>3331<2233479w2>$%>:7554,4222<<2204O%",
"*t9<<22,<<1>407>%>1>1>=37763433352347707;;-+@>2924,,2222322489X$",
",i54,233332473$$$&---$o+-16796972;;;177-*$$%+-9542222222<22400X+",
"*9942<24457r>$--$>663r$$+++$:7412<;;-->-%*=-%-t7422,2<<2<2240rX+",
"%e9,2<<237t2+-:=1763363+%%%#OO+#&=-===;=--::&&t742222<<22245uw.+",
"*p02,,,25q4+-=:36333369o####O+. Xo$&&-----::-$4q5422<223459ei*@+",
"-t04,<35q3@==->33132>66--#OO;t1-%%$$$$%%%-::-$-r5,4223379ep8X$;*",
"#4e5449e;@--$>731>1>>31:,#O-5pit00752>;-$$:::-$6uu5589e03;#+=>2>",
"-%t0800#@*-@-92<>>>1>33-*O59u85580weewt7-&&-:-&$#,ett0:++$=->>>>",
">$>0ut#%-%+%w82222<1116$O9a94422234555507--%-::&##;&$+&-:-==-:>1",
">>+-1-&-##*u952<22>2163$Ouu42<2,22<2324476>--:>>,&%@X+:-:=:3-&->",
":-O=%--+#,0w52222<3130$$#w942<2,,2,22223379-&>>1<:;&X%-%=-:973-%",
"&%O%::*30y952222222359o$-3t522222,2222,2349<#;>>>;;%,,,,==779003",
"0>++%*-9y74322,2222393+@-*79222,222,2,222459$->1>-+;505412422350",
"05%O+o*>y522222,,,23w;o@%%39522222<222,2234w&=>>;+-pe95875222235",
"50%+:-$;0522222<2<330-O#%*7542222222222,24457+>>$>i08544222<<<23",
"20,%--$7054222222225w*+@*>q3222222242222<235e%-=1y534444422<<<<<",
"<7e-%-%9w42422222425u-O@>9342><22,,222421235e+-+e52<,2222222<<2<",
"<48e@*$:e42222222225t2O@3433<<,<222,224422477%&%e5<<,2224222222,",
"345u3+$=85222,222248i5@@7>>7<<<;,222,,2442545%&%072<2,,,24222224",
"235q9$&%:943222>345rt:$+3;-61<<<2,<<<2<<27979=--3933<><<22222222",
"22597$-&-7743222350y*-o+76742<,<22<<2,2,2670=$=&36332>2<2,<<2222",
"22401$--&-r7544449y=$+$+>92321<<,<<<,2<<346%%-:=-643222222<2222,",
"227r1%:>:$$q999qei4$=:>+=72<<1<<22<<22<<46>$:>1>$4931222<222<222",
"255i1%>1>>+::-=**;>%>>:$:6611111221123<406>&>11>:*07332>,,,42<<2",
",40u$%>>1>&+$&=$**=-:>>=>1663>111<11235001=->>>>>=>7961322,22,,<",
"25w2$&:>>:%+-::-=$*%=:-$$>3>363322345981$$=>>>>>>:=:>>>-3355222<",
"295*%>11>>%$%=$$-763:-*$$$>3:>13777974=+$$%=-:-::::&>>>><3052222",
"5w;==>>:;*$-;-20r977776$%%%#%&--;>3>&+$$=>>63>>>-=::-11>;;>32544",
"e<1=:>-$@%--70933333367>#&&%<<>>>--%&$%>>1665446r1$-*-1:%=:39770",
"31=:>%$359weq7321223160>+*%#:<><>>>>>>>331331>>4431**+%$@+$%4rr9",
"#=--$-yq985543222313369>+@&-&&%->>1>>>773331>;>561131$$$%=>*$$==",
"+:-$-t743244,;2<2321>66$O*<8up9#:>>>>>>3632>-<22334791$$&>>>>:oo",
"$$&<t7222244222>>>>>36:+O2pu95w<$:>>:>>>31<;122<12314671&=>361>$",
"+%>0422<224223<;<<137:$++4u5425u$=>>->>131<2232<><12313671->166=",
"O-27<22<,442<<1>22336=$++u5222483%>:-6>:7><2232<2<21113367>:>>:$",
"$-3422,22452,,,,<<363=$o+p4422240%;;-82*54222222;22<2212141-**--",
"%4832,2222222,2,1>37>%$X%p5342440*-;#54*4554422,2;2>>22<1311-=:$",
"6t722222242,,,,<3>39:++X8e4222240;-@+29,552224222,><<,<212247:&=",
"704222222222,,<<>376=OX$i53222249>,*O-w,25222242222,<><22>>301+$",
"8032222222442,,<>491+O+3i52222247->=#,85542222222,2,,22,<2230=+$",
"883322,2<22222,<149&Oo-t044225555--&O*,9522,,2,243222,,<12120-+$",
"8033<<2,<222<<<<273@++*r542224585-=@O,2w422,22,222222,,<2<1401oo",
"8052<2,2<233<<<<37>Oo%:r52<224557-*+O,ww5222,222<222222,><1397+ ",
"5u5222<<,22422,,67:X+:792<<<<22701>++27928222,2,,<224222<><409@.",
"#s522,2<,2222,2,66$X-7q42<<,<1170>:+O1>5,,82222,22<22242<<25y2%+",
"O2u222,2222424543>X+6r421<><<<3901=+@=705,,24,222,,22,244459*@**",
"##uu52222,22<<556: -973>1<<<1271;>&%%O:7i92,422,224,222245u<+->-",
"-%&8i52222222<483$X30421<1<2463---%%&%O*,wu95222,22,22349yt+->1>",
",&@+<i8522222250>o+312111<2783>:>&#%++@OX*2ww52222,,235wy6$%:>11",
":-&@O2pw555348u5: -6>2>>1376<:-&%+O$>1%OOX#*9u85555590yr$o&-:>11",
":---+#,psauuue82=$3r4333312>=@++OX%122>&O#OO*isppiiis01++$&=:->>"
};
