/* XPM */
static char *result[] = {
/* columns rows colors chars-per-pixel */
"64 64 34 1 ",
"  c #443732",
". c #463A35",
"X c #4A3C35",
"o c #453E3A",
"O c #4A3F39",
"+ c #45413E",
"@ c #4B423D",
"# c #51433C",
"$ c #58473F",
"% c #58483F",
"& c #434344",
"* c #4B4542",
"= c #4B4847",
"- c #464748",
"; c #474849",
": c #4A4A4A",
"> c #524741",
", c #534A46",
"< c #5B4D46",
"1 c #534E4B",
"2 c #594E49",
"3 c #53514E",
"4 c #5A514C",
"5 c #4F4F50",
"6 c #545352",
"7 c #585654",
"8 c #5A5856",
"9 c #575758",
"0 c #595958",
"q c #615047",
"w c #615149",
"e c #615651",
"r c #625853",
"t c None",
/* pixels */
"&&+o@*&&&&:3@+++&&&&&&&&&&&&+&&+&&&&&&&&&&&&&o&&&&o 15&&&&*+&&&&",
"&&+&@++&&&:3@X+&&&&+&&&&&&&&&&&&o&&&&&&&&&&&&&&&&&+ ::-&&o++&+&&",
"&++o@X@+&&:3 +&&&&&&&&&&&&&&&&&&&&&&&&&&&&&&&&&&&&&.35&&o@OXo&+&",
"&&@,834++&:3.&&&--&-&&&&&&&&----&&&-&&&&--&-&&&&-&&X1:&+.177*o+&",
"++@7:=6@&&:4+35666666666556656666666;5556656666661:*4:&oo6::6X*&",
"&+@6::3#+-33@::36::11:11:515:1111:5655556413:1114:1>16-o*3::6@+&",
"++o2664+&:8OttttttttttttttttttttttttttttttttttttttttO0:-.343=O+&",
"&&+@#>@&:8@=Xtttttttttttttttttttttttttttttttttttttt.**0:++@@Oo&&",
"&&&@O@&:8@.:7ottttttttttttttttttttttttttttttttttttO6:.@0:+o+&&&&",
"&-&*@*,8# o*47Xtttttttttttttttttttttttttttttttttto71*o o8:*-&&&&",
":::1,18>XO@*-68Xtttttttttttttttttttttttttttttttto76;&o. @841::::",
"411221O>,*+@--67Otttttttttttttttttttttttttttttto76;&&O*>>@444134",
"#  XX#tXw4=@&&;38@tttttttttttttttttttttttttttt+75;-&**14Xt%#. X#",
"# X ,<tt@e4,&&&:37+tttttttttttttttttttttttttt@76;&&&*17Ottqw#XO#",
"#XX@4<ttt@e4--&&:67.tttttttttttttttttttttttt#73;&&&;17Ottt<w$X@@",
"X X@4<tttt@r6;-&&;68otttttttttttttttttttttt>86;&&&;67.tttt<w%#@O",
"XXX@4wttttt@86;-&&;69+tttttttttttttttttttt@83-&&&;59.ttttt<4$#&O",
" XO#4wttttttO85;-&-;69@tttttttttttttttttt#76:&&&;67otttttt<w#@+O",
"XXX*4wttttttt+86;-&&-68#tttttttttttttttt#86-&&&:18Ottttttt2<#@+O",
"X#@#4wttttttttX76;&&--67@tttttttttttttt+66;&&&:67&tttttttt,2>@&O",
"O@O@44tttttttttO76;&&&;68+tttttttttttto76;&&&;66@ttttttttt,1@&oO",
"#O**1<tttttttttt@76;&&&:37+tttttttttt.86;&&&;56@tttttttttt,2@+&@",
"#@@*4<ttttttttttt+73--&&-36+ttttttttO73;&&-;67ottttttttttt<2++o*",
">Oo*12tttttttttttt@93;-&-:68@ttttttO93;-&&;37otttttttttttt,,*o&*",
"*O&*3,ttttttttttttt@76;&&-;67@tttt@75;-&--68.ttttttttttttt,2*&&*",
"*Oo*6,tttttttttttttt+76;&&&;68@tt@76;&&&-56otttttttttttttt,1*&+*",
"&o+&3,ttttttttttttttt+96;&&&;67+O61;-&&-37&ttttttttttttttt<2*&+&",
"+*+&61tttttttttttttttt@96;-&&-33,:&&&&-67otttttttttttttttt,4*&&+",
"&O&&3,ttttttttttttttttt@96;&&&-:6*O&&-66.ttttttttttttttttt<w>&&+",
"&++*6,tttttttttttttttttt&93--&&&-:@O&37 tttttttttttttttttt,7=&+&",
"++&&6,ttttttttttttttttttt@73-&&&&::&*6.ttttttttttttttttttt16&&&&",
"++&&61tttttttttttttttttttt@2:-&&&&-6, tttttttttttttttttttt16*&&+",
"o&+-61tttttttttttttttttttt@:6:&&&&-:5otttttttttttttttttttt16*&&+",
"&+&&61tttttttttttttttttttO6*&:;&&&&-57ottttttttttttttttttt16-&&&",
"&+&-6:tttttttttttttttttto73&oo::&&&&;69otttttttttttttttttt16&&&&",
"&&&-61ttttttttttttttttt+66&&&.&35-&&&;69ottttttttttttttttt16&&&&",
"&&&&61tttttttttttttttt&76:&&&-*,33;&&-;69otttttttttttttttt16&&&&",
"+&&&61ttttttttttttttto73-&&&-36XX96;&&&;69ottttttttttttttt16-&&&",
"&&&&61tttttttttttttto96;&&&;36@tt@73;-&&;67+tttttttttttttt:6&&&&",
"&&&&41ttttttttttttto66;&&&-67@tttt+96;-&&;69&ttttttttttttt:5&&&&",
"&&&&5:tttttttttttt*75;-&&;67#tttttt+76-&&&:69&tttttttttttt>6-&&&",
"&&&&55ttttttttttt#96-&&&:36@tttttttt+96:&&-;68+ttttttttttt:6-&&+",
"&&&&7:tttttttttt@75;&&&;66otttttttttt@76;&&&;69+tttttttttt16&&&&",
"&&&&63tttttttttO64;&&&-67+tttttttttttt+76;-&&;57Xttttttttt16&&&&",
"&&&-6:tttttttto96;&&&;67@tttttttttttttt+96;-&&;68Otttttttt16&&&&",
"&&&-6:tttttttO93-&&-;69Otttttttttttttttt&96-&&-;67ottttttt46-&&&",
"&&&-61tttttt#76-&&&;37otttttttttttttttttt+96;-&&;68@tttttt45&&&&",
"o&&-61ttttt@81--&&;17otttttttttttttttttttto76;&&-;67+ttttt:5&&&&",
"&&&&61ttttO66;-&&-67otttttttttttttttttttttt+96;&&&:38+tttt33-&&&",
"&&&&6,tttO73:&&&-67otttttttttttttttttttttttt+96;&&-;30@ttt16&&+&",
"&o&&:1tto76-&&&-66+tttttttttttttttttttttttttto76;-&&;37+tt11&+++",
"O.  @*to63-&&&-68@tttttttttttttttttttttttttttto86;&&&-37@t@=X.XX",
"244161O*;-&&--67+tttttttttttttttttttttttttttttto93;-&&&1,@463433",
":::::59*.oo&-36otttttttttttttttttttttttttttttttt@86:&++@>01:::::",
"-&&&--:8& o-57otttttttttttttttttttttttttttttttttt@73-+@#0::&&--&",
"&&&&+o-:8&.:7.tttttttttttttttttttttttttttttttttttt@3:+@7:-&+++&&",
"&&@@@+o&:8**.ttttttttttttttttttttttttttttttttttttttX=*8:*@=@@@&&",
"++@1663X&:9@ttttttttttttttttttttttttttttttttttttttttX8:-@6561#+&",
"&+#6:;5>*-:6@,:13:5:3:,:11:111:31111,11,:135411111:*33-@>6;:6@+&",
"++@6::4@o-16*1666555664636665655666366366655633363:@4:&@@7::4@+&",
"&++*771o&-:3.&-&&&&&&-&&-&--&&&&&&&&-&-&&&&&--&&&&&.3:-&@3662@+&",
"&++.X#@+&-:3Xo&&&&&&&&&&&&&&&&&&&&&&&&&&&&&&&&&&&&+.4:&&@##@@++&",
"+&+o#@&&o&:6Xoo&&&&&&&&o&&&&&&&&&&&&&&&&&o&&&&+&&&+ 1:&&+@+++&&&",
"&&&+@@&&&&:1Oo+&&&&&&&&+&&&&&&&&&&&&&&&&&&&&&&&&+++ 3:&&&&+o&&+&"
};
