/* XPM */
static char *result[] = {
/* columns rows colors chars-per-pixel */
"64 64 104 2 ",
"   c #151515",
".  c #1D1713",
"X  c #1D1916",
"o  c #1C1C1C",
"O  c #2F1B0F",
"+  c #311B0F",
"@  c #241A13",
"#  c #2A1D14",
"$  c #231E1A",
"%  c #291F19",
"&  c #341D11",
"*  c #2A2116",
"=  c #25201D",
"-  c #2C241C",
";  c #362115",
":  c #382215",
">  c #362917",
",  c #3D2B17",
"<  c #36251A",
"1  c #3A261A",
"2  c #352B1C",
"3  c #3C291D",
"4  c #252423",
"5  c #2B2621",
"6  c #2D2924",
"7  c #2C2C2C",
"8  c #322721",
"9  c #332A24",
"0  c #3C2C23",
"q  c #342E2A",
"w  c #392F29",
"e  c #3F3027",
"r  c #35312F",
"t  c #3C312B",
"y  c #333333",
"u  c #393533",
"i  c gray22",
"p  c #4B2712",
"a  c #432D15",
"s  c #4A2B13",
"d  c #402B1F",
"f  c #572F13",
"g  c #443017",
"h  c #4B3317",
"j  c #443118",
"k  c #543314",
"l  c #5D3313",
"z  c #513917",
"x  c #5E3A15",
"c  c #553D18",
"v  c #633614",
"b  c #613B15",
"n  c #6A3F15",
"m  c #412E23",
"M  c #423026",
"N  c #43332A",
"B  c #49362B",
"V  c #46382F",
"C  c #49382F",
"Z  c #443730",
"A  c #463932",
"S  c #493C34",
"D  c #4C3F38",
"F  c #664517",
"G  c #6B4416",
"H  c #6D4817",
"J  c #674618",
"K  c #684718",
"L  c #6A4918",
"P  c #734616",
"I  c #764B17",
"U  c #7A4D17",
"Y  c #764E18",
"T  c #7B4E18",
"R  c #765118",
"E  c #7C5318",
"W  c #4D413A",
"Q  c #815418",
"!  c #845919",
"~  c #8B5F1A",
"^  c #8E611B",
"/  c #92651B",
"(  c #95691C",
")  c #9A6D1C",
"_  c #9E711D",
"`  c #A1751D",
"'  c #A6791E",
"]  c #A97C1E",
"[  c #AD811F",
"{  c #B28520",
"}  c #B58920",
"|  c #B98D21",
" . c #BE9222",
".. c #C29622",
"X. c #C59923",
"o. c #CA9E23",
"O. c #CDA224",
"+. c #D2A725",
"@. c #D5AA25",
"#. c #D9AE26",
"$. c #DDB227",
"%. c #E0B527",
"&. c #E2B728",
"*. c #E4B928",
/* pixels */
"1 1 < < < 1 < 1 < : & & < < & 1 < 0 #   o o o o o o o o o o o o o o o o o o o o o o o   o @ d 1 & & < < & 1 1 < & 1 & 1 & 1 0 1 ",
"1 S Z N N N N m M m d d 3 3 m m D D % o 4 7 y y y 7 y i u i i i i i i y i y y y y 7 7 4 o @ B Z N m 3 1 d d m m M M B B M A B < ",
"1 m 1 : : 1 < 1 & < & M D D & & N S @     o o 7 y y i u 0 8 8 1 0 9 0 w w 9 y 7 4 o o     @ B Z & & S D M & & & & d & & & d B 1 ",
"1 m : & : & & & & & & B A S m & M C @   o 4 q 9 < & O O + & + < < & & & & # & < 8 6 4 o   @ C N & 0 S A D & & & & & & & & & N & ",
"< m : & : & & : & & & m A D & & N S @ o 9 < + & & & & & & & & S B & & & & & & & & & < 5 $ @ S M 1 & D D M & & & & & & & & & M 3 ",
": N : & & & & & & & & & & & & 3 S S & & O & : S 1 & & & & : & < : & : : & & & < S 3 & & & ; S B 0 & & & & & & & & & : & & 1 m 1 ",
"< M : & & & : < < & & & & & d B Z 1 & & & & & B < 1 N M m 8 < 9 8 0 w t M M 0 : B & & & # & 1 S A 0 & & & & & & & & & & & : M 1 ",
": m : & & : & & & & & & 1 M C 0 O O & & & : 3 m 0 < $ .   = 4 $ . 4 o   X % 9 t m 3 : & + & + + 0 D M 1 < & & & & & & & & & m < ",
"< N & & & : & & & : & d V B & & & & & < m N 5 $ ; p p = 7 7 - v x - 6 4 X p p ; @ 6 N M : & & + & & A A d & & & & & & & & p m & ",
": m ; & & & & & & : 1 S N & # Z m & 3 0 - # s v v k * 7 7 - H ! ! G 5 7 7 * l v b s # 4 w 3 & N Z & & M M d d & & & & & & & m 1 ",
"; m & & & & & & : d B M & + + d 3 m 8 o $ p l v l = 7 7 - E ) ' ' ) Y - 7 7 - v v v p o 4 - 0 0 M & + + m C 1 & & + + & + & m & ",
": 0 1 D S & & & d B m & O & & 3 0 $ # 4 7 4 s l = 7 7 - E _ | X.o.| ` E - 7 7 - v s 4 7 4 # $ N 0 & & + & N B 3 p + & B D 1 m & ",
"< 3 B Z S N & < V B + # + & N t # x n , 7 7 = X 7 7 - R _ | +.$.#.O.| _ R - 7 7 @ 4 7 7 , G b * w 3 & & O + N M & & N C Z S 1 & ",
"< 3 0 S D 1 & N N + + & & M w > I ! Q P > 4 o 7 7 * G / [ O.$.%.*.$.O.{ ^ G = 5 o 7 4 , P Q ! I < w m : & + & M m & 8 D S w 1 0 ",
": m & 1 3 & 0 B & & & & 0 0 ; Q ) ` / U b X 4 4 o s I ( | +.%.*.*.&.+.} / Y s o 7 4 X v T / _ ) T > w m & & + & S d & 0 m & d & ",
"< N < & & 3 B 1 # S m 3 u > E _ ] ] / Y - 7 7 o 7 4 x ^ [ o.$.&.*.#.o.[ ^ b 4 7 4 o 7 - I / ] ] ` Q > t 1 m B O d B 1 & & & N 1 ",
"3 S Z M N S A & + m 3 M % I ) ] ] ` ! 2 7 7 = > 4 7 4 K ) } O.@.#.O.[ ) K = 7 6 > * 7 7 2 ! _ [ ] ) I * w 0 m & + V Z m m M S 0 ",
"0 D S A S D 3 # & & m $ b ! _ ] ` ! 2 7 7 - n P h 7 7 5 L _ { .. .[ _ L = y 7 , P H 2 7 7 2 ! _ ] _ ! b $ M & & + 3 W S C A D 0 ",
"# % @ @ @ & & & & 3 5 # n Q / / Q 2 7 7 - Y ~ ^ ! c 7 7 4 R ( ` ' ( L = y 7 , ! ^ ^ E 2 7 7 2 ! / ^ Q n # - 3 & & & & @ @ @ % % ",
"o =     4 & + & < M o 4 , P U I 2 7 y - E _ [ { ] / c 7 7 6 H ! E F 4 7 7 , / ' } [ _ ^ 2 7 7 2 T T P , 4 4 0 : & + & o     o o ",
"o 7   o 9 + & & 0 5 o 7 4 , x - 7 7 - E _  .O.O...[ / c 7 y 5 x z 4 7 7 , / [ ..O.O.| ' ! 2 7 7 - b , 4 7 o % 3 & & + w X o 4 o ",
"o 7 o 4 8 + & 1 N @ s 4 7 4 . 7 7 - Y _ | O.$.$.@...] ^ z 4 7 o = 7 6 , ^ ]  .@.$.$.O.| ` E 2 7 7 X 7 7 4 s @ N 1 & + 8 4 o 6 o ",
"o 7 = y & 1 & m < s l f $ o 4 7 = G ^ [ O.$.*.*.%.@.| ) E g o 4 7 4 > E ) | @.&.*.*.$.O.[ ^ H - = 4 7 4 f l s q m & & & 7 4 7 o ",
"o 7 7 w + D M m X v v k o 7 4 o ; P ^ { O.$.*.*.%.@. ._ T k = 7 4 X x T _  .@.&.*.*.$.O.{ ^ P ; 4 7 o @ x v v X N B C + w 7 y o ",
"o 7 y 8 & 1 < w & v l % 7 7 X 7 4 h ! ' ..@.&.&.#.o.{ / b 4 7 4 o 7 5 H / { O.#.$.*.@. .' ! , 7 7 o 4 7 - v v ; w & 1 + 0 y y o ",
"o y y & & & d 8 p f % 7 7 = s 4 7 7 c / [ X.@.@.o.} ) F 4 7 7 g a 4 7 6 R _ } O.@.+...[ ^ j 7 7 4 s $ 7 7 - l p 9 m & & & u y o ",
"o y u & & & m @ p $ 7 7 - G U c 4 7 7 c / ]  . .{ ) K 4 7 7 z U E h 7 7 5 R _ {  .| [ ^ j 7 7 4 F I G - 7 7 % p $ N & & + y y o ",
"o y r & & & N . $ 7 7 5 R ^ ( ^ K 4 7 7 c ^ ) ) / J = y 7 c ^ / ( ^ z 4 7 5 R / ) ) ^ j 7 y 7 J ^ / / R - 7 6 $ . N & & + q y 4 ",
"o y w & & & 0   6 7 - E _ { | [ _ K = 7 7 c E T x 4 7 7 c / ] | | ] / c 7 7 6 H E U a 7 y 4 F ) [ } { _ E 5 7 4   N & & + w y o ",
"o 7 9 & & & 8 = 7 5 E _ | O.+.O.} _ R 5 7 4 h z - y 7 c ^ [ ..@.@.X.{ / z 4 7 5 x > 7 7 4 G ) } o.+.O.| ` T 5 7 o m : & & w u o ",
"o 7 9 & & & 1 4 - P ) | O.$.$.#.o.} ( H 5 7 4 o 7 7 z ~ ] ..@.&.$.@.X.] ^ h 4 7 = 4 r 4 F / { o.#.&.$.+.| ) H = 4 8 & & & 8 u o ",
"o y 0 & S 1 9 $ v Q ] X.$.*.*.*.@...` Q b = o 7 4 j I ( | @.$.*.*.*.+.| ) U , = o 7 = k Q _ ..#.&.*.&.#.X.] ! l @ 8 1 D & 8 i o ",
"o i 0 : S : 8 . x ! ' X.#.*.*.*.@...` Q z = 7 4 o a T ( | +.$.*.*.$.@.| / Y a 4 7 4 $ x Q ` ..@.&.*.*.$.X.] ! x $ < 1 B ; < i X ",
"o u 0 + + : 8 4 = H _  .O.#.&.#.O.} / F = y 4 X 7 4 h ~ ] X.#.&.*.@...[ ^ z 7 7 o = 7 4 H ( { o.$.$.$.O.| ) H - 7 8 & & & 9 i o ",
"o i 0 & & & 8 o 7 * E _  .O.+.X.} ) K 4 7 7 ; x - 7 7 z ( [ X.@.@...[ / z 7 7 4 k g 4 7 5 Y ) } o.+.O.| _ E - 7 o < ; & & w i o ",
"o 7 w & & : N   4 7 - E _ { | [ ) K 4 7 7 , T E H 5 7 7 z ( ] | | ] ^ c 4 r 4 x E E c 7 r 4 L _ [ | { _ E - 7 7   t : & + w i o ",
"o 7 i & & & Z . $ 7 7 - U ^ ( ^ J 4 y 7 g ^ ) _ ( R 5 7 4 c ^ ( ( ^ c 7 y = K / _ ) ^ c 7 7 - J ^ ( / Y - 7 7 X @ Z & & O w y X ",
"o 7 y + & & V $ p $ 7 7 - G I b 4 7 7 g ^ ] |  .{ _ R 7 7 7 h U R z 4 y 4 K _ [  . .] ^ c 7 7 7 x I G - 7 7 $ p $ M & & + 6 y o ",
"o y 6 & & & 1 - p l < 7 7 = h 4 7 7 g ^ [ ..@.@.O.} _ R 5 7 4 a a 4 y = F _ } O.@.@...[ ^ c 4 7 - a $ 7 7 % f p 5 1 & & & 7 y o ",
"o y 4 < & , 1 t ; v b - 7 4 o 7 7 , ! ' ..@.$.$.#.O.} / H 5 7 o 7 7 = b ^ [ o.#.&.$.@...' ~ g 7 7 o 7 7 - x v ; 0 < 1 # < 4 y o ",
"o y 7 9 & D B m @ v v v $ 4 7 4 > P ^ { O.$.*.*.$.@. ._ E x o 4 7 o z E )  .@.$.*.*.$.@.{ ^ P ; o 7 7 X f v v @ m B D & 8 6 y o ",
"o 7 o 7 # & & d 9 s l s 4 7 4 4 - H ^ [ O.$.*.*.$.@. .) T > 4 7 o 4 a T )  .@.$.*.*.$.O.{ ^ F $ 7 4 o = s l p 9 d & < & r o 7 o ",
"o 7 o 4 1 & & 1 V # s 5 q 7 X 7 7 2 E _  .O.$.$.@...] ^ , 7 7 = = 7 7 z ^ [ ..@.$.#.O.| _ R - 7 7 o 4 7 4 p # Z < & & < 4 o 7 o ",
"o 4   o 8 + & & w % o 7 7 > b < 7 q 2 ~ `  .O.O...[ ^ j 7 7 4 k x 5 7 5 c / [ ..O.O. ._ E - 7 7 - x 3 4 7 = 5 m & & & 9 o   4 o ",
"o X     o & & & < m 4 7 a P E R 2 7 7 2 ! _ { } ' ^ j 7 7 - b Q Q H - 7 7 c ^ ] } [ _ E - 7 7 2 I U P , 4 o N & & & & 4     o   ",
"@ @ @ @ @ & & & & 3 8 % n E ^ / ^ 2 7 7 2 E ^ ^ ! j 7 7 4 K ( ` ' ( R 4 7 7 c ~ ^ ^ Y - y 7 2 E / / Q n # % 1 & & & & @ @ @ @ @ ",
"3 D Z C A D 1 O & & M 4 x ! _ ' _ ! 2 7 7 2 H P , 4 7 4 J _ { ....{ _ K 4 7 7 h H F * 7 7 2 ! _ ' _ ! v $ m & + O 0 D A B B S d ",
"1 S N M Z S N O # M 0 M * Y ) [ [ _ ! 2 7 7 * ; 7 y 4 F ) } o.#.@.O.} ) J = 7 4 ; = 7 7 2 ! _ [ [ ) Y # Z 0 M + + M A N m N D 1 ",
"< m & & & 3 S 0 + N m 0 w 1 E ` ] ] / I < 7 4 4 7 4 x ^ [ o.#.%.&.$.o.[ ^ x o 7 o 7 7 < Y / ] ] _ E > t 3 m B & < S 3 & & : V < ",
"& m & 3 1 & m S & + & & m w ; Q ) _ / T b . 4 7 o s Y / | +.%.*.*.$.@.} ( Y s X 4 4 o v T / _ ) E ; 0 3 & + O & S 0 & 3 1 & d < ",
"& 1 m S C 1 & M C & & & ; m t > I ! Q P , 4 7 o 4 $ G / [ O.$.&.*.#.O.{ / G = 7 4 o 4 > P Q Q Y ; w d ; + + & N M & 1 B S 0 1 < ",
"1 3 A A C N & d A m & # & ; 0 t % x n , 6 7 4 $ 7 7 - Y _ | +.$.$.O.| _ Y 5 7 7 o 4 7 5 , n v % t m : + + + m B < & m S A S 1 : ",
"& m 1 S D & & & 0 S 0 & & & & 1 M $ # 4 7 4 s l - 7 7 - E _ | X.X.| _ E - q 7 = k f = 7 4 % $ m , & + + + d S 0 : & & C B : d 1 ",
"& m & & & & & & & 0 S m # + + m 0 0 5 = o p v v b - 7 7 - E ) ] ] ) E - 7 7 % l v v p o o 8 m m e + + + m C m : & & & + + + d ; ",
"& M & & & & & & & : 0 S N & & V M & 3 0 % # p v v l # 7 7 - H ! ! H - 7 7 $ f v l s @ 5 m 1 & m C O + d S 0 : & & & & & & & m ; ",
"1 N & & & & + & & & : 0 S N & + & & & & m m 5 @ : p p $ 4 7 = x x - 7 7 X p p ; $ 9 V 0 & & & + O ; M C 3 : & & & & & & & & m ; ",
": m & & & & & & & & & a 1 B D 0 + + & & & & m m 0 8 $ @   o = @ @ 7 =   . = 6 w M 0 & & & & + O 1 C B d : & & & & & & & & & s & ",
"& m : & & & & & & & & & & & 0 B B 1 & + & & & B < 1 m m 0 9 q 8 < 5 9 M N N 1 1 B & & & & & 0 N B m & & & & & & & & & & p & m 1 ",
"d M & & : & & & & & & & & & & 0 A S & & & & 8 D 3 & & 1 & : & 3 < & ; & & & & 3 A < + O & & W S 0 & & & & & & & & & & & & & d & ",
"1 m p & & & & & & & & M C B & & N A @ X 9 & & & & & & & & & & S S & & & & & & + & O < 8 4 @ D N & + B D M & & & & & & : & & m 1 ",
"& N & & & & & & & & & D B A m & N A @   o 4 4 8 < & & & & & + < & & & & + & & 8 q 6 4 o   @ S M & d C C S & & & 1 & & & a & m 1 ",
"1 B 1 1 1 & & a 1 & & m D S & & N A @     o o 7 6 7 r r q q 0 8 9 0 q q w t u y 7 o o o   @ S Z & & S D m + & & & & & & & d N 1 ",
"1 S B Z M m M B m m m 1 1 0 m M A D @ 4 4 7 7 y y y y y i i y 7 i i y y i 7 y y 7 y 7 4 o @ D S M 0 3 1 0 m M M B N m m M N D 0 ",
"8 0 1 & 1 & < & 1 & < & & 1 & & 1 m @   o o 4 o o o o o o o X o o X o o o X o o o o o o o # m 0 < & 1 & 1 & < < 1 1 1 1 1 & 0 1 "
};
