/* XPM */
static char *d2f43bb2e3d74411d22389663293a674TLKrZhBGrTOluhbq[] = {
/* columns rows colors chars-per-pixel */
"64 64 154 2 ",
"   c #213712",
".  c #253C14",
"X  c #293D14",
"o  c #293F1A",
"O  c #274015",
"+  c #2B4416",
"@  c #2C4619",
"#  c #2E4919",
"$  c #324619",
"%  c #334C1A",
"&  c #3A4D1B",
"*  c #36521D",
"=  c #3B541D",
"-  c #3D591F",
";  c #344423",
":  c #394722",
">  c #344B22",
",  c #3B4D22",
"<  c #3C4E2A",
"1  c #365521",
"2  c #3A5422",
"3  c #3B5B22",
"4  c #3D5229",
"5  c #3F5A2A",
"6  c #3F6125",
"7  c #41561E",
"8  c #42591F",
"9  c #404F27",
"0  c #424E2E",
"q  c #425324",
"w  c #4A5626",
"e  c #445D21",
"r  c #495E21",
"t  c #44542B",
"y  c #49562D",
"u  c #425B2C",
"i  c #4B5C2C",
"p  c #444D33",
"a  c #484F34",
"s  c #455433",
"d  c #4A5535",
"f  c #4C5A34",
"g  c #4B543A",
"h  c #4D593A",
"j  c #535E36",
"k  c #50553F",
"l  c #525C3D",
"z  c #446223",
"x  c #4B6323",
"c  c #4C6925",
"v  c #406329",
"b  c #4C632D",
"n  c #456A2A",
"m  c #4A6D29",
"M  c #516624",
"N  c #536B26",
"B  c #5C6E27",
"V  c #56632D",
"C  c #536C2C",
"Z  c #5A6F29",
"A  c #557229",
"S  c #5B732A",
"D  c #5F7A2C",
"F  c #476430",
"G  c #4C6433",
"H  c #4F653A",
"J  c #546333",
"K  c #556D33",
"L  c #586930",
"P  c #53643B",
"I  c #5B643B",
"U  c #5A6B3C",
"Y  c #4B7230",
"T  c #5A7231",
"R  c #57713C",
"E  c #61742B",
"W  c #627C2D",
"Q  c #607732",
"!  c #63733E",
"~  c #4E5042",
"^  c #4F5940",
"/  c #525544",
"(  c #545B43",
")  c #585D45",
"_  c #56554A",
"`  c #59574D",
"'  c #575949",
"]  c #5A5C4C",
"[  c #5E5D52",
"{  c #625F55",
"}  c #576044",
"|  c #5C6446",
" . c #5D614C",
".. c #5F6151",
"X. c #606743",
"o. c #636C44",
"O. c #61654D",
"+. c #646B4C",
"@. c #636454",
"#. c #656953",
"$. c #696C55",
"%. c #666459",
"&. c #6A665C",
"*. c #6D6A5E",
"=. c #6E7159",
"-. c #6D6A60",
";. c #6E6B60",
":. c #6F6B61",
">. c #6F6C60",
",. c #6F6C62",
"<. c #706D60",
"1. c #706C61",
"2. c #716D61",
"3. c #706C62",
"4. c #706D63",
"5. c #716D63",
"6. c #726F62",
"7. c #726F63",
"8. c #726E64",
"9. c #726F64",
"0. c #736F64",
"q. c #737063",
"w. c #737065",
"e. c #747164",
"r. c #747065",
"t. c #747165",
"y. c #757165",
"u. c #757265",
"i. c #767265",
"p. c #757267",
"a. c #777366",
"s. c #767267",
"d. c #787567",
"f. c #757860",
"g. c #777368",
"h. c #777468",
"j. c #787569",
"k. c #797569",
"l. c #7A7769",
"z. c #79766A",
"x. c #7A776B",
"c. c #7B786B",
"v. c #7D796C",
"b. c #7F7B6E",
"n. c #7F7C6E",
"m. c #807C6D",
"M. c #807C6E",
"N. c #817D6F",
"B. c #827E6F",
"V. c #827E70",
"C. c #837F71",
"Z. c #858172",
"A. c #888473",
"S. c #898475",
/* pixels */
"% * % 8 = % e N M x e = * - 6 3 * * 3 * # * 1 @ o O = e e x N w x e 3 = - * = * % % 1 1 u h ^ / s 5 3 6 3 1 3 3 1 3 n 6 6 1 1 * ",
"$ X : w y 9 e r r x q 4 2 3 c 3 * = 4 d '  ... .[ [ h d h q r , & = * $ & , 9 s h h ( @.&.%.{ &.;.%.` h s g g ^ ^ ^ ' h s > . # ",
"X 0 %.*.>.$.#.#.O.+.*.;.*.o.b b %.*.>.0.w.w.w.g.w.p.0.;.>.;.*.&.] ]  .@.%.;.7.0.w.g.g.p.>.0.0.>.-.>.p.w.i.w.i.h.g.i.w.i.0.{ ; @ ",
"$ / 7.d.i.0.i.i.i.i.i.g.i.0.i.7.i.h.w.i.h.l.z.z.h.h.h.h.h.h.h.c.z.v.n.m.V.m.M.V.V.V.b.v.n.v.c.z.c.n.n.V.V.V.V.n.v.V.n.n.z.0.g % ",
"& ( i.v.l.i.i.i.7.i.i.e.0.i.i.i.i.i.i.i.g.i.w.>.;.w.c.w.0.w.,.w.i.g.g.g.i.g.0.g.z.g.g.0.g.g.g.0.h.h.i.g.i.w.i.w.h.h.a.c.h.7.[ % ",
"% / m.m.a.7.q.*.<.<.*.7.;.;.>.w.>.&.&.&.&.&.&.%.>.h.i.>.-.>.;.;.;.;.4.-.0.7.;.1.8.8.;.;.0.8.-.0.0.0.0.,.7.;.,.0.a.*.>.7.g.m.) & ",
"% / i.A.d.<.<.*.*.7.7.*.7.>.>.7.i.&.&.>.7.&.@.&.h.h.h.,.-.>.>.>.;.;.;.0.;.0.0.;.8.8.-.;.0.;.-.4.>.;.>.>.;.>.0.0.>.;.0.7.v.n.| * ",
"7 h 7.m.d.<.*.7.*.*.>.*.*.>.>.*.>.i.i.h.l.i.%.a.h.>.0.>.>.>.,.,.;.;.4.-.-.;.;.;.8.-.-.%.;.;.-.8.>.;.>.,.;.;.;.0.q.*.*.0.v.V. .& ",
"7 y <.l.d.;.1.*.7.*.*.*.<.<.<.<.>.*.q.>.*.q.q.7.;.0.>.>.>.,.>.0.;.,.;.;.;.;.;.;.0.;.-.%.-.-.0.8.,.>.>.>.;.0.0.>.*.q.>.q.n.f.3 * ",
"= y <.i.d.7.1.7.*.*.<.*.*.*.7.*.*.q.q.*.>.*.*.*.;.>.>.;.>.,.>.,.;.;.-.;.;.;.,.,.p.g.-.%.-.-.8.8.>.>.>.>.>.;.*.;.*.U +.a.f.R 6 = ",
"- g 7.v.d.7.;.*.*.*.<.<.<.*.*.7.*.*.*.7.>.*.*.>.>.>.>.0.,.>.>.>.>.;.;.;.;.&.,.,.0.p.0.&.-.-.g.-.,.>.>.>.w.>.0.>.$.A A K n z m = ",
"% t 7.v.d.7.;.;.<.<.7.<.*.7.*.<.>.>.7.*.*.q.q.*.;.>.>.>.>.0.>.>.>.>.;.;.>.;.>.0.-.8.0.-.-.8.8.0.>.,.>.w.0.;.w.i.>.#.T S x 3 * 3 ",
"* > *.i.&.7.7.*.7.*.7.*.7.<.*.7.>.>.>.7.>.>.>.>.;.>.>.>.>.>.0.>.>.>.0.;.>.>.0.0.0.8.g.&.&.0.g.-.,.,.0.w.>.w.i.;.U b A C m = = 1 ",
"* s 7.i.*.i.7.1.*.7.*.<.*.<.<.*.>.>.>.q.*.>.;.*.-.;.;.>.>.;.;.;.>.;.;.;.>.;.;.>.8.8.-.-.-.-.-.g.,.0.h.w.i.;.*.>.$.C +.U b = - * ",
"+ g 7.g.c.v.i.i.e.e.*.7.*.7.7.*.*.>.>.q.*.i.w.>.;.;.;.-.>.;.;.>.;.>.>.;.>.>.>.>.,.8.z.,.%.-.-.0.h.h.h.0.&.;.;.>.i.>.*.+.e z * % ",
"% d 7.i.l.g.i.d.d.d.i.7.i.0.7.q.q.q.i.*.*.*.w.w.>.;.>.>.;.;.,.>.>.,.,.0.0.g.;.w.-.8.0.0.&.&.-.;.g.z.w.;.%.*.*.*.>.>.7.*.I q & % ",
"$ y ;.0.g.0.0.0.0.w.h.c.h.>.;.;.*.>.h.>.*.*.>.0.0.;.>.>.,.0.>.,.;.;.*.7.i.%._ 0.*.%.&.&.>.q.>.*.h.w.&.;.&.;.-.0.w.7.>.,.>.q = % ",
"& & *.0.0.1.;.;.-.-.;.p.h.w.>.;.*.>.i.0.;.*.*.;.,.0.>.>.>.;.,.>.;.0.*.1.7.d.0.i.7.7.0.i.i.h.w.w.g.0.-.&.-.0.0.0.i.w.>.>.>.< % % ",
"& & #.0.0.;.&.;.;.-.,.-.a.h.i.w.>.>.>.;.;.0.>.0.i.0.>.>.>.>.>.,.7.*.>.>.7.*.7.<.>.0.i.w.i.h.a.q.i.&.%.-.>.i.;.i.w.0.;.0.;.& $ * ",
"& =  .0.0.;.-.;.;.;.&.;.>.h.h.g.w.0.w.;.*.;.;.&.[ g.>.>.>.>.>.>.7.*.>.>.*.7.*.7.0.i.0.7.w.$.o.D o. . .&.w.i.;.>.q.*.*.;.d & $ * ",
"= = ( g.0.;.;.%.-.;.-.-.*.0.g.g.w.h.0.>.-.-.0.w.;.g.;.;.1.*.7.*.*.7.*.7.>.7.7.0.0.7.7.*.%.! W D S S L *.w.q.0.<.*.#.&.) % % * % ",
"& @ g ,.0.@.f d %.%.-.%.-.0.g.0.0.,.;.;.;.;.i.w.i.0.>.0.;.7.*.1.7.*.*.>.7.0.7.0.>.>.*.*.%.D D W D S S S o.o.*.7.&. .i * $ + # % ",
"@ O ; >.p.0.;.[ h %.-.-.%.;.i.g.0.;.w.g.0.0.w.w.0.h.g.i.i.7.7.*.*.7.7.7.q.>.7.7.&.&.*.*.*.U D D D c S S S Z o.&.| 8 - = # O 3 1 ",
"# O @ ..p.0.0.| 5 ( %.;.;.[ &.g.0.0.g.0.w.h.w.i.g.i.i.0.i.7.7.7.1.*.7.*.*.7.*.&.&.>.0.0.q.$.A D S c c N c 7 i y - = * # 1 3 3 1 ",
"3 # 1  .,.,.,.#.5 s -.-.&.&.` ;.,.8.p.0.0.0.0.-.0.;.;.;.;.7.1.*.i.i.7.7.i.7.;.;.>.w.w.w.w.*.J x c c c z z e - - * $ % # 3 3 3 6 ",
"6 3 > ' p.>.,.,.p.,.,.-.;. .* g ,.,.-.,.0.0.;.;.0.0.-.;.*.7.0.0.7.i.l.g.7.7.7.;.i.w.i.,.w.>.P 6 e z z - - * * * * = * 3 n 1 3 3 ",
"1 @ .  .p.-.-.-.,.p.p.,.7.l q 4 s %.&.-.;.;.7.7.0.-.-.;.0.l.7.7.0.0.g.l.7.7.7.;.,.w.,.>.q.*.d * 6 - - * - % - * = * * * # 1 3 1 ",
"> O   o > 5 6  .,.,.,.p.7.h * % % % < ( @.&.*.i.g.p.-.0.i.0.7.7.0.i.i.g.0.i.0.7.i.w.w.>.>.h # * 3 - # # * 3 - - * * # & % * # > ",
"#       + * * # p ..-.[ g < + % % 1 - - 8 ( @.&.;.;.-.;.0.1.7.7.q.i.7.7.7.w.q.*.0.0.>.;.d * % * * * # * = - * * & - & 8 3 * % # ",
"@ O + O . # % # O O   @ . # % = * 2 6 - = % % % , 4 i y e g h j ( ( ' j d _ ' d s s 4 @ = 8 - - * # * * * % # * 7 8 8 8 - * % # ",
"O # # # % O % % # 1 @ @ O % 3 - - 8 z 6 * * = = e x x r e r - 8 - 8 & = % O @ % * - % % - 8 8 e - - - - - = & r r M M 8 8 = % + ",
"O @ # * * # # # # # @ @ # = e - z z - - = 8 e 8 e N N c r e q 7 8 8 = * # % * * 6 6 % $ - - - e c M x z r = 8 r M M M 8 8 = + O ",
"X X . X % % % % = = % + & = 8 x z - - = z 8 x z x M N N x 8 - = = & % % - = 3 3 3 % # $ p p & q N Z x e 1 $ & * < w 9 & 7 X X   ",
"/ / / ~ ; & 3 * - e = & = & 7 e * % * = 8 x x N x x M x 8 x 8 - = @ $ $ % * u t d ] @.;.;.;.@.^ L J j l ( ~ ( ] &.7.;.{ _ [ ` _ ",
"w.w.i.i.>.@.( h i f j l ) l h t , $ $ % 7 M S S E M z - = 8 e 7 $ : @.<.*.q.i.w.l.c.h.g.>.;.i.w.0.0.0.i.g.g.C.Z.m.V.S.S.V.g.i.0.",
"z.g.h.v.V.Z.Z.V.v.h.i.i.l.l.h.i.7.$.j | i N E W S S 8 - - = = - $ d M.V.Z.V.V.Z.Z.V.V.n.c.n.b.V.V.V.V.V.C.b.C.c.l.l.g.i.V.V.V.m.",
"w.0.0.w.g.g.g.g.v.v.v.h.c.h.h.h.i.i.i.1.*.o.E S S c x e z x z - % g c.Z.v.a.a.i.h.c.z.g.0.0.g.g.g.g.g.g.h.0.-.8.4.4.-.&.M.g.g.g.",
",.,.;.,.-.;.;.;.0.7.i.h.l.h.l.h.d.d.i.7.i.*.| I M N c z z x x z = d h.Z.a.*.;.*.>.g.0.>.-.-.;.;.0.-.-.0.0.;.-.-.-.-.&.4.g.4.0.1.",
",.,.,.0.0.0.7.>.7.;.7.7.0.w.i.h.l.h.i.i.l.;.*.+.c c e c x e x e = p l.Z.w.*.*.>.0.0.;.;.%.&.>.0.0.;.;.-.0.8.-.-.-.-.4.0.4.4.;.0.",
",.8.,.,.0.;.;.*.*.*.7.*.;.>.>.w.l.h.g.l.h.i.i.$.z z c z c x x r 7 s h.c.>.;.-.;.&.;.&.;.;.,.g.,.;.;.;.0.-.-.8.8.1.8.1.4.1.4.;.;.",
",.8.0.-.-.-.0.-.*.*.;.*.*.q.i.;.0.>.i.h.h.l.h.7.O.L N x 3 e e 7 7 d g.m.w.>.;.%.;.>.>.;.0.g.;.>.:.:.:.4.:.:.:.4.8.8.4.:.:.-.:.4.",
"-.8.-.-.-.-.-.-.*.7.*.*.=.=.$.>.*.*.*.0.i.h.h.v.;.&. .j e e 7 x x w i.V.w.;.*.>.>.>.;.,.w.0.>.>.:.8.4.8.:.:.:.-.:.4.:.:.:.4.:.:.",
",.-.,.;.-.;.-.-.*.>.*.&.*.$.+.>.7.7.*.>.*.;.w.v.m.0.*.*.f 2 7 x x q i.V.i.*.;.i.;.;.w.w.0.;.>.;.:.4.-.8.4.-.:.:.4.:.:.:.4.:.:.:.",
",.8.-.0.-.0.-.8.q.*.q.;.>.*.q.>.*.*.*.*.;.*.*.7.l.v.i.i.$.3 = e x r 0.M.i.*.*.>.-.;.,.i.>.;.0.;.:.:.-.:.:.-.:.:.:.:.:.4.:.-.4.:.",
"4.-.0.0.0.0.;.0.q.;.;.;.7.*.<.e.7.*.*.*.*.&.*.*.7.0.v.v.v.l = e x 8 *.m.v.0.&.>.-.>.w.q.;.>.7.*.*.&.4.:.8.4.8.8.:.:.:.4.:.-.:.4.",
";.;.1.1.-.-.;.;.>.*.;.;.*.q.*.*.*.*.7.*.*.q.0.q.*.7.7.l.m.>.q r x q ;.M.v.7.;.>.-.;.w.>.q.;.7.;.:.*.8.%.{ 8.8.4.:.:.8.:.:.4.:.:.",
";.4.;.;.;.;.;.4.*.7.*.<.7.*.*.*.*.*.&.>.7.q.7.7.*.*.7.d.V.i.d = 7 9 1.v.i.7.;.*.&.0.w.;.;.*.7.>.1.8.8.0.g.0.:.:.:.:.8.4.4.:.:.:.",
";.;.4.-.;.;.;.;.<.*.7.*.7.*.*.*.K c +.*.7.>.*.7.7.*.7.d.m.i.d $ & 0 0.v.i.0.;.;.;.w.7.;.7.;.;.;.>.1.1.8.k.{ :.4.:.-.:.:.:.-.4.:.",
"0.;.0.>.;.;.;.;.;.*.*.*.*.*.%.<.o.K $.q.*.<.*.7.7.*.7.e.m.d.f 8 7 p 0.h.0.*.;.;.,.0.0.>.>.,.0.>.>.1.;.0.h.@.%.g.;.;.-.8.-.4.0.;.",
";.;.;.0.*.*.;.*.*.*.*.7.7.*.*.<.*.+.=.q.7.*.*.q.7.*.*.7.v.d.) - 8 2 *.h.w.*.7.0.0.>.>.>.>.0.-.>.>.1.;.;.>.w.0.;.;.;.,.8.-.4.;.;.",
">.7.;.;.7.7.7.7.7.;.7.7.<.&.*.7.q.e.<.<.*.*.7.q.7.*.<.i.v.v.G % = = *.g.i.;.>.;.>.0.>.>.w.>.0.>.;.;.;.;.;.;.&.;.;.g.-.-.;.0.0.;.",
">.;.>.;.*.7.1.7.;.1.*.7.<.&.%.<.*.i.<.<.<.<.*.q.*.7.*.i.v.d.G % = % @.h.w.7.7.7.>.0.;.>.>.;.>.;.;.;.;.;.;.,.;.,.,.0.-.8.0.0.;.;.",
">.>.*.7.7.*.7.*.<.>.>.g.7.&.$.>.*.q.q.*.*.q.*.q.*.7.*.i.l.l.+.> z 3 | h.l.i.w.w.,.w.>.>.>.;.;.*.;.*.;.;.;.w.w.z.h.0.0.i.0.0.;.*.",
";.7.7.*.7.;.*.7.>.>.>.0.i.<.#.>.*.q.q.*.*.*.*.q.*.*.7.i.v.M.*.% 3 6  .h.v.h.i.0.w.w.w.w.>.;.w.>.&.*.;.;.w.l.;.;.;.;.g.i.;.&.&.0.",
"7.7.*.*.;.7.*.*.>.>.>.0.e.7.&.&.*.*.a.*.*.q.*.a.*.*.*.7.d.v.&.% z 3 h 0.c.h.i.>.g.w.>.w.0.>.q.*.%.;.;.i.h.0.&.-.;.0.>.*.*.&.%.*.",
"*.7.7.*.;.*.*.7.>.>.>.>.>.>.>.&.*.q.a.q.*.*.<.a.e.7.*.7.v.v.O.= - * , *.i.h.w.0.h.i.;.q.0.7.*.%.%.0.g.l.i.;.&.-.;.;.;.;.*.;.*.*.",
"*.1.1.0.1.1.2.2.>.>.>.0.>.>.>.#.*.>.w.*.q.*.*.q.7.7.7.i.v.l.@.$ - * * u #.;.*.0.h.a.>.>.>.;.%.*.&.>.c.w.-.*.*.7.;.;.;.;.*.*.*.-.",
"1.>.1.>.>.1.1.>.<.>.>.<.<.>.>.&.*.*.*.f.<.w.*.q.*.*.7.7.d.d.) % 3 * * - 3 h b P =.i.a.>.;.*.%.;.&.>.v.>.*.;.>.>.;.;.*.;.-.*.;.;.",
"0.1.1.1.0.;.>.2.*.>.>.>.i.6.0.&.&.*.-.i.a.*.*.*.1.0.7.*.d.l.y * z z - - z z e 6 | q.v.l.>.%.*.>.>.w.h.;.-.;.>.*.;.>.;.;.*.w.0.0.",
"g.i.y.g.g.0.g.g.i.>.i.i.6.0.0.0.q.>.i.v.a.q.q.<.7.7.0.*.C.$.x x c z z - z m m 3 j *.h.m.c.>.w.>.0.h.>.;.>.w.i.0.w.w.0.w.7.w.h.h.",
"V.V.Z.Z.B.B.C.B.Z.m.m.B.m.m.m.B.Z.i.v.v.i.l.l.l.i.7.7.l.S.1.M M A c N - z m A n 3 )  .i.m.Z.Z.m.v.V.i.c.n.n.Z.Z.V.v.V.n.n.Z.Z.V.",
"l.g.l.g.l.i.g.0.e.l.m.m.l.i.i.l.i.7.i.i.i.l.v.l.i.m.M.M.M.o.M x c N c c m z n e * * * 4 h $.c.V.Z.Z.n.m.n.h.g.l.h.g.l.w.i.w.i.i.",
"` [ [ g f d i V E I O.>.@.l l ] @.*.7.g.i.v.l.g.0.i.i.*.L x M N A c N A m * n 3 3 6 3 3 3 3 4 h ] @.@.#.;.&.%.@.@.&.[ H H F u g ",
"o + + & 7 8 M B E B 7 * * = = 2 4 ) O.#.&.*.*.1.*.O.| i x M B B A c c c z * - - 3 v 3 3 v 6 1 1 3 v 1 1 # # * 1 1 1 3 Y Y 3 3 % "
};
