/* XPM */
static char *_8944f18b84f4f7bf33390edcd38f23e6sEDtMA1CDgXe3A5[] = {
/* columns rows colors chars-per-pixel */
"64 64 154 2 ",
"   c #354E1B",
".  c #384E1E",
"X  c #36521D",
"o  c #3B551E",
"O  c #3D591F",
"+  c #3D5621",
"@  c #3D5B21",
"#  c #3F6024",
"$  c #40551E",
"%  c #40591F",
"&  c #414F2B",
"*  c #405723",
"=  c #435D21",
"-  c #495E24",
";  c #44552B",
":  c #48562C",
">  c #455B2A",
",  c #4B5D2C",
"<  c #525E2E",
"1  c #4C463F",
"2  c #465230",
"3  c #4C5636",
"4  c #4D5B33",
"5  c #4E5439",
"6  c #4F5D38",
"7  c #515D34",
"8  c #52553D",
"9  c #545C3B",
"0  c #585F3F",
"q  c #456223",
"w  c #4B6423",
"e  c #466827",
"r  c #4D6925",
"t  c #46652A",
"y  c #4D612B",
"u  c #466A29",
"i  c #486B2B",
"p  c #516625",
"a  c #536B26",
"s  c #596E27",
"d  c #52632C",
"f  c #546C29",
"g  c #5A6E2A",
"h  c #4D732E",
"j  c #577028",
"k  c #5C7329",
"l  c #4D6232",
"z  c #546234",
"x  c #596434",
"c  c #5C6936",
"v  c #54623A",
"b  c #5B643D",
"n  c #566A3A",
"m  c #5E6B3C",
"M  c #537335",
"N  c #60772B",
"B  c #62782C",
"V  c #667638",
"C  c #4F4941",
"Z  c #534D45",
"A  c #565345",
"S  c #595647",
"D  c #575B42",
"F  c #5A5C43",
"G  c #575048",
"H  c #5B544B",
"J  c #5E5A4C",
"K  c #5F5A52",
"L  c #615A4E",
"P  c #645D52",
"I  c #685F55",
"U  c #5C6343",
"Y  c #5D6A44",
"T  c #5F6249",
"R  c #616542",
"E  c #646C43",
"W  c #63644C",
"Q  c #646B4B",
"!  c #696D4C",
"~  c #6B7446",
"^  c #6F744E",
"/  c #676154",
"(  c #696256",
")  c #676B51",
"_  c #6A6B53",
"`  c #6D655A",
"'  c #6E695B",
"]  c #70675B",
"[  c #736B5E",
"{  c #6F7258",
"}  c #727256",
"|  c #73725C",
" . c #77795D",
".. c #78795F",
"X. c #6F6A60",
"o. c #746E63",
"O. c #786F61",
"+. c #767165",
"@. c #797366",
"#. c #7D7965",
"$. c #7A7569",
"%. c #7B7569",
"&. c #7A766A",
"*. c #7B766A",
"=. c #7D7668",
"-. c #7E7769",
";. c #7C776B",
":. c #7D786B",
">. c #7E796D",
",. c #7E7A6D",
"<. c #7F7A6D",
"1. c #817969",
"2. c #80786A",
"3. c #827A6B",
"4. c #837B6C",
"5. c #807B6E",
"6. c #837D6F",
"7. c #847D6D",
"8. c #857D6E",
"9. c #867F6F",
"0. c #837D70",
"q. c #837E71",
"w. c #847F71",
"e. c #86806F",
"r. c #868072",
"t. c #868172",
"y. c #898170",
"u. c #888172",
"i. c #8B8473",
"p. c #888374",
"a. c #8B8576",
"s. c #8C8575",
"d. c #8C8675",
"f. c #8D8776",
"g. c #8E8877",
"h. c #8C8778",
"j. c #8F8979",
"k. c #8F8A7A",
"l. c #918B79",
"z. c #908B7A",
"x. c #928C7B",
"c. c #928D7B",
"v. c #948E7D",
"b. c #96907E",
"n. c #97917E",
"m. c #969180",
"M. c #969280",
"N. c #989380",
"B. c #999482",
"V. c #9B9683",
"C. c #9E9885",
"Z. c #9E9985",
"A. c #A29D89",
"S. c #A6A18C",
/* pixels */
"] ` ] ] ( P Z Z C H ` [ I ( ( I ] I 9.2.2.O.O.O.O.O.] Z H H G H H O.M.x.a.0.( P P H Z G Z H H H ( o.+.-.( Z 1 H L [ @.-.4.8.` ` ",
"( ` ] ` I H P H Z Z I I P I I [ [ / 9.8.2.O.] ] ] ] I L H H P $.z.z.0.>.0.p.a.$.o.` ( P G H H Z Z H Z C 1 1 Z I @.5.5.@.@.4.2.P ",
"L P I P H ` -.[ ` H ( [ [ [ o.[ 2.[ ] 2.[ O.I ] ] O.O.L P ( a.M.w.0.>.>.$.>.w.h.k.M.k.[ A 3 6 8 H H H Z H ( @.u.9.2.@.[ [ @.9.P ",
"H P P P ( v.C.s.o.( L I [ O.o.O.O.O.] ] ] ] [ [ [ o.I P ` p.a.>.>.X.+.+.+.o.$.$.>.r.S.` 6 = = = w - H ] @.s.a.-.@.O.[ O.[ 2.9.( ",
"I O.2.+.a.z.6.5.8.o.] ( P ] O.O.O.[ ] [ [ ` / ( I P I ] w.k.0.>.+.X.+.+.+.+.o.+.+.>.B./ < p - p r , [ 5.s.w.$.o.o.o.o.O.O.4.2.I ",
"P ] z.z.6.-.$.+.@.=.2.o.] ] ] [ ` o.[ [ ] ( 2.8.O.O.8.p.0.5.>.-.$.+.+.+.o.o.o.o.+.@.N.( 9 a s s a P 2.8.5.@.o.O.o.o.o.=.@.9.[ L ",
"H P 8.k.6.$.$.o.O.-.2.o.[ @.@.2.[ O.O.] ( [ s.z.o.O.5.5.$.$.@.o.;.+.+.+.+.+.+.o.+.:.b.2.F p s a b o.z.5.@.@.+.o.o.o.o.O.@.7.] P ",
"H H r.a.$.$.+.o.o.O.o.O.O.O.@.O.O.] [ ] ` [ s.@.O.-.$.O.@.o.o.o.+.+.+.+.+.+.+.o.+.6.n.I , p a d ] N.w.@.+.o.o.o.o.o.o.@.2.7.` L ",
"G P k.0.+.&.$.+.$.$.@.O.o.[ ' [ [ ` [ o.` O.8.+.O.o.O.o.o.O.o.O.X.o.o.+.+.+.+.+.;.r.a.Z = s a 7 X.M.;.X.X.+.+.+.O.+.o.+.>.8.I P ",
"G ` B.>.,.>.r.0.p.w.0.+.o.[ ! { -.[ [ Q 9 _ -.$.o.o.o.o.` o.o.[ o.o.o.;.>.+.$.+.;.k.$.+ w s s x ;.M.;.+.+.+.X.+.+.+.o.$.5.8.P L ",
"H :.k.>.,.K I X.` ` $.>.+.[ { O.} ] ) # @ + F X.` O.o.[ X.o.[ +.+.o.+.+.+.` ' $.0.M.' X q a w F ;.r.;.;.+.+.X.+.o.+.o.+.2.6.L L ",
"P x.a.+.X.X.X.` X.` I o.-.[ m x 4 * o # = @ w - / [ [ o._ o.+.+.o.o.o.+.$.X.' >.r.p.2 + + = ; ] r.<.$.;.+.+.+.X.+.+.+.$.w.>.H P ",
"P h.r.$.o.o.o.o.o.o.` ' 8.E = = O O o O @ e e O q d _ ] [ ^ } O.+.+.+.+.$.-.$.r.r.U O O O # 9 >.;.;.;.X.+.+.+.+.o.o.+.;.w.8.H P ",
"P x.r.+.o.+.o.o.o.+.o.[ +._ - r a q O o @ q e q @ q 7 b m k V o.$.+.o.$.-.5.6.{ 4 @ # @ O q _ 8.$.&.X.X.+.+.+.+.+.+.+.$.w.8.Z L ",
"o.M.6.$.o.+.o.@.$.$.@.@.@.q a f k k s q @ r a a q q @ o = q m m ) v 6 @ v ) Y q + @ @ @ w : :.5.$.+.+.X.$.+.+.o.o.+.+.$.8.s.Z H ",
"/ r.r.$.o.+.o.$.-.>.>.u.E s s k B s p q @ o r a a r w = O o > w , + @ t h i # @ @ # q O q 9 s.6.$.$.+.+.+.o.o.+.+.+.+.-.s.z.1 L ",
"K k.r.o.o.+.X.+.@.,.g.! k g s k k b d r q w s j r i r q O O = = @ X # u h i + o % p p w % 0 s.8.$.$.+.+.o.+.o.+.$.$.$.;.x.h.Z H ",
"( C.a.+.' X.o.o.#.g.@.a s k s x ! [ b q q q r s j k j f r q = @ o X + @ u i @ O p a % % % a [ s.;.$.+.+.o.o.o.+.$.>.w.z.C.( H H ",
"( x.a.@.o.+.+.>.a.+.A 7 w a U [ o.o._ = e w w a k k k k q _ W D 5 3 2 : > t @ = p p % w a s b s.<.&.$.$.@.-.-.2.p.k.C.0.Z P ' ( ",
"K @.x.>.+.$.r.k./ y d F , U +.@.O.[ ` 9 w w w k j k k f ! v.v.z.p.0.$.+.o.( F = q w q % s s s [ r.r.<.;.4.0.i.2.) W H H I [ O.o.",
"` P g.s.6.a.a.J > = q > / 0.$.+.o.o.' U q q q a j k Y | k.>.>.>.0.r.a.k.z.a.k.' - - q % a a s x P ' u.z.s.8.W , % w 0 ` [ o.[ [ ",
"[ L [ s.b.z.H S ; @ q D p.0.+.X.o.o.o.' z O o w r m a.r.>.+.+.+.@.$.$.;.>.>.5.8.[ 7 % % w a a w w : 9 8 : q - w r a x ( ( ] [ O.",
"[ [ H ' ' W 6 e q t D k.p.$.+.+.O.o.O.O.o.v O w t ) >.;.+.+.o.+.o.+.o.+.$.+.$.@.5.@.F = w r r % - O % % r w * w p g R O.] I I [ ",
"[ ( A L q q e e u T r.h.&.$.+.+.+.o.O.+.O.Q % q # Q p.$.+.o.o.+.+.o.o.+.+.o.+.@.=.2.@.> q r w o = - q q w d p p a k ! 8.5.O.` I ",
"I P Z a r q q y #.k.r.>.+.+.o.+.@.+.+.@.@.Y = q q v a.$.+.X.+.+.X.+.o.+.+.o.X.$.$.:.@.y e w q O q @ = = 4 ( P D z R -.w.0.w.s.@.",
"i.[ G a a q e n k.6.$.+.+.+.o.+.+.+.@.$.>.n = q = = +.r.$.+.+.X.o.o.+.o.+.o.X.+.+.$.@.U # q O q u q q l +.a.,.$.o.@.$.+.@.-.-.s.",
"g.:.H f j e r z k.$.+.+.+.+.+.X.X.o.+.$.0.6 # q @ # ) e.;.$.+.+.+.+.+.o.+.+.+.X.+.@.@.' q q q q e # l h.k.p.>.0.5.-.@.+.o.+.$.>.",
":.a.L d j r r z r.>.+.+.+.+.+.o.o.o.@.$.6.6 t @ @ q { &.$.+.+.+.+.+.+.+.+.+.+.+.+.+.@.+.Q q w q # n r.;.0.;.&.&.+.+.o.o.o.O.+.@.",
"@.s.` 9 k f r U >.;.&.+.+.+.+.+.o.+.+.;.r.3 # @ O @ 2.@.+.+.+.+.+.+.+.+.+.+.+.+.+.+.+.:.=.s a a v e.@.+.;.;.$.+.;.o.+.o.o.o.o.o.",
"+.-.k.W B f w Q r.$.@.+.+.+.+.+.+.+.;.;.k.A + @ X _ +.-.o.o.o.o.+.+.X.+.+.+.$.+.o.o.+.>.6.k N B  .$.+.+.o.+.o.&.o.$.+.+.o.o.o.+.",
"o.$.8.a.m k g z r.&.+.+.+.+.+.+.+.+.;.>.k.T = q l [ @.@.o.o.' o.+.X.+.X.X.+.$.;.@.+.@.6.+.a B k #.:.+.| o.o.X.$.$.+.+.+.+.+.+.+.",
"+.$.>.x._ k a r } ,.+.+.+.+.+.+.+.+.$.>.M._ q w q ` o.;.+.o.o.X.+.+.+.+.+.X.+.&.@.@.:.=.' N k a :.&.+.o.X.o.X.X.+.;.+.+.+.+.+.+.",
"+.+.>.h.5.p w q v 5.@.@.+.+.+.o.+.2.:.g.s.9 % w w W ` 5.[ o.o.o.+.+.o.o.o.&.o.X.+.6.6.:.^ k N s ] 8.-.O.o.o.o.o.+.+.+.+.+.+.o.o.",
"+.+.-.r.-.y w w , +.6.@.@.+.$.o.+.:.s.z.F % w s , [ $.-.+.o.o.o.o.X.o.o.o.o.o.X.o.-.8.@.k N k g W @.-.+.o.o.o.o.+.o.o.+.+.$.o.o.",
"o.+.$.h.[ , r w w z 8.6.-.$.-.-.-.r.b./ 9 % % w = o.@.+.O.O.o.o.o.o.o.o.o.o.o.o.@.@.@.z s s a a d +.@.+.o.o.o.@.+.+.o.+.+.$.$.o.",
"+.+.>.z.o.9 q = % * 4 u.0.w.6.r.a.B.@.L < $ % w = _ O.O.o.o.O.o.o.+.o.X.o.&.o.o.2.=./ % q r w % w d c _ O.o.@.o.o.o.+.+.X.o.o.$.",
"$.$.>.V.o.5 @ X   + @ 7 F 8 6 3 ; F b w , 6 + % % v @.| O.O.O.O.+.O.o.O.+.+.+.+.r.o.9 w q % % % q r w r f Q Q X.X.X.X.$.o.o.o.$.",
"X.;.h.M.K H +   = u # + o X O O @ = w = = 7 . . : W =.-.@.| O.O.+.+.o.O.+.$.;.r. .z % r w % % r r r r r a a a [ o.o.+.$.o.o.X.o.",
"o.>.h.o.K 6 + X # # # @ o X O % = - * % = o o X X F 9 Y [ @.@.@.@.@.@.@.>.0.0.( O % % w % O q w r q q r r r f m +.$.$.;.$.+.o.o.",
"$.0.>.( K W + + @ @ # # o o q w y t , q % % o o o + + + W [ O.O.6.2.8.u.0.$.W @ O % q w q % q w w O O w r a f m [ +.p.;.+.+.$.+.",
"0.a.] ( ( W o o + @ @ @ @ > m  .8.:.@.q y 4 9 X $ X & H L ( ] ] ` [ +.[ / A + O O @ ; 0 F F 7 , = O X q - w r x ` ' O.O.o.2.-.$.",
"k.o.O.P ` - = - > 8 F U +.0.6.$.@.@.o.Y ' =...O % % = H [ [ [ [ [ ` ` L ( H U T 9 U +.=.-.O.+.o.$.4 O q w = $ % 3 P ] O.p.5.8.p.",
"@.[ ( [ ] - F [ -.0.a.h.a.0.+.+.O.O.+.@._ | @.* O $ = 7 [ [ [ [ [ [ [ | [ ] [ O.O.O.+.| o.o.o.-.@.W O q w r q q = 3 L I @.z.z.r.",
"P / ` ` P _ b.k.0.0.0.0.;.+.+.+.+.@.o.@.Q z _ O - w 7 W I ( P ] [ [ O.O.[ ] 8.5.=.O.2.+.` ` [ -.#.Y q % q q @ @ w U ` ( L P I ( ",
"H ] I P ` v.5.-.+.$.$.$.o.o.o.o.+.O.o.Q w @ @ = q d ] w.b.C.w.P ( , U ] ) ] O.O.@.@.O.o.` o.@.@.+.+._ > o % w u % I ] [ [ ] L G ",
"L P I o.a.6.$.o.+.+.$.$.o.+.+._ _ [ Y M q @ w q q 9 N.z.w.4.z.@.A $ W 4 w ] ] O.@.O.o.o.o.O.@.o.@.+.o.| _ z l n 0 I ] 2.@.| ] L ",
"H I o.w.$.$.@.o.o.+.$.+.o.+.o.Q _ o._ Y O = q w r E k.>.@.$.>.z.L - b 4 d [ ] O.@.O.' +.+.+.o.o.o.+.@.o.@.[ [ @.2.[ ` [ [ 2.2.I ",
"H ` O.2.o.+.o.o.+.$.;.o.o.o.| E ^ m E R O w w w r #.6.+.+.+.+.w.| < 7 R b @.o.] 2.O.o.+.+.$.+.o.o.[ @.o.[ | @.=.2.8.[ ] [ ] ] P ",
"J I @.2.$.+.o.o.;.$.&.o.X.X.X.X.[ V } } O w w s w i.2.$.$.+.+.;.u.z d 3 W :.+.( ;.&.+.&.&.+.+.+.o.o.o.o.o.o.@.@.o.2.o.( I I ( ] ",
"P $.0.$.o.o.o.o.o.;.&.+.X.X.o.o.[ [ @.#.= - p s z z.;.$.$.+.$.$.s.L w = * [ =.( ;.,.;.&.&.+.+.X.o.o.o.o.o.o.[ o.o.@.o.O.] ( ` I ",
"-.m.2.$.o.o.+.+.o.;.X.o.o.` o.o.[ @.@.@.* % s a | p.%.o.$.+.o.$.s.W w = % v 6.` &.,.&.+.+.&.&.X.o.o.o.o.o.X.o.o.[ @.@.2.2.] P I ",
"5.p.-.o.+.+.+.+.o.$.&.o.o.` o.o.[ @.4.~ q O q < k.w.+.@.+.o.$.$.8.W w w w , 5.o.&.;.+.+.X.+.+.;.o.o.o.[ o.o.o.o.O.o.[ -.s.[ L L ",
"4.w.$.o.$.+.+.+.+.+.$.$.+.X.o.o.@.=.7.E - % = ' v.;.+.+.+.$.$.$.8.L = q = q @.>.;.&.+.o.X.+.+.+.o.o.+.X.X.o.o.o.o.O.o.@.s.( H P ",
"w.w.$.o.+.o.X.+.o.+.+.+.+.o.X.o.[ @.=.d o = 7 s.p.;.$.+.$.$.$.;.5.I - a q q W r.;.+.+.o.+.X.+.+.+.+.+.+.+.X.o.o.O.@.@.@.i.] H L ",
"9.p.$.$.+.+.X.+.+.+.$.+.+.o.o.o.+.2._ o % % 8 s.w.$.$.+.+.;.>.0.2.I z s l > K a.&.+.o.o.+.+.+.+.+.+.+.+.o.X.o.o.o.o.o.@.u.O.Z G ",
"u.s.>.o.+.o.+.X.X.o.+.$.o.o.o.` @.@.< o w p m s.;.o.o.+.+.+.;.w.8.` F a t H m.M.,.+.+.+.X.+.X.X.+.+.+.@.+.+.+.X.o.o.O.@.u.4.G Z ",
">.M.,.+.o.o.o.o.+.+.&.+.o.o.X.X.2.| = o - d #.e.$.o.o.o.o.o.@.5.u.+.( 7 x [ u.r.$.>.;.o.o.o.+.+.+.X.+.+.$.$.+.+.X.o.O.$.p.u.P Z ",
"( A.,.+.+.o.o.o.o.o.o.&.+.o.o.X.5.@.9 = F [ u.=.o.o.o.o.o.O.@.5.s.[ ] H H ] [ =.X.o.;.&.o.o.+.X.+.+.o.o.+.+.$.+.o.o.o.5.v.O.P H ",
"G +.M.>.$.+.o.o.o.o.+.+.+.$.;.;.-.[ Z A 2.g.=.+.O.o.o.` o.o.@.8.i.[ ( L H P :.g.>.X.` ;.;.o.o.+.+.X.o.o.X.+.+.$.+.$.0.r.P L I P ",
"K H h.M.$.$.+.o.o.o.&.+.+.o.&.0.-.` 1 ` u.8.+.[ o.o.o.o.O.@.8.O.] [ ( P P H ] 8.B.0.;.X.;.o.X.+.+.+.$.X.+.+.+.+.>.>.M.X.L ` [ ` ",
"` / I >.b.>.$.+.o.+.+.+.+.+.;.0.O.P Z @.i.=.@.O.O.o.o.@.-.5.O.` ` ` P I I P A ( X.M.M.w.;.;.+.+.+.+.X.X.+.+.$.$.8.b.v.H ` [ [ [ ",
"X.( K H +.V.6.:.+.+.;.o.o.+.0.t.O.Z H O.O.O.O.O.O.o.@.2.8.@.] ] ] I K P H K H G Z I X.w.M.>.;.+.+.+.X.X.+.-.>.k.A.2.L P ] [ O.O.",
"o.` I H G $.C.a.0.>.6.$.$.0.a.0.` Z ( 8.o.O.[ [ O.@.5.5.o.] ` I I H H H ] [ P H K C K / ;.M.0.,.>.>.>.;.y.a.B.s.H Z P ` ] [ | O.",
"` ` ` ` H P X.C.A.C.B.x.M.x.0.+.I L @.s.@.@.@.@.@.O.O.[ I K H H G Z P O.@.@.[ I G H G G P M.A.A.V.V.M.B.A.8.O.H H L I ` ] ` [ [ "
};
