/* XPM */
static char *_5cb054a084c4232b03d174fcde464f9bg3vXE1PXTdRgtOk[] = {
/* columns rows colors chars-per-pixel */
"64 64 31 1 ",
"  c #3D322D",
". c #3F3531",
"X c #42342E",
"o c #433631",
"O c #453A35",
"+ c #4A3C36",
"@ c #453E3B",
"# c #4A3E39",
"$ c #503F37",
"% c #45403E",
"& c #4B413C",
"* c #514037",
"= c #51423A",
"- c #454444",
"; c #4C4542",
": c #4E4946",
"> c #4C4C4C",
", c #514742",
"< c #524A45",
"1 c #524E4C",
"2 c #594F4A",
"3 c #53504E",
"4 c #5A524E",
"5 c #4F5050",
"6 c #535251",
"7 c #585654",
"8 c #595856",
"9 c #5C5B5A",
"0 c #60524A",
"q c #605A56",
"w c #605D5B",
/* pixels */
"----=:--->----->-->->------>-->->---->----->--->-->----->-;;----",
"-->3436656336655535555516655355555335665665655335555636666336>--",
"-1@++*+&@+@OOOOO%O*&***&&&%O.OO&%OOO&&%&&*+&%O+&&&&@%OO%@+*++@5-",
"-6*+<<&&%%&@O+%%%%&&&&%%%%&OOO%%%%%**&%%%&&*&@%%&&&+%.%.@+<<++6-",
"-6*=55<%%%%&4>&%--@&8&@%@@&&3&%%%%@43&;%-%:8&%--%%23@%%%@:>1=+6-",
"-3*<552%%@%O96&-%@@-w;@@-%&38%%%-%@93&%-%-<9:%%%-@49%%--O131<*6-",
":6&*13&%-%&OO&%%%@%&&&%@%%&&O&%%%@&&&&;%%&+%&%%&%%&+@&@.@@11++6-",
"-6&&*&%%&.OOOO***OO&***&%OOOX*OO+OX&*=*&**+O*++&++OOOOOO@%@@%+5>",
"-6&@&%%O33533333>1113333513335555>3353353115531531311113O%%%@+3-",
"-3#&#%%+3>->>-:>>>>>>>>>>>>>>>>>>>>>>>>>>>>>:>>>>>>:>>:1O%%-@@6-",
"-7@@#%%+5->567663777777688888888878888888888987888876>-1O%%%@O6-",
"-3O@#@+O1>3%OX@%%&O*O&O*OoOO+*O+@O O OOO*O&&+X@+@.oXO6>1@#=+@O6;",
"-6OO3q&O>>7O+O+@1>>OO&&&%O%&&&%&&O@@.%@&&&&&*&;:OXOOO8:1O+97OO3-",
"-6OO<4#+3>3+&@@O%>3>&->>1>>>>>155>>>5>>>>>>-<>>+@@+OO7>3O+4>++6;",
"-5O.@@%+3>7+*%&<*%33<OOO+oOO+&*@@OOOOOO+*++23>&&::#OO7>1O@#&#@6-",
">5O--%%+1>7%&+:>&&&333O**%%&&+&%@OOO@@%&**333&&%<<+O@8>3O%-%%+6>",
"-5O@-%%O1>6@>#o@%%#O667,*#@&99@%@O9q@@#+1431&&%%&&&;O7>>+--%%*6-",
"-5O@-%-O>>7->3O@%%@o@667++&+33#%.O<3+@@O361-&&%%;&>-o8>1+%%-%+6-",
">5@@%%@O>>7O:56@@#7>o@673O++O++&-@OO+Oo333&&:6@&;>>;X7>1@%%%&&6-",
"-5O@&<#+1>7++<36&+;@@O#573&::<<=::<><&133&&%&:@&1>:OO8>1+@=&@@6-",
"-6OO8w&+3>8OOO366@O@-@O-561O--------%:>>&@%%@&@13>;@O8>1++98+O3-",
"-3+@&:&+1>8@@>X666@@.@Oo@63<O@------:>3&O&%@@&133o:@+8:1O@;%OX6-",
">5O@@@&+1>8O@> o766#o@8@O@361*#--%%&>>&@%7@@@136O+;%#8:1O@@@@o6-",
"-3O@--%+1>8@&>.o&765@O@@@O@161+@@%:>>&@%@%o%161:O+<@*9>1O%--.o5>",
"-5O@%%%@>>8@@>oOXO473OO@.%@#631+@&>>%@%%@O@161.@@+>@#8:1@%-.-O6-",
">5O@@-.@1>8O&5O@#+O373@@-%&+&311&>>&O&@@@@>>1o.@@+5&@8>1@%%%%+6-",
">5..@@@o1>8+%>@&&&+&133+&&8&#&331;&+@8;O@1>:;+O@&#>%O7>6+@@#&+6-",
"-8.@:3Oo1>8+%1+&&++<#133&+@%%#@13<O+@@..>>;-<+OO#+1@o8>3@+31&+6>",
"-5.O89Oo1>8O&1+=w6#,-+133&@%@@#&331+@.@>5;@-;+19#+1@o9:1++98&*6-",
">5.@+@@o>>7@@1#=93+:-%&133&%@;<+%131oo>>-.--<O19&$1+O8>1+@#&=*5>",
"-5..-%%o6>8@#5&&###<-%%#>33&@:3%&&61:@-;@%--:+@O&*1@O8>1+@@%;*5-",
"-5@-@%%O3>8O@>#&%@@<>--%+133+O#%-&&56:@O@---:@@%-@1Oo8>1#---%&5>",
"-6O@@-%+1>8+@>+@%%@,--%%#@151@@;@=&&33>O@@-->+%%;#1@o8>6#%--@=7-",
"-5O@-%&&3>8+&1O@++@,---@;>;<66@#&3<&&611O@--:####+1@o8>1&@@-@$7-",
"-6O@O@@*3>8+@>O#91O:--@;><=+<11##<<&#@361O.-:+29++1@@8>3*&&;;$5-",
"-6OO69+$3>9#%5o#96O>-@->>;&@O<55&#&-%##555o->+49$+1@O8>2&*98$#7-",
"-5@#13#$>>8#@>O###+,%;>>++;+OO:56=#-@#+@511o;++#@+1@+8>5+@4<&$6-",
"-6O%##&+3>8+;>O;%@@;;>1+@;8@OO;<53&@@9;o@165#O+@%+>@@8>1O@@@&#5>",
"-6O%%-%+3>8+@1+;;$+<51%@%@;+@>>,131&O;@@@@566OO@@o<@+8>5O@--%+5;",
"-3@%%-%O5>8*->+=$#456#@%%%@@1>,##161@O@-@@@666OO++1%+7:1.%-%%O6-",
">5+%-%%O5>8$@1#$1165@@;@%@%>><@%&+<66%O@@-@&376-Oo1%@8>1.%@-@O5-",
"-6O&@%@+1>8#;>$#665@@&8&+#1>:%---#+133%@&9%O+367oo1#+8>1..%%%+6-",
"-6@#;;#+5>8#&>+511;O@@&#@5>:#-----@+133+O-@@@&376o:#+8>:.@,;@+6-",
"-6#&9w#O1>8#&;<65&#@--@%1>:@>-------*363#.@%@@%361@$#8>1@@w8#+6-",
"-6+%=:&O5>8+=,51@+;&O@;>11:::::<1:<:<;373@O@&:+%611++8>1+#<;#+3-",
"-6O@&%#O>>8+,>>@@@3:O%166+++oo+#&+$**#O773@@:6%+#61<+7>5+%&%%+6-",
"-6O@-@%O1>8#;>%@@@@+@161#$@O11@@@@44&&+O363&&%%%=#6>%7>3+%%%%+4-",
"-6O%@-%o1>8+>@@@@-@@1361$@;+99O--+q9&&#O&775&@@%@##1@4>5@%--%#6-",
">5@%-%@o1>8&@O::%@+>33O+*&;@@OO@@#&=&&&+oo576@O@1>#*&7:5#;-%@$6-",
"-5+%%@@O>>8.oO:;@+1><X+O++*+ooO++++#*+*$+oo665OO<<&#o7>1#@%@@#7-",
"-3@O<3Oo1>7.OOOO#>>&-:>>>111>>1>>1>13111<::@151@#&;+o7>5#&4<@+5-",
"-3+O79@X6>7.. oO>-&O+%%%&@-@@@@&#;&&@--;;@+#+:>>$##@X6>1$*98++7-",
">6OO@@@O>>6 .  .O%@OOOOO#++OOOO@#=@#+&**##+++X@@;++oo3>1$@##@+6;",
"-5@@%%%@5>>677888777888888888888888888988877777677761::1$-;%@+6-",
"-6#%%--.1>>>>>>>>>>>>>5>>>>>>>>:>>>>1>>:>>1>>>>>;>>>>>>1#;-%;#6-",
"-6#&-.%O1116>11>111153>53553>1442221113413115>1111>11117@--%%@6-",
"-6&&#@@%@@#+OOoOOO@+oO..@+#+oO##&#OOOO@+++@$#+@+OO+OO+##;@;#$*6-",
"-3*#11@@-@@@#OO-@@-@+O%%@@@+@@@--%OO#@-@%%#$#%@%-@o+@%--;&1>&$6-",
">5*<1>1@%-@#95O----,9;@%-@@69@-@-@@96-@%%%<9<@--@@69@%-%#1152#6-",
"-5+,>1,@%--O75.%@-@;8&@%%%@<6O@-@-+6>.%%%@;8:@%%-@,7@%%;#155=;6-",
"-5@O,<$#@%@@@+O@@@@#@+@@%-@@@@@@%@@OO@%%%%#+@%%%@@@+#%&%,=<,=$6-",
"-5XX$$$+#++@+OOO@o++++++OO+++O+++Ooo+++&$+$++O+++++o++#+$$$$$+5-",
"--14076565765556765761616636766663566663666653676716556564461>>-",
"---;::--->--->---------->--;------->---;->----------->--->;;----"
};
