/* XPM */
static char *a53e0ebe7c2b4ae2b6efe2db7565f71dXjDRGoUCXyyMzpzG[] = {
/* columns rows colors chars-per-pixel */
"64 64 65 1 ",
"  c #271C12",
". c #2A1E13",
"X c #2E2115",
"o c #332516",
"O c #362817",
"+ c #382917",
"@ c #362618",
"# c #382719",
"$ c #372918",
"% c #3C2C1A",
"& c #3F301C",
"* c #412F1C",
"= c #44321D",
"- c #4A351E",
"; c #4C381F",
": c #473220",
"> c #4B3621",
", c #4E3921",
"< c #513724",
"1 c #533C23",
"2 c #593F25",
"3 c #564024",
"4 c #5C4226",
"5 c #5D4329",
"6 c #614527",
"7 c #654827",
"8 c #634629",
"9 c #65492B",
"0 c #6B4C2C",
"q c #714F2D",
"w c #6E502D",
"e c #74522E",
"r c #79542E",
"t c #664A30",
"y c #6D4E31",
"u c #714F31",
"i c #6E5132",
"p c #745332",
"a c #7A5633",
"s c #765834",
"d c #7C5A35",
"f c #765439",
"g c #795639",
"h c #7D5A3A",
"j c #815C36",
"k c #825D3A",
"l c #856036",
"z c #886237",
"x c #85613B",
"c c #8A643D",
"v c #8E683D",
"b c #916A3E",
"n c #835F40",
"m c #866141",
"M c #8A6442",
"N c #8E6942",
"B c #8F6949",
"V c #936D44",
"C c #967046",
"Z c #987147",
"A c #967149",
"S c #9B744B",
"D c #9D7650",
"F c #9F7951",
"G c #A27C55",
/* pixels */
"29:5hieah;=9ga:288<6qjaqz=4lSbvFd;wNhSd7O1rcrw06-*6kjua9*<<8f22*",
"49>6hypag;-6gd=58k<5qkar9*wvCbhFs&wvFShwO1rle076*=qkraa9*122f2<#",
"4u=8htpdp4=0uj:80k<<qkaq1;rCbvvSwOwACsbw+1pdq772*>qkaja8-612t35$",
"1t=9k0eph8:90k<8706<rka6=3dCvbhv7&iDssds&7aaq771*2akeag8*69295t%",
",5>0hpewk7=68j288a02eje4=0zSvzVA7OsSsdss=6drq09<10jkerk8*89298y1",
":5>tnip9k0>25u<89a0<ezq1;rbZvdCV9&wSssrd-6awqq0<-0gjrjk8%21>9tt5",
"*5:8gyp0n0<-<<<2uaq29c013rbbvlCV9&wvsrwr;6ae0q0><7ejujf8%2t2899y",
":3:4pppeku<08<8<apq68Me,3evZzzCb3&7d7377=4dae62#,0qa8kg8#:f6:99u",
"1<=49hqqku2971t28ru02ne,3wdFdvCV9&3iswws&3sdqaq#<8adp0k6#=f8:58y",
"t:$>4nppaa<272882ueu8ka>3wzSdbbV9&3ssssw3;sz0fa>-6ukj9k2@1y8=>99",
"p%@25hyaag*285<082arqar>3wdbCbCV3;sNvCbsw&7w10a2*4adaqh<@ygif:09",
"f:X289ppra8hBq>t998rjqu-3wdvbbbC33dddvCw7&&;ukur*2aaadd-@tpyf*89",
"y5X169haud1ank:8qa99dw7;;wsdbvCC9;vsvvCs7&;4ejua*1dreku%$0yiy=2y",
"y8@166gdad<djM<<qad6r043;wwzFhCC33Assvbs4%33ejed*2jpdgd*=tygu:<f",
"t5*:52pkdq-djM8*epdr9336;37zSNvd39AssvAw3%43qkqa=4kqkph%5p49y>:g",
"tf:@<20gk6*krcu%0wrrj13s7;wdSSds3iAvssvs3%73qjqr*4ahd98$yuyy8,*g",
"gy:@<y8hk4*dajk*80qrk22q0=0dSbzd4sCcldVe1=e2qkqr*9kde62*p0tk8<#f",
"g0*@<9th02%kaan=<7uej2<8w-7rZvdi3wVzddVe-<e,8kqq:4ka02;*aqyh8<Xt",
"g5*@<6uh70<0jaM1*27ra7<8w;4sAvsw34Czzlhw-30<2jeq:akq4;*<a9uh9,Xt",
"p<%%<90n07<>kjk62krnjr-8w;;5hs44&4Vvvdx1=r07<quq<k01*=O2pyyh5#.5",
"2*<<:99k08<*kjjt-aqkke<17=;whhs3&4NbldN33d0r6uy0<0udk8o4a0fu2#.5",
"t<<<:89h08<*fkku-aaqne1-;3szGCDN&3xVldN36e7e4au2;pkkh2@9uufu2.#8",
"gf**:99hq22#8Mkg-qjqrq2=;3sdFbSv&;hSxlz;6r0j10d>=kkdg<@yuaft:@tn",
"ff#**8th0<=*<Mjj197qjq6*;3ssFbCb&;dCsvx-400e;qn;;kjjk-+aaayt#%ti",
"gt***00ft<<*<nkp207ajq5%*3rjSvCN&=sAhbd3w7j0-0d=2njak-*ku0y<o2ht",
"gt*:#0qj82:<u8ka1q7jxq6=%3rvCvCb&&sNchd300r7109=qjrpa*2g080>#aut",
"g<::#tuf02*2g2j<80qavq41-4dCCvSC;=sAdse7w0j2781<jdjkf*t7880*1au0",
"f::*#0fuq<#6k8p*urqrz031,;eVbbSh&&iNde7700d2j6;<jakgd*y688t#uuuu",
"5#::#tkuq<#2j02#8aqrk0163=wvNVCd&&sVdw3wqqa3k6*<ua0rd-660y2%fu0g",
"<#<<*uku8**2gp02-9arc9,99=9xNvAx&;hhdw7wqq23j0=-akarh=290t:%9y0h",
"<X<<*unu2=8qMkjj*qerk66rr34lAhGd&3dse37wqr=9d7-*ukkkg;,982#8g9uh",
"*<uyttky*<8qMkjj#rqrk62rr34lVcGs$9sw77wwq7-yau<#ykkkg<*,5,%tg9yt",
":<y8u:.*:18adjjp+qqrl31es;;sACF9&NhV39www30Vpx1@6cjMd2*<u2:0f92<",
"2<8ug:#<210kakdp+rrrl337s33vGhA33hdh;h7w0,djkN=o2akcd2*121:yf890",
"8tutf*#2119kkqep+rrjl13qd3;hGhh3sNss;hs7w;xaxc<@8anku8:95,:uf899",
"8<85t#>0910njdap+rrrj1qwe;3vGd73xNss;ds7>-crkk;o5akk9y>6y*1uu689",
"t<<gf#:u8t9Mjpap+0jre7wrw;3vAd63bbsi;dce,6zekk-.<rg89u<58:2fu628",
"8:8p9#<a29ga0qap+6jq74wes33cNs37Nhhw;hcs-6V7cj=@<gn20u<62<8au558",
"<<5p<>99>6ag0kka#6r071wes5;ccs37Nhv3&wvw-1Nqkk*%1un60u28<18gu669",
":<tu%<y6*2uMujjp*6q073eed53chw35bcb9&7d7;*kqjk=%68k62r<=*<5g888t",
"*85t2yf22>8Mpake%6q066qrrw,xh5:3Vhv5;svdCw7wda%=980911=**24ga451",
"#<,:59f87>2Mujku*2qq67qrse,iwi43hvv33vbdCs3eap+2guau<=:-20tfgyf5",
"*:>>00t26<1cajjk=20049qjws3wMlc4hhc33vbzbd3eks+4k0yg4%=18agdmMu4",
"#::<8u860>1kpajk>27060j0es3wcsdtiVb33vbzzd;ezl+4k99h8%%29akdhm01",
"#:*80y88,%2jdrkM116a99kerd3wcdsi9Ah33hbdzb;wzd%3k88n6@@10hkshm8,",
"#*<0u0882+1akpkk4<6926zddd4wlddi3As;3hCdlb77dd&1a85k6@+>0msshx8>",
"X#28q8802%1aMapjq;99;;0dsr5sldls3mw;3hZvlzr7we;;n08n6#%2pMishg3=",
"X*0008804%<qBgqrp19p=w0dds4dlsds3sw&3sCddvd777;3k05k8%%99kidxh5=",
".*0u788u<*;qcuqqu6ua*assdr4sxdsh3wh33sCzjvj611=6ku8g8**8enadkk2*",
" *8u888q2#<qMaqq70au;ac0da4iVesl34Nw-wCzjzkj,;-1ju8fy**<ukdakg2*",
"X<2u888u<%1qMu0040pq*ec0ws4wdssh33cs=1vvjljz6-*=qk80p*:#8kgdxf2#",
"@<<u880u1@<0n06660a0=qcp75,9hslM3=dc4=dNjljv7==*8aftk**#2akaxd<o",
"2t28888a<o<9M86288d4=0dww5=4dszc33smh35vlljzq<<%8ejtk*y2=wNskh>@",
"5t2888tf:*y2a86880d;6pcdld4,ivdM35NASz;dvzjvr1-=:yku0:q8%8Mdkh>o",
"t8<28888-<a1u8668ed19rxrNd3-wNxx35Nvxv=7blejc6-1*8ku8<02%1mhxh>o",
"t22<29f8=2u6u9q50rr>7addxs0&wdxs39AhCV;;zvrrVq-4#<jk0<y8==hxmm,o",
"t22155t4>5y9yuq2uar<7jdwshw&wdsw;9NvvC3&rVrdVp;2*:rn9121=%0Bxh3o",
"221<5021929890q9ua620jr0ss7&9sw3;wbNhS7&9VdlVk1<t#0n6<11;%5Bdf9o",
"126<2q446168u89uua17qkrrsh7&shs3;sACzCsO,jkzkz0<u#4k9411;%1Bswy$",
"146><9829>49g0<g0q<qqjrrsv7;shh7&iNvvbv&-dvzjja-u**909<1>--Md00%",
"142>29gt2<18at<k8q:0wdewsh3;shhw;sbbzbb;*rjvjej<2-1109;<>>%mp96=",
"151>gydgp1>8au5k77=7wlrwhd;;sAhs3;sCvbC&*7lzrra2-*8anp92>>%gf92*",
"28<<dppkh<-8du<824=7wlswvw&;sSsi3&sCvbC;*6jvrqq0**5aM0dy-;*if81=",
"19>1gpedk;:7fu<174;7wlswc3&whAhhs;wbvCv3O1rkrqq0**8axudy&;-yp6<="
};
