/* XPM */
static char *_c9946fe75234a57f40b52de5f45111b2ain5XUoYOmpuBAb[] = {
/* columns rows colors chars-per-pixel */
"64 64 155 2 ",
"   c #37053E",
".  c #340A3E",
"X  c #39083F",
"o  c #261D3E",
"O  c #281B3F",
"+  c #27213F",
"@  c #28223F",
"#  c #360740",
"$  c #390742",
"%  c #350C43",
"&  c #3A0C42",
"*  c #370F49",
"=  c #390E49",
"-  c #2D1542",
";  c #271E40",
":  c #2B1C43",
">  c #2E1D49",
",  c #321344",
"<  c #311A46",
"1  c #351449",
"2  c #39124C",
"3  c #331C4B",
"4  c #39184F",
"5  c #371650",
"6  c #3B1452",
"7  c #361D53",
"8  c #391A55",
"9  c #3D1558",
"0  c #371F59",
"q  c #3C1C5B",
"w  c #272141",
"e  c #2B2344",
"r  c #2D254B",
"t  c #302447",
"y  c #31244C",
"u  c #32284D",
"i  c #2E2552",
"p  c #322554",
"a  c #392456",
"s  c #342854",
"d  c #34265B",
"f  c #3A245C",
"g  c #36285B",
"h  c #39295D",
"j  c #362761",
"k  c #3B2663",
"l  c #362861",
"z  c #3B2963",
"x  c #3E2569",
"c  c #3E296A",
"v  c #3F2A70",
"b  c #41165A",
"n  c #421E5F",
"m  c #491663",
"M  c #431D64",
"N  c #471D6B",
"B  c #4A1E6F",
"V  c #481F70",
"C  c #422465",
"Z  c #412966",
"A  c #43256B",
"S  c #49246D",
"D  c #43296C",
"F  c #49296F",
"G  c #462571",
"H  c #4B2474",
"J  c #442A73",
"K  c #4A2A75",
"L  c #4D267A",
"P  c #472B79",
"I  c #4C2B7B",
"U  c #51277D",
"Y  c #512B7D",
"T  c #4E2C81",
"R  c #4E2D82",
"E  c #4E2D84",
"W  c #4E2F89",
"Q  c #562780",
"!  c #522C81",
"~  c #512E83",
"^  c #562C85",
"/  c #592C86",
"(  c #592F86",
")  c #532E8A",
"_  c #552E8A",
"`  c #5B2E89",
"'  c #5B2D8B",
"]  c #5E2D8B",
"[  c #5A2D8C",
"{  c #5F2F8D",
"}  c #533086",
"|  c #55308C",
" . c #58308D",
".. c #5B308E",
"X. c #572F92",
"o. c #5C2E92",
"O. c #5F2F92",
"+. c #563091",
"@. c #593091",
"#. c #5C3093",
"$. c #5C3193",
"%. c #5B3095",
"&. c #5F3195",
"*. c #5F3098",
"=. c #5E3199",
"-. c #5E3299",
";. c #622D8F",
":. c #612F94",
">. c #632E95",
",. c #652F99",
"<. c #6A2E9B",
"1. c #623093",
"2. c #623196",
"3. c #63309A",
"4. c #65319B",
"5. c #63329D",
"6. c #62319E",
"7. c #69319E",
"8. c #6C309C",
"9. c #6E2FA0",
"0. c #702FA2",
"q. c #6532A0",
"w. c #6632A1",
"e. c #6732A1",
"r. c #6A34A2",
"t. c #6B33A4",
"y. c #6D33A6",
"u. c #6C34A7",
"i. c #6D34A8",
"p. c #6E34AA",
"a. c #7131A4",
"s. c #7233A9",
"d. c #7135AC",
"f. c #7334AC",
"g. c #7434AC",
"h. c #7833AD",
"j. c #7436B0",
"k. c #7636B2",
"l. c #7836B2",
"z. c #7A37B4",
"x. c #7A36B5",
"c. c #7738B3",
"v. c #7A38B5",
"b. c #7E37B9",
"n. c #7D38BB",
"m. c #7F39C0",
"M. c #8336BB",
"N. c #8239BD",
"B. c #8739C0",
"V. c #853AC2",
"C. c #853BC3",
"Z. c #893BC6",
"A. c #8B3CCA",
"S. c #8C3DC9",
"D. c #9541D4",
/* pixels */
"- : e g #.I e ; e i ) E e < 5 w r i P d e s s D ' 2.- : + e r s J u.3 - r z P ) #.: : + e e r t t u u D 8.N.D.;.< 1 e t s D r.J ",
"- y z P e.J e e r c e.c : - 2 e : p x r s s k K p.I , : + e r g T 5.: , ; e i J I : o e e r s h h K Y a { N.S.` = 3 t u z Y u.s ",
", e h h u.D o r r T o.i : , 6 ; - T J d d h x ! f.f 1 : : e r g E | : % : ; ; i : o e e s z } K Y g.F 4 1.l.' Y 1 t t a D 3.1.e ",
"% : r D 5.D e r d *.P r : < = > - e.Z h d h D :.t.< k y : ; e p #.K , n : e ; ; e + + s } 3 D 4.g.h.h 4 r.D 3 < t u a h Y s.K : ",
", - : g p : s e P 5.j e ; O = 7 A ,.D z z C Y t.[ < s I p ; ; s *.a < g r e e r e e s I [ , t [ C.g.Z p f 1 < z K D Z K 2.d.s > ",
"< : : e e e z d ,.E r ; - :   1 5.' A c Z D ( l.A 1 t h ! z e r %.< q g e e e e e r Z r.D * y 1.h.s.Y y < & t y J #. .( f.#.r < ",
": : e e e g z D 3.e ; - j .   7 n.! A D D Y ,.l.a 1 : s c #.J g K % v t t e e e e h ' r.p , s r. .! $.h : , r e s D ' s.n.J O % ",
": e t t s J s ! E - - r P . % [ l.( K S C ( s.8.3 < e y z I t.! d 9 g t e e t p y J p.T r , z ) z h z I e % s : t s K u.h.Z , 1 ",
"< e u u h I a  .3 : e c P . 4 p.M.<.^ Y Q :.M.( < 1 e u g I f.I 1 A r e u u s g h 1.u.Z : - J u e e r k J 1 l e e t s I 8 4 < < ",
"y e t u D K I  .z d d E D % * G u.7.y.,.,.<.N.K < < e u z  .5.7 6 j t u s s z h K g._ g e : y r e e r J H % c e : y 1.k a t y t ",
"S 3 t g } C K 1.7.[ ! t.a % . 7 %.I ^ 8.h.M.l.Z 1 < e s I r.p # H g u s a l F D 3.s.K s @ o : O o ; r 1 & % J s : M 4.1.2. .K J ",
"1.< u Z 4.4 a K f k.s.b.3 % , , ! z D Q 0.S.M.Z 1 : r l %.J % 6 ! s s g h K ! { x.' A r e : - - : p c < $    .s r A Y D K #.7.7.",
"c.< h Y 1.< u h I :.b.A.7 % : - d y z I y.l.r.! , e y I %.< & L J g h h F ` H Y N.( c r e + - : e J c : % 6 1.s t C h s h D Y 2.",
"' 3 h 2.Y < u h K ' k.n.0 % : : : e s Y g.Y f p : t h $.a % = *.c h C D ! k.8  .:.4.J r e : - w r E j , % L I g u u u Z a h Z } ",
"F u K g.C 4 r h A ' N.A % : e s T : r _ 1.t < - r s T K , % Y ! Z Z D K 8.s.3 z h I I u e O : + p +.i % % 4.D g h u D 1.u h Z Y ",
"a z ' c.8 3 t h K 4.p., , : r } I - r ' p - : O e c | : < 1 x.| K K K :.z.( < < e e z J e O o e l | > % 7 r.D h h Z ( ;.t u h K ",
"Y ..s.r.3 < a h T x.A % : r I p.s - p d : : e e s T 3 - : 1 f.s.:.Q / y.N.A % , : : e d r o w i c W : % Y ` Z h D Y 8.Y t u h F ",
"a 8.S.2.1 t u Z o.k.1 3 g J f._ : - : - j : e r c J : e : , D ! a.s.0.M.s.s % < c > : ; ; e e i J T - % 4.Y Z J F Y v.n 4 u h K ",
"u ..z.2.< t s K k.I % : I k.l.z e - O : P w e h W < e e e - p h Y ( N.S.! t % r ) > % i w w r i P A % 6 a.K S S Y 1.x.4 u u Z Y ",
"4 1.F t 1 t h } v.3 # ; c N.p.d O - ; s | w u I q f r e e r < < h ;.V.Z.K < < s +.: 1 d e r i d ) k % Q :.Y K K / h.8.4 t u K Y ",
"7 D < t a e z r.[ - % r ) *.[ k O O e x +.: g P * J e r t t t t p 1.l.2.[ , : D | : q P l d d c X.p % x.u./ U ;.8.N.Y = y a ( U ",
"4 < e t h D s 2.3 % - d o.c d x - o r J | w I 7 C D s u u u g I 3 t.C a 4 < y  .P e 2 J v T P T 5.3 % ,.s.f.<.<.h.N.Z X y y Y N ",
"< e e s h J ` 5.k % : E v r ; ; O e s [ _ e d % D s s s s h I 2.7 f 1 % > : z r.J ; % j i l J X.p.7 , U [ :.h.0.N.M.f b u Z 8.b ",
": t u s d G 1.C.P - 5 v d i : ; + e d e.T e - % #.l g g h D $. .1 & K < e r J p.l w % q r r i P P r , V K Y ;.h.D.M.f < t z 7.< ",
"e y s s k H 9.k.E 0 7 P H 6 N r r r c p.K e , B _ c h z Z I s.K 1 0 T J e s } f.s @ , 6 r e e l ; z , q D D ^ g.M.h.S < t Z 2.< ",
"t e g d c _ c.I d e > % & # [ x d d L k.J e , Q 5.! K D K ' k.a % z h D J g [ 7.t O , & r o O ; l K : 6 x z ^ n.;.h a < u K ! < ",
"e s z z K <.3.d e O ; # %   e.) J L o.x.J e , M I ' :.[ / 8.7.3 1 t e t s D 7.' @ e , & j j d d X.D : = h h 5.3.u , < t s } H : ",
"e r g A ) k.c e O - % # # 2 T x P o.k.V.! e - 6 g h J 2.y.N.( , 3 e t s j I s.r.: O O % : y J X.t.l : % h g *.4 . t t t a #.q : ",
"t i j K y.[ i + -   % , & U p ; o p 4.x.5.z : 2 r e u D 2.Z.Y p y D D J K ] g.y.r o , % - O r T 5.d : % i J p : e e e r l 5.< e ",
"r s x [ p.k + . , 7 > : , o.i ; ; : I ) g z p * y < < s #.I f f 1 s Y $.:.0.l.x e ; , o o o o i d c ; - O d 3 e @ r e i z #.: @ ",
"u g J u.E e - % : p T j 0 P i w ; ; z d e : 1 q g e < 3 a 3 D t 3 > 4 z :.n.M.A o : % : o + w i W z : - + o r r u u u s D Y : e ",
"i z X.t.d O % - O e d P J d i i d J l e : , % ! g e t t u I Z } ` A < e A k.h.X.d : , ; + e r l o.p : o @ @ r u s g d g P F e e ",
"d J p.K w . % : w w i d l i i i z 3.< , 1 % K J h u a h I 2.t Z ,.:.: y A 7.D c T > - ; ; e i v +.r ; ; e e i J ; l K J ) f + r ",
"j [ 5.r - % O ; w r i d d d i d E #., , , 4 2.D D g z K 7.L 3 h :.H r Z r.d r r e > ; ; e r d I E r ; O e i g P - > : d | r e i ",
"J u.c : % - ; e r r d d i i i c e.z , : , ^ Y z D Z D [ c.4 t f 7.7 > [ 3.o w e > 6 w ; e i l +.J w O o r i J ) - p o @ + + r d ",
"' ) : . , : w e e i d d i d x ! r.- , < 8 4.F Z D D ( h.( < r Z *.: d f.D o i q # L d r r i l *.j o + e r d I I : o e @ e r i z ",
"5.3 p % O ; e e i l g i g h J r.I , : < 8.` K Z F Y 8.M.a 1 t K ^ > ! t.d ; 7 % * X.d i p p G e.p ; e i i l X.J ; + e e r i d J ",
"J : 0 - + e e r s l v l x C ! f.4 > : 1 s.a.` Y Y 1.N.] 4 < s ( A p t.E r : % # x X.j i d d ) ,.r ; l J D I 9.k ; w w e r i z | ",
": j - : + e r d P D } K D K 4.[ 1 : e < K >.a.:.:.h.N.z 1 : g 3.5 J r.c : , & % W X.v 0 j v 3.o.r : ; d T e.b.c ; O e r r d J %.",
"> 0 , ; @ e i z | 3 T 5.' ' k.n 3 p C A u S ,.h.M.Z.8.u = e z #.> e.) y O , # L 0 v P T T [ f.^ i ; - w d I p.E ; + r r r l +.7 ",
"v - O + e e s $.K , r K r.h.a.< r K t.6 r f U t.Z.S.^ 1 , e K E z u.j : - # % 5.i o e d G ,.m.o.d ; - : i T T i ; d i i i c J ; ",
"x - o e e r K p.s 1 < > k k.U y D t.^ = e s Y a.Z.N.K 1 : s ! x #.E r : % # A X.i o ; w d j i.o.I p : : i E d : - > c i l E ; d ",
"- : ; e r z e.*.> % M ^ y a 3 C 7.s.y & e h ( l.4.( T , e s 2.f q.p : % # % 5.v r e o o r P T j x v r - i J : < 9 ; ; l c d e P ",
"- ; w e g I c.J : % k ( 1.K K ,.n.K : 4 e z p.` d > > : e z [ P J : % 3 # q e.l r e + + ; G d ; w r i > > i - % P e w ; i w c x ",
": @ e y D r.y.d , 1 3 f o.9.<.V.7.r - 2 p _ T e - - ; e i G E ) : , - p # ^ W d i r r i l i ; ; c r ; - r c % V l r e e r d W > ",
"e e u x ^ v.! e < 1 - r I k.Z.n.D w , 8 I _ r - + + e r r E ) d % > ; d % *.c i r r i r v ; ; d P w ; ; J 3 * X.d i r i d v J - ",
"l z c L <.t.z < < : : : A h.A.u.p + - V o.f % x i i i w r %.x , 7 + : r 9 E p r r i j T j : r W d ; : x J % I P d i r i x X.5 p ",
"s #.o.,.b.' y 1 > e r r A 7.,.e.i > * m 6 % % 5.v d d j J *., 8 i e w e c j i r i i l W - ; x W ; ; d W > * #.l i r r d T ^ 3 : ",
"e z 7.n.N.K < < : t h I 7.: r T K q $ 6 3 - - G ! T j j v A * P i e e O i i r r i d J J ; r ) k ; e W j # T L d i i p G 7.c < - ",
"e r ^ n.x.D < t u h K p...o O j ] % & V r : O : : f T E P k [ c u r e r e e r i i j E > : c [ r ; c W , 2 *.k i i d j [ ) v 1 - ",
"e t ! r.K f < t s D ;.n.c o . : & & * L e : @ w d - ; c W H j.*.K z p d e e e r p J I - r ) z ; d *.d % ^ *.D d d k I u.I d % , ",
": e | f < e u a h U g.u.r e O : & * N 0 e e r d P ; % ; 2 ^ o.[ 5.$.! ^ d e p p c [ f : c [ : e E W : # K ) [ G c G o.I [ : % , ",
": y x 6 h s h z K :.n.Y e @ o 1 $ $ T i > r i P j - % & , u.I G I ^ 9.k.U 3 J I T o.: r #.k ; c *.p , & A i h [ ! ^ r.T Z - , - ",
"- p 1 ' K Z Z C ( g.h.d @ o O 1 # 9 A > e i j E ; d > - 1 t.G c A K ^ f.[ - r ) u.! 3 I 5.: s %.J : % % q p : p ! r.^ t.> , : : ",
": : q l.` K Y U ,.M.' e : - C 3 # V i r i i v x ; i c d 0 [ k k x A ! k.k , e c p.K : e.Y r _ %.r % , , I d e e : I X.^ - , : : ",
"e : 7 ,.y.,./ <.M.x.D : - > u.f * j ; > i j W ; ; r r r x P j j j x ! k.0 - e J J : > J c Y p.j - , > 6 ] j s s h ! b.a , : ; e ",
"r r 5 K ! <.h.0.x.<.p : - p X.f 8 e w r r g v w @ e r d c l d l h A ' p.: - r J : - i r _ v._ : , - < Y K h a Z I s.r.: , : e e ",
"s v 5 f x ^ 0.Z.B.[ e - - J j % r w r i i T i w e r d x D d d s d D :.#.- , p > - ; i r [ k.Z - , : 4 2.D C Z F [ N.D % < : e r ",
"z J 1 e d K <.S.b./ : - : E : 1 + w r r l L o w r i J f c u s i d J y.K , - : : w i ; c W j d , : < Y ! Z Z F Y s.k.y % : e r u ",
"} g 1 e a Y x.<.:.X.: - c c , 3 + w r i P j w w i g } > i r i i d K k.a % : ; e d x : c > : , - : 1 7.K D F F ;.N.! 1 < e e r s ",
"#.: , : r +.[ p > i > : ) i % e e r i l T w + r i l | > r t u g z E r.: - ; e r J c - - , : : : > H 4.U F F Y a.N.f 1 < e e u c ",
"J - < : e z : 3 - - ; l T : 8 i r i i v z @ e r s W I > @ y u i k ) *.- O o e p E j % - : : e e < k.,.^ Y K <.M.2.3 % : @ e g } ",
"y , : e s I : : - ; r +.x - 7 c v l z E r @ e s x 7.f : e e r p z o.I . + e i d ' p - : e r e e < 4.;.8.:.;.a.N.K 1 1 t u s D r.",
": - e r K E e ; w : x *.i - 3 r c c P I e e i d I p.< : e e r d c u.h : d l j c X.: O o e e e e < f Z 8.g.a.M.s.a = < e r g E *."
};
