/* XPM */
static char *_f879bbd813944c2c9038ecfb5bc97a46kTeWi4ia70YcAtG[] = {
/* columns rows colors chars-per-pixel */
"64 64 137 2 ",
"   c #5D361E",
".  c #60381F",
"X  c #5C3A24",
"o  c #633C24",
"O  c #633F28",
"+  c #544235",
"@  c #5C4434",
"#  c #56463B",
"$  c #5B4638",
"%  c #57483E",
"&  c #5E493B",
"*  c #674027",
"=  c #684026",
"-  c #64432C",
";  c #6A452C",
":  c #6F492E",
">  c #71492E",
",  c #654632",
"<  c #684731",
"1  c #654936",
"2  c #6C4B34",
"3  c #654C3C",
"4  c #6B4E3B",
"5  c #724D33",
"6  c #704F38",
"7  c #67503F",
"8  c #6D513D",
"9  c #765137",
"0  c #7B5337",
"q  c #72523C",
"w  c #79563D",
"e  c #5D4D41",
"r  c #644F41",
"t  c #655245",
"y  c #6B5444",
"u  c #6E5847",
"i  c #65564B",
"p  c #6A574A",
"a  c #65584E",
"s  c #6B594D",
"d  c #725642",
"f  c #735946",
"g  c #7A5B45",
"h  c #725C4C",
"j  c #795E4B",
"k  c #635750",
"l  c #655951",
"z  c #6C5C52",
"x  c #715E51",
"c  c #76604F",
"v  c #7C614E",
"b  c #6E6056",
"n  c #6E6159",
"m  c #736154",
"M  c #7A6454",
"N  c #74645A",
"B  c #79665A",
"V  c #79675D",
"C  c #76685F",
"Z  c #7F6858",
"A  c #7E685A",
"S  c #7E685B",
"D  c #7B695C",
"F  c #79685E",
"G  c #7B695F",
"H  c #7D695C",
"J  c #7E6B5E",
"K  c #726760",
"L  c #776A62",
"P  c #7F6C60",
"I  c #7C6C62",
"U  c #7D6C62",
"Y  c #7C6C63",
"T  c #7F6E63",
"R  c #7F6F66",
"E  c #7A6F68",
"W  c #7E7066",
"Q  c #7E726A",
"!  c #7F7570",
"~  c #81634E",
"^  c #816551",
"/  c #826753",
"(  c #816654",
")  c #816755",
"_  c #816856",
"`  c #826857",
"'  c #836957",
"]  c #806758",
"[  c #81695A",
"{  c #816A5B",
"}  c #826C5C",
"|  c #886E5D",
" . c #806C60",
".. c #836F62",
"X. c #836E63",
"o. c #847063",
"O. c #877162",
"+. c #847264",
"@. c #877366",
"#. c #8B7261",
"$. c #8A7365",
"%. c #897565",
"&. c #8D7465",
"*. c #837369",
"=. c #84756B",
"-. c #88776C",
";. c #86786E",
":. c #8A786B",
">. c #8B7A6D",
",. c #917F6F",
"<. c #817771",
"1. c #857972",
"2. c #877972",
"3. c #877A72",
"4. c #887971",
"5. c #8F7C71",
"6. c #8B7D74",
"7. c #8A7F79",
"8. c #927F74",
"9. c #8C8077",
"0. c #8D817B",
"q. c #938171",
"w. c #91847D",
"e. c #94867D",
"r. c #938781",
"t. c #968780",
"y. c #958882",
"u. c #958A84",
"i. c #988881",
"p. c #9A8B84",
"a. c #9A8D87",
"s. c #968C88",
"d. c #9B8E88",
"f. c #9D918C",
"g. c #9E9592",
"h. c #A3948C",
"j. c #A09490",
/* pixels */
"a t r , o f j , o O 2 d d d d d O O d y y p s f z z x x x N z x s x d / j / ( ] x ~ x x j d O 0 5 g x  .N j d j X.~ O t s s k p ",
"z s a 1 o A j , O r h p p s y O O O d p s s z x x x z x x x n x f s d v ~ x ] x A x x f j f d 5 d ~ x V U K V ( &.] 2 i k k s k ",
"z z a 4 > X.A p y y p h s d r O O d p x n n n x z x x n z z z x s s f X.] M ] L V x X.x h x j d j ~ ~ V X.D x ~ &.{ 5 p z z z z ",
"z a z y 5 2.2.x f y y s d 2 y d r t s z x n n n n z n z x z s s s z y X.S ] ] X.( A *.x ]  .]  .N x ] ] 2.X.X.X.5.] 5 p z z z z ",
"z l a p 5 O.X.X.j z s s y y y y s k s z z n K x n z x x z z s x p z s A O.-.4.e.w.d.j.f.a.p.a.8.5.8.8.8.j.i.t.i.h.5.O i k z z z ",
"z z a r > 4.7.x x n z x s x x x x z x s z n x N N N x x x x x x h x x s d f S f g g f g g h h s y j x f p  .X.V X.&.O k k z z k ",
"a a a t < { 2.K K h x N n n x j x x s d y n x K j j x x j x j x m h B f N N 7.j > 5 d 9 6 O O O O $ O O O & & & r & r p k z z p ",
"z z l r @ A 7.Y V x x L Y Y x x K Y Y d h K L L x x x x x ( f X.V j M N Y Y r.V O d j z p k i r r k k k k z k k p s k k z l l z ",
"z k s r 1 7.i.7.2.2.7.0.0.7.<.u.s.s.r.6.9.7.7.4.:.;.;.o.o.q.Y 9.6.*.-.7.0.r.g.=.< s z z z k k i p k z z k z z k z z k k k z z z ",
"z z z i j 0.V A 2.w.w.X.7.<.2.X.*.4.*.L A X.*.J D D D U J *._ c *.w.y.r.7.7.u.u.5 f z z z k s i k k z k z k s z z k z s s z z z ",
"z k z k r 6 o 0 O 1 4 O O O O d 5 > 6 4 2 r : 5 5 5 q q w u c f d d f f h 6 d g x p p z k s k p s s s z z z z z z z z z z z l l ",
"z k z k s s p x N d O o O 4 O 6 , , 6 2 , O , 5 5 > 5 2 q q 5 5 5 ; ; 5 5 5 ; ; A y h p s z s k s k s s s k k z k k k z n l z z ",
"k k s z z z s z U j 1 i y 4 x p s s a z s a s a s p a b m g 5 p y r r r y 6 > < x f r z p z s s s p x p p z z x z k k z k z z k ",
"i s z z z z z n X.6 s s p y x z z z x z l s z z z z s c m v y p s s p s p t 6 5 g h z k k p y y y p p z x p p s z z z k z z p k ",
"k z z z z n x z E r s z s x z s z z z s z s z z b z s c m c t p p p i p p p 6 0 0 j p f p p f y 6 8 y s p p p p s z k z z z z z ",
"n z z k z z x n X.y x z s h x h f z z z s s s s s s b m C 8 t p t t t i f f 6 5 5 g d y p h p 6 8 4 p p i p t p i p k z p z z l ",
"z z n s k z p x *.r z x h h x s s s s x s s z s z c b b C 2 i i r i p t f g ~ 0 9 g d p p f y 5 6 d p p p p i i s k z z p s z z ",
"z k N k z z n N E d s z s s h z s s s s s z z z z z c c B 8 i a k p p y j ~ 6 O ~ x p y f s u 5 0 6 f z z k i i z z k z z z k z ",
"n n z z k z n n E y a x x x x z s s s s z s k s z z s c D q a s s i s p j x y O j y y f k z h 6 0 y z s z p k k z z z z k z z z ",
"z V i n z n z s *.4 z x z x z a s k i z p p s x h z s m D 7 a s s z s p j x d o g 2 2 p z s t 2 8 0 p s s p z z z z k z z k z z ",
"z N i N n n s j E q z z h s n z p k p p p p z p z h z M J 7 a u k i s p g x y o j d 6 z i z p y 6 8 f s z z z z z n z z z k z z ",
"z n z z p p z n W y z x z x z s z p s s p k s z s z h c J q i i s s k p x x r o x p i z x l u 6 8 y p s z p p n z z s p z z z z ",
"y s n & N y k z *.2 s s z m N s p p z p p s s s u s u u D q i a s k p r y r r O x p p r N p p 4 4 f y k k s x p k k ^ d k k i x ",
"O @ e % $ O O 1 m , d s p h M m h 8 y y d d p p y f s s D 2 y a k f y y x r r O r r e O 1 r @ 2 O 1 , 1 , O O O O 6 6 6 6 , & O ",
"N p s k x z h d f d 2 y 7 t j s y 8 y 4 4 < 8 y 8 8 7 y c 2 7 a s h x r *.<.z E K K K U x k z p d r y r r t y r 8 d x x ] ] z z ",
"x n X.X.L Y *.*.5.4 6 q f s s y p p p ~ f j v f d d d g c g q u s f y 5 x s.7.<.! <.E K Y <.<.<.2.<.<.! 2.<.2.2.<.<.<.=.E n ^ x ",
"y y z z z h x x *.2 x B N C D B j V V x M N B m B m M B Z q.w c x x d O z 7.L z z n z z x z n n z x z K z n x x K z n z s s r p ",
"y x y s z s X.h =.4 y s p p x p p p f f s s s j u s s u u q.u : ; O X X p 7.x Y z z l p L x z l l K x n l l z x z z z z N y i i ",
"p y p k k s y x X.2 7 p p p y 8 p s p y p p y h p p s u f +.f 5 : o X X 3 7.C s l l l l p z l l l z z l l l i k z k k p p k p k ",
"p p p k p s z x =.2 7 i p p p p p p s f p y p s p p i s j X.w w q 4 t 2 1 6.K z a k k l l l l l l l l l l k l l k k p k p p i t ",
"i k z p i s z x *.1 7 y y y y p t p t y y p p s u p p u c Y q u 0 m s 4 4 6.C h k p k k k l k l k l l l k z k k k k k i k p p i ",
"i i k p s p x z =.3 7 q 8 8 y 8 y p p y f p h p u s u u u D q q 5 y p 2 q 6.x M d s p l z i s k k k l l k k i i i p t t t p k k ",
"a a a a a u c z >.@ 7 7 9 u 7 7 7 a a 7 7 a a u 7 u u u u J 9 7 4 y y o y W B v u p s a a a a a a a l z l l k a a t t i t t a a ",
"a 7 a a a a a b J @ 7 7 7 7 a u u 7 u u u u u t a a 7 u u Z q 7 y y p ; > :.M s s p s l a a a a a l l l l l a k k a k i t t i l ",
"a a a a u a a c D @ 7 7 7 u a u 7 7 7 u u u a u u a u 7 u J 7 u u u t O y :.b s s p a l a a a a l l l l l l k i k a a a t p i a ",
"7 a a u u a 7 s c + 7 t t u a 7 u a 7 a 7 u u t t t u a u J 1 u y p 3 o y =.N p b a a l k l a a z a l l a a k k a a a a i s a a ",
"a a a a a u C u _ @ 7 t a a 7 a t 7 a 7 7 u 7 7 t t u u u D & 7 7 1 - o t ;.c C s l l k l l a s s a l l a l k i a l l a a a a z ",
"l l l l a u u u D + e 7 7 7 7 7 7 7 7 7 7 7 7 7 7 7 7 7 7 c : : - o o . 1 +.b s a n l l k l l p i a l k l k k i a l l l l a l l ",
"a l a b a a a u b # # # # # & & - : : 1 - : ; ; * o @ 1 1 2 5 7 ; 4 ; o X h z a l l l l l k k a i a a k a a i k a a l l l a a a ",
"a a a a a a a a W 3.9.9.9.;.;.+.W +._ / %.+.+.} / +.+.q.q.q.q.q.%.:.9.9.;.A v t k l l k k k k a a a a a a i t i i a a l l l l l ",
"a a l a a c ;.Q W Q W <.<.;.<.@.%.q.q.;.+.%.>.>.*.o.O.o.+.+.+.+.X.%.:.;.;.;.6.j t k k k k k k e t a a a a a a a i k k k l l k l ",
"l l l l e s W m c C C b C b K C m C c m C c C c B N c c c c c c c c B C B B 2.v y a k k i a k t a b l a a p a a i k k l l l l l ",
"l l l l 7 c W c u m b b c c n n b m c b b u c c c c c c c c m u c x x b h Z 2.v p k k k k a i i p b k k a a l a a a l a l l l l ",
"a l l l a c W m b b b b C K n n b C b b c b c c h s c c u z s c c x x x m Y Q 8 t l k k z k k a i i i i i k k i l l a a a l l i ",
"a t t a 7 c W m b b b b b K K b b b b a a c a c u c z h u h h h c x x b z C W f p i a i a a i r t t t i a i i i l a a a a l a u ",
"u a a t 7 / W c b m b b b b b b b b b c c b a c u c c u h c z h u c h h c m Z v 4 4 t t e 3 1 4 & 1 3 3 8 4 7 7 7 i a l a a a u ",
"7 a u t 7 u M W m C b m b m m b c b c b a c c a c z c u u c b h u s p c v Z Z w w g g g j j h q 0 w ~ _ / / _ / v u k l a i 7 7 ",
"q 7 7 t t 7 W m b b u b c c c c b m b c b b c c u z h u u u h x z u 8 v v | v v g A O.@.2.+.O.g 5 v | %.D q.q.J q.c t t a i i q ",
"2 7 7 t 7 h L D N b m c u 7 t p h x x x x x x h f s h y u u x z z u 4 v v _ j 9 6 j ( x B A j g 5 d m B ( B X.{ @.j e t a a t 2 ",
"7 u t a t c L N B b s h b c c V A x s s x x x x h h h x x x x h s s 4 } _ c j q 6 h ] x B V A h c M m M B B Z A @.j 3 i i i p t ",
"u 7 7 u i c D m c N b b z s c c x s h h x x x x s x z x x x c c m p 8 @.v { v c j x x M V V B N V L A M M M B Z @.v 3 t i y y y ",
"7 q 7 t 7 c D g u c b b m m b z h f s s x z z z s z N m b b h s s h f { } M M c j A M M B M N V D S B B M j B M { M 3 t y y y 4 ",
"u q 7 y y u Z u p c m m n m m b f s s z x z z z z N N N z h c u f c u :...M v m j M S B B B C V C D V V B N B A | h 3 t t t y y ",
"y i y u 7 u c c h c z c b z z c s h x x z n K n n z z n b x s u u f f #.} B M M B B B N B L V U D C C S V V D M O.y 3 t y y p p ",
"a l a a y c A c u p c z s m z c s s z x K K n n n n z b z c s h u u q Y S +.B V B S B N B B V V Y Y Y Y Y D D M +.4 3 t t p i a ",
"l a l a 7 v c D h b p b m s u u p z z x z N K n n n n N c s s f u u 7 q.-.S B x M A B M B B V B C A C C V Y Y +.-.8 , , 1 p s a ",
"k k a p 7 v B m m z s c s u u u y y p z b N K n n n n n z c u u h u p :.S D D m A V S B B S V B x U V U L U L  .X.g 3 , 1 p p z ",
"b b z c q j m s c u u c f q d h f p z m n z z K n n n n m b c u m s s :.{ D B B x A  .L S L V B U x V x x x U A Y M 4 i a s B h ",
"b b b h d M o.M b h p u f d f f f m b z z z K z n n N N b z u n b s u D Z B D B  .]  . .N V V B x  .] V U U Y } X.v t l z n z y ",
"W W Y B m v M v c c h h u u u u d s z b n K z K n n C m b b c b b x s :.B B B Z x x V x B B M B  .x x x x x x A X.{ K E Q ! <.B ",
"t h D Y v v M j w f m f u y q w q y h b b b n n n N n b z z x x z c u O.Z Z Z B A x B x ] x N ] U x x h h j x j X.| d x C V S x ",
"- * : 5 5 M Z q 8 u s s s q 5 > 9 f h m b b b m n n b x h z z x z s p %.Z m M c x j ] V x / x j x / x x j j g x O.} ; < , ; * ; ",
"i t 7 : : v M 8 2 8 y f h d 8 : : 2 s x s s x b b b b c c m b c c z h _ v M v c j x j x x j j d ~ x ] ] x g g ~ | ~ > 2 r i i i ",
"i p 7 - o j g ;   - 2 8 f d f 2 ; * 2 8 y u p h z x z h c b b z z c q v v M c v j j x C d d d 5 5 ~ x N x j f d | g O r t a a i "
};
