/* XPM */
static char *_867d426f4e94feaa0165cd9f25097ed0rIUtxSHSKkEvVM4[] = {
/* columns rows colors chars-per-pixel */
"64 64 206 2 ",
"   c #2C1E12",
".  c #301F12",
"X  c #2E2114",
"o  c #2D241A",
"O  c #352413",
"+  c #382714",
"@  c #3C2A13",
"#  c #312619",
"$  c #332919",
"%  c #292622",
"&  c #2C2925",
"*  c #2D2B29",
"=  c #312E2B",
"-  c #3C3424",
";  c #34322E",
":  c #3D362D",
">  c #3F392B",
",  c #363431",
"<  c #393633",
"1  c #3C3936",
"2  c #3D3C3A",
"3  c #4E360F",
"4  c #5C3807",
"5  c #5C3E0D",
"6  c #412E13",
"7  c #4A3515",
"8  c #4C3B1D",
"9  c #513511",
"0  c #533A14",
"q  c #513C1B",
"w  c #663F07",
"e  c #473B23",
"r  c #4B3C24",
"t  c #433B2C",
"y  c #4B3F2B",
"u  c #513F21",
"i  c #433E34",
"p  c #483F34",
"a  c #413E3A",
"s  c #554117",
"d  c #5C4516",
"f  c #55421C",
"g  c #5C451C",
"h  c #5E491D",
"j  c #6C4407",
"k  c #62420C",
"l  c #6B460A",
"z  c #6C4B0C",
"x  c #724506",
"c  c #754C06",
"v  c #794F06",
"b  c #724D0B",
"n  c #784E09",
"m  c #6F510D",
"M  c #7D5306",
"N  c #75520C",
"B  c #7A530B",
"V  c #7D5A0E",
"C  c #624714",
"Z  c #644A14",
"A  c #6C4C12",
"S  c #604719",
"D  c #634B1B",
"F  c #694D1B",
"G  c #714F12",
"H  c #6B5015",
"J  c #67511D",
"K  c #6C531B",
"L  c #745513",
"P  c #795514",
"I  c #765917",
"U  c #7D5C13",
"Y  c #72561B",
"T  c #78571B",
"R  c #74591C",
"E  c #7B5D1B",
"W  c #7D611F",
"Q  c #4D412D",
"!  c #544324",
"~  c #5A4622",
"^  c #5D4A22",
"/  c #53452B",
"(  c #594728",
")  c #56492D",
"_  c #5C4C2B",
"`  c #5F502F",
"'  c #464136",
"]  c #4D4433",
"[  c #4F4837",
"{  c #44423E",
"}  c #4B453C",
"|  c #4F483D",
" . c #514732",
".. c #554A33",
"X. c #5B4E32",
"o. c #504739",
"O. c #534B3A",
"+. c #594F39",
"@. c #5E5133",
"#. c #59503F",
"$. c #624D23",
"%. c #684F24",
"&. c #624F2B",
"*. c #655125",
"=. c #6A5424",
"-. c #64522B",
";. c #69552A",
":. c #6C592C",
">. c #715621",
",. c #725A23",
"<. c #795F27",
"1. c #735C29",
"2. c #635332",
"3. c #6B5931",
"4. c #7B6126",
"5. c #796128",
"6. c #454443",
"7. c #494643",
"8. c #4D4A46",
"9. c #4E4C48",
"0. c #514C44",
"q. c #514E4A",
"w. c #54514D",
"e. c #565450",
"r. c #585652",
"t. c #5C5956",
"y. c #5E5C59",
"u. c #615F5B",
"i. c #63605D",
"p. c #676562",
"a. c #6B6966",
"s. c #6E6C69",
"d. c #716F6C",
"f. c #777572",
"g. c #797775",
"h. c #7B7976",
"j. c #7B7977",
"k. c #7C7A77",
"l. c #7D7B78",
"z. c #7E7B79",
"x. c #835405",
"c. c #855905",
"v. c #8B5C05",
"b. c #835B0B",
"n. c #865A09",
"m. c #915F04",
"M. c #815D14",
"N. c #8D6005",
"B. c #86610E",
"V. c #8B650A",
"C. c #8C640B",
"Z. c #946204",
"A. c #9A6504",
"S. c #966A06",
"D. c #9C6C05",
"F. c #94650B",
"G. c #936A0B",
"H. c #9B6D09",
"J. c #9F7105",
"K. c #9E710A",
"L. c #846113",
"P. c #8D6916",
"I. c #85641B",
"U. c #956C12",
"Y. c #906D1B",
"T. c #9D7312",
"R. c #9F781D",
"E. c #A46C04",
"W. c #A56F06",
"Q. c #A37303",
"!. c #AC7303",
"~. c #AC7902",
"^. c #A27408",
"/. c #A77A0E",
"(. c #A97A0B",
"). c #B37604",
"_. c #B47B03",
"`. c #BC7C04",
"'. c #B17F0A",
"]. c #A17714",
"[. c #836623",
"{. c #886A23",
"}. c #C07F04",
"|. c #817F7C",
" X c #B78104",
".X c #BD8302",
"XX c #B28009",
"oX c #C28502",
"OX c #C98703",
"+X c #C48A01",
"@X c #CB8D01",
"#X c #C38D0D",
"$X c #D18E03",
"%X c #CE9101",
"&X c #CD9208",
"*X c #D39301",
"=X c #D99602",
"-X c #DC9B00",
";X c #E29E00",
":X c #E6A100",
">X c #EBA500",
",X c #EFA800",
"<X c #F3AA00",
"1X c #82807D",
"2X c #8B8986",
"3X c #8B8987",
/* pixels */
"9.9.9.9.9.9.9.9.0.w.r.e.; < 1 < 1 1 1 1 1 1 1 1 1 1 1 1 1 1 1 1 1 1 1 1 1 1 1 1 1 1 1 1 1 1 1 1 1 1 , = r.r.q.q.9.9.9.9.q.9.9.9.",
"9.9.9.9.9.9.9.9.9.9.t.i.; { 8.8.7.8.8.9.8.7.7.8.8.9.8.8.7.8.8.9.9.7.8.7.8.9.9.7.8.8.7.8.8.8.8.7.7.8.{ , u.r.q.q.9.9.9.9.8.9.9.9.",
"9.9.9.9.9.9.9.9.9.w.t.y.= , ; 1 2 < 1 i 2 , { = 1 1 2 ; a , 1 i 2 1 < { , a 2 1 = 7., 1 2 1 , 2 i , , = u.t.q.9.9.9.9.9.9.9.9.9.",
"9.9.9.9.9.0.9.9.9.w.t.i.; < ; 8.8.< a a a 1 t., a a a , e.{ 2 a a 1 a e.; a a a , r.1 a a a 1 8.8., , = u.y.q.q.9.9.9.8.9.0.9.9.",
"9.9.0.9.0.9.9.9.9.e.i.a.; 7.w.7.7.w.r.r.r.9.6.q.r.r.r.q.7.8.w.r.r.e.7.7.w.r.q.t.q.7.q.r.r.r.r.7.6.q.6., a.u.w.q.0.9.9.9.9.9.9.9.",
"9.0.9.9.9.9.9.0.w.y.s.k.8.a.f.g.h.h.z.z.z.z.z.g.k.h.h.h.h.g.g.k.h.g.g.g.k.z.s.|.k.h.h.z.k.z.h.h.h.f.a.8.|.d.y.q.w.8.9.9.9.9.9.9.",
"9.9.9.9.9.9.w.w.t.s.2X7.* , , < 1 1 1 a 2 2 1 1 1 1 < < 1 < < < 1 , < 1 < 1 , 2 1 1 1 a a 1 1 1 1 < ; = 7.2Xs.t.w.9.9.9.9.9.9.9.",
"9.9.9.9.9.9.w.t.s.2X8.  o o * & # O + + + O O O . o & = , 1 2 1 1 2 1 1 = & o O O O + + + + O o & & % . . 9.2Xd.t.w.w.0.9.9.9.9.",
"q.q.9.9.q.q.t.d.2X9.O : a a Q / { 8 x x j 4 6 t { 7.6.2 < 8 9 r ! A D ! } 7.8.7.r 9 w w x.x.q { y Q ' 6.> O 9.2Xs.t.w.q.9.9.9.9.",
"q.q.q.q.e.y.d.3X9.o a t l n D b b { v d t 2 9.2 i 7 0 8 a y p y M.oX+XP.Y c.G u 8.q.o.A D._.{ b z S S.V.Q 2 $ 9.2Xd.y.w.w.w.w.0.",
"t.t.t.t.u.d.3X8.O 2 ! m.Z. .} 9.m ' 2 2 7.< = , a 2 2 1 : 7 5 Q ' U.%X[.m.E.E.=.A G ..w.X.V 7.n 8.} ..+XoXh a O 8.2Xs.i.t.t.t.r.",
"r.y.y.u.s.z.7.  : Q m.!.F.&.G t 1 2 2 , 2 9.9.6.2 2 2 6.9.9.2 : > } _ O.P.A.m._ m.).`.%.| 9.2 u y Z $.'.:XoX( ; . 8.z.a.u.y.i.e.",
"= ; = = , 9.= X 6.N A.A.E.%.] i 2 2 2 q.2 > m B (  .! 8 - = 2 8.a e > < ~ _ ) ..m.).).2._.>.8.a i  .%.`.%X%XV.6.X * 8., = ; ; ; ",
"1 { , , 6.a.= & ' M  ._ Y n 1 2 2 6.2 1 B.@.*.-.J ^  .8.8.o.p t 6.6.1 6.7.| ! s _ ;.&.T.-XoXG 8.7.n !.I.:.-.S.' & ; a.7.; ; { < ",
"1 8., ; q.f.1 & y g } A p 2 a 1 7.2 Z ..J _ H ..q.O.K A v v x x 7 < 8.; 0 2 } 9. .q ) M.!.E.%.^ o.0.S...C.o.K / * 1 f.q.; ; 8.< ",
"1 8.1 9.7.f.1 & y A 8./ 2 a < 8.: l _ _ } / 9.@.B.~.C.S / } 7.7.7.a < 9.- e f Z  .q.y $.&.F %.A.Z.+.O.' -.9.B.) & < h.7.9.1 8.1 ",
"1 7.1 0.7.h.1 o { v c r 2 2 6.1 z x.2.H } 7.L Q.M. .8.8.q.8.8.8.7.6.{ 2 6.2 2 H Z.A | | g O.c.E.!.H.7.6.^ J.J.} # 1 h.6.9.1 8.1 ",
"1 8.< < e.g.2 O 8 } { 2 { 1 7.e n X.S 0._ ..! ] 8.0.7.) Z P n.m.Z.S.V 8 9.< 6.7.[ N M ) 0.D 2.F.K.3.I 8.a { { ~ @ 2 h.e.1 < 8.< ",
"1 9.2 a r.h.1 + c N.d 7.= 9.: d o.f q.$.J.~ 8.7.} %.v.A.!.!.).}.@X=X.XJ.< 6.- ' 8.8.g N.=.9.K ` 2. X*XE 9.Y ~.Z.@ a z.t.{ 2 9.1 ",
"1 7.1 a t.z.1 @ N.Q.| ' < 6.s _ g 0.^ c.( 8.{ 7.G E.!.).).}.$X,X,X,X:X-XL 9.t J 1 8.q._ Q.Y w.L :.*X-X+X_ O.~.S.6 ' |.p.8.{ 9.1 ",
"1 9.1 a e.z.2 @ N.K 7.s 6.< g g 8.( x./ 8.8.d  .o.m.!.).}.OX;X<X<X<X<X:X_.a { m _ U } 9._ ~.*.0.Y [.%XY.` 0.K S.6 , i.1 < { 9.1 ",
"1 0.= a 9.k.1 6 M 8.' C 9., /  .o.x.! 9.8.N A.B w.u E.).).}.;X,X>X*X>X>X%XQ 8.H  ._.V 8.9.*.~.O...;.2.Y..X;.#.M @ a 1Xr.7.< 9.1 ",
"1 6.a r.6.k.1 @ s 7.Q f 9.< s 9.b.H 9.8.G E.!.E.$.w.D E.).).`.}.}.).=X>X-X~ 9.d ] Q._.P 8.8.U G.w.K ;.%X-XK.q.f @ 2 z.8.e.6.7.1 ",
"1 8., < q.g.1 O ' a / Q 6.! | *.Q.o.9.g E.).).).E.p q.G E.).).).).).@X>X-XF 9.s  .Q.oX_.$.9.} Q.*.O.;.XX-X.X..] @ 2 h.w., ; 8.1 ",
"1 8.2 a r.j.< # 8.8 ] i 9.- 9.V.K q.o.D.).).}.$X$XC.q.} c.!.oX@X}.).).}.OXF q.f o..X:X*XE.| 9.R S.9.J ;.5.3.$.8.$ 1 k.e.a 1 8.1 ",
"1 9.1 a r.j.< & 7.w Q 8 9.< ..D.| 9.L.oX`.`.$X>X>X*X$.w. ._.:X<X;X}.).).E.! 9.d ] *X<X>XoXL 9.| ~.` ` ` ^.*X~.8.& ; k.e.a i 9.1 ",
"1 8.p 2 r.j.< = ] M p 0 9.2 L V 0.o.+X;X=X=X:X<X,X:XA. .w.K =X>X<X$X).)._.Q 9.Z ] -X<X,X*XE.} 9.U W 9.R /.:XoX .; < k.e.a 1 8.1 ",
"1 8.; ; w.j.< 1 ] =.a 8 6.< N._ 9.=.-X>X<X<X<X<X<X-X!.b 9.9.C.-X<X$X).)._.2 6.z 2.;X<X,X@X`.D 9.*.Q.9.K 4.%X_.! 1 < k.w.; , 8.1 ",
"1 6.{ e.6.h.< 1 C H._ i 1 6.z } 9.G.:X<X<X,X:X-X;X`.E.A.! q.8.^.*X`.).E.N 9.1 D E =X;X=X+XoXC.9.| ~.+.J X.3.1./ 1 < k.7.r.{ 7.1 ",
"1 8.< a 8.j.1 1 N oXb.] > 6.- 6.7. X:X<X<X:XK.2.H._.!.Z.v p 9.] v.E.E.m.t 9.d  .E.OX@XOXOXoX X8.8.J.-._ :.+X@Xz 1 1 z.9.7.1 8.1 ",
"1 8.1 1 r.j.1 1 M ).A.{ p 2 2 6.o.+X>X<X<X*X0.w.9.8.o.) u 8 { a r x.S.Z 6.1 N -.oXOXOX=X=XOXoXo.8.G.,.#.1.+XOXl 1 1 z.t.1 a 9.1 ",
"1 8.a a r.j.1 < ! :.=.i 6.; 6.<  .+X:X<X<X-XR q...o.O.8.8.q.2 6.6.a ..2 6.! / C.+XoX=X>X<X:X%XO.9.V.R O.-.S.C.w , a f.2 9.a 9.1 ",
"< 9.2 a t.h.1 < k v.V ` [ f < 6.> XX-X:X,X>X&XXX%X%X+X+XQ.S.^ 6.6.< , 6.i [ [ @.@.2.:.{.R.#X%X..9.V.,.#.-.<.<.! 1 , i.p.{ a 8.1 ",
"2 9.2 a t.z.2 1 z _.Q.:.O.' Z 2 6.t J.-X:X>X>X>X:X>X>X:X;X*X^.g < , 6.; N o.+X-X:X:X=X&X#X&X@XO.8.V.,.+.:.+X.Xl 1 < z.t.a 1 8.1 ",
"< 9.2 7.7.a.; 1 N @X.X:.X.Q ' a < 9.2 I .X-X;X:X:X>X:X:X-X@XQ.s 2 6.< t ] (.:X,X<X<X<X<X<X:X.X} 6.J.*...&.).).C 1 1 k.8.6.1 8.1 ",
"1 8.1 8.{ f.1 1 ~ 5.:...*.+.V { { ; 6.9.i J G. X+X%X@X XV.D 2 9.6.< 6.6.h @X:X<X<X<X<X<X<X:XK.9.| ~.@.( ..Y M 9 1 1 g.7.w.a 7.1 ",
"1 9.; < e.z.< 1 ! ~.%X5.K 9.J.) 6.! H > 7.q.9.a ' ' 2 a 7.9.6.t k e 6.{ 8.V.-X,X<X<X<X<X,X-XR 9.` Q.9.d _ T %.p 1 < z.q., ; 8.1 ",
"1 9.2 ' t.h.< , / +X-XT.Y 9.C.L 9.2 ] I L f 1 a 6.6.6.2 p g L Y ] h r 8.} } ~.:X,X<X<X<X>X%XO.9.I V.9.h P E.Z./ , < h.r.a 1 8.1 ",
"1 9.a a r.h.< * }  X*X^.-.+.*.J.} 8.m ,.] -.I V m k z L P @. .%.F.E.c.} { 8.) .X:X>X,X,X:XG.8.8.J.-.[ _ n.E.E.7.& 1 h.r.a 1 9.1 ",
"1 9.1 a r.h.1 # 9.*.3.5.-.J 9.Q.` 9.X..X%X/.I.;.) ....*.,.n.!.).`.).Q.A 8.{ 8.$.^.%X;X:X%XX.9.*.J.0.f | &.M.M.0.# < h.r.a 2 8.1 ",
"< 8.; , q.k.1 + } ) .X-X].Y 9.R J.} 9.W -X-X;X+X).).).).).`.`.`.`.`.).A.u 7.{ 8.8.>.`.@XW 8.| J.Y 8.~ P n.>.} } + 1 h.q.< ; 7.1 ",
"< 8.7.e.7.k.1 @ f 0.XX-X%X@.J 0.J.R 9.| XX-X:X-X}.`.`.`.`.`.}.`.`.`.`.!.v 7.{ 6.8.B E.C.| 8.K Q.0.%.X.E.E.v.0.q @ 1 h.7.t.{ 7.1 ",
"1 8.; 1 9.h.2 @ c q.R +XY.@.=.O.` XX) 9.O.XX-X-X`.`.`.`.`.`.}.}.`.`.`.).v.7.8.q./ m.c. .9._ ~.2.O.=.;.m.A.S q.z 6 1 k.q.1 , 8.1 ",
"1 8.1 a r.z.i 6 Z.-.0._ Y.+X5.K 9.I J.[ 0.O.K. X`.`.`.`.`.`.}.OXOXOXoX`.E.X.! g M n } q.O.D.E 9.Y 1.P.X.S 0.! x + 2 k.r.2 1 8.1 ",
"1 8.1 a r.z.2 6 S.Q.8.*.*X-X+X2.J w.B.H.[ 9.| H A.).).`.}.+X=X:X:X;X-X@X).E.A.m.C 7.9.o.H.L.w.K -.+XoXv.] 9.n x + 2 z.e.a 2 0.1 ",
"1 9.i a r.z.1 6 S..XK 0.G.*XXX2.-.^ 0.L.S.) 9.8.) N A.!.oX-X>X,X,X<X;X-XoXE.G / 8.q./ D.L.0._ -.4.=X*XV 0.D Z.x O 2 z.r.a 1 8.1 ",
"1 8.< < w.k.2 6 m @.[ a #.W 3. X].1._ q.J c.h 8.9.8. .F F.oX%X%X$X@X+X^.T  .8.q.7.g v.Y w.^ 1.U.<.[.Q.O.{ o...9 O 2 h.e.< < 9.1 ",
"1 7.1 8.8.k.1 $ ' W V...6.]  X-X-XU.-.~ 0./ M N ( 7.9.0.8.8.O.` @...7.9.9.9.8.! n M ) q.D -.U..X.XE } 7.Q V P { $ 1 h.7.8.2 7.1 ",
"1 7.2 8.7.g.1 & ) S.+.h { 8.*.+X%X5.W X.g o.0.S x.v D X.} 8.9.8.9.9.9.7.X.T x.x.g 0.O.S @.@.^..X!.&.8.2 f O.v._ & 1 g.7.9.2 7.1 ",
"1 7., , q.f.< * ( K 8.R / W 0.-.4.Y.%X~.;.^ u 8.q.( b A.!.H.V.W L.V.S.~.Q.b._ 0.0.! ( -.A.H.2.Z._ q.L ] K 8.J / * < f.q., , 7.1 ",
"1 { , , 7.a., % ] V.X.P.:.@XP.9.| J.`.).I.*.X.~ g } q.0.X.;.R R R R *.@.0.q.o.q ^ ..[ A.!.!.P } 9.E !.;.P ..B ] % , a.7., , { 1 ",
"= ; = = , 8.* o 6.S.(.T.*X/.-.' 7.| N Z.@._.!.M.o._ h g &.X.+.0.0.O.X.*.F F _ X.M.E.P E A.P O.{ ' _ G.`.P.P.x.{ o * 7., = = , * ",
"r.u.u.u.a.z.7.  1 ^ +X:X%X3.V f ] 2 9.] A !.).m.&.Z.M.&.X.:.:.-.-.;.;.2.1.M.b.&.E.!.A./ ! q.a ] d B.;.+X%X^.f 1   7.z.a.u.y.u.r.",
"r.t.t.t.u.d.2X8.$ 2 L +X.X-. .9.b { J 0.8.$.v.>.P !.!.,.M.`.oX<.Q.+X+X-.!.).E.X.m.v.$.9.0.g { B.9.) -..X+XA 2 o 8.2Xd.i.t.t.t.r.",
"q.q.q.q.w.y.s.2X7.& 2 D Q.H  .h Z.} !.Q.&.8.8.} A v.Z.%.n.!.).<.H..X_.-.v.Z.v.!  .0.8.^ v.S.{ Q.Y ` L.Q.Z 2 & 8.2Xs.y.w.q.q.q.q.",
"q.8.q.q.q.w.t.s.2X8.o 2 i ! s 0 ] / Z.Z.c.w e p 8.7./ p 0 5 l u 5 l k r r y 8.9.p r x x.x.M !  .D d ! { 2 o 8.2Xs.y.q.q.q.q.8.q.",
"9.9.9.9.q.q.w.t.a.2X7.  % ; , , & + 6 6 @ + + O o & ; 1 1 1 < 1 < 1 1 1 1 = & o O + @ @ @ @ O & , , = o X 8.2Xs.t.q.q.8.9.9.9.9.",
"9.9.9.9.9.9.9.w.t.d.2X7.& ; < < 1 2 a , a 2 1 1 1 , 1 < < 1 1 1 1 1 1 < < 1 1 1 1 1 2 2 a 2 1 < < , ; * 7.3Xs.t.w.q.q.9.9.9.9.9.",
"9.9.9.9.9.9.q.0.w.t.d.|.8.a.f.f.k.|.d.d.|.h.h.h.g.k.k.h.h.h.k.k.k.k.h.g.h.g.g.h.h.h.z.z.1Xa.d.z.h.f.a.8.h.s.y.w.q.q.9.9.9.9.9.9.",
"9.9.9.9.9.9.9.9.q.w.i.a., 6.w.7.8.t.a i.r.q.7.q.r.r.r.q.7.8.e.r.r.e.8.7.q.r.r.r.w.7.w.y.1 w.i.8.6.w.7.< a.i.w.9.9.8.8.9.9.9.0.9.",
"8.9.0.8.9.9.9.9.q.q.t.u.= < , 9.q.< 8.{ a 1 r.< a a a ; e.6.1 a a 2 6.e., a a a < r.2 { 9.7.1 8.8., , = u.t.q.9.9.9.0.9.9.9.9.9.",
"q.0.9.9.0.9.9.9.8.q.t.u.* , , 1 1 a a a 2 , { ; 1 i 2 ; a 1 1 1 1 1 , a ; a i 1 ; 7., a ' 2 1 2 2 , , = y.t.w.0.9.9.9.9.9.9.9.9.",
"9.0.9.9.9.9.9.9.q.q.t.u., { 8.7.7.9.8.8.q.8.7.7.8.8.9.8.7.7.8.8.8.9.7.7.8.8.8.8.8.6.8.9.9.9.8.7.7.6.6., i.t.w.9.9.9.9.9.9.9.9.0.",
"9.9.9.9.9.9.9.8.q.q.r.r.= < 1 1 1 1 1 1 1 1 1 1 1 1 1 1 1 1 1 1 1 1 1 1 1 1 1 1 1 1 < 2 < 2 1 1 2 1 < = r.r.q.9.9.9.9.9.9.9.0.9."
};
