/* XPM */
static char *_8f8784cab23444bff81dc71e38b4507N9v0UnATBpMbYepi[] = {
/* columns rows colors chars-per-pixel */
"64 64 92 1 ",
"  c #020202",
". c #080707",
"X c #080807",
"o c #0C0C0C",
"O c #100F0E",
"+ c #11100F",
"@ c #141414",
"# c #181716",
"$ c #191817",
"% c #1B1B1B",
"& c #201F1E",
"* c #22201F",
"= c #242322",
"- c #282725",
"; c #2A2927",
": c #2D2C2A",
"> c #302E2C",
", c #34312E",
"< c #353432",
"1 c #393633",
"2 c #3C3936",
"3 c #3D3C3A",
"4 c #413E3B",
"5 c #44413E",
"6 c #414141",
"7 c #464340",
"8 c #454442",
"9 c #474542",
"0 c #464543",
"q c gray28",
"w c #4A4743",
"e c #484745",
"r c #4A4744",
"t c #4A4844",
"y c #4B4845",
"u c #4C4947",
"i c #4C4A46",
"p c #4D4A46",
"a c #4E4B47",
"s c #484848",
"d c #494949",
"f c gray29",
"g c #4B4B4B",
"h c #4E4C48",
"j c #4F4C48",
"k c #504D49",
"l c #524F4B",
"z c #514F4C",
"x c #524F4C",
"c c #52504C",
"v c #54514D",
"b c #55534F",
"n c #555350",
"m c #565450",
"M c #575551",
"N c #585551",
"B c #585552",
"V c #595753",
"C c #5A5754",
"Z c #5B5855",
"A c #5C5956",
"S c #5D5A57",
"D c #5D5B58",
"F c #5F5C59",
"G c #615E5B",
"H c #615F5B",
"J c #62605D",
"K c #63615E",
"L c #656360",
"P c #696764",
"I c #6B6865",
"U c #6B6966",
"Y c #6E6C69",
"T c #6F6C6A",
"R c #6F6D6A",
"E c #716F6C",
"W c #777572",
"Q c #797775",
"! c #7A7875",
"~ c #7A7876",
"^ c #7B7876",
"/ c #7B7976",
"( c #7C7977",
") c #7C7A77",
"_ c #7C7A78",
"` c #7D7B78",
"' c #7E7C79",
"] c #7E7C7A",
"[ c #817F7C",
"{ c #8B8986",
"} c #8B8987",
"| c #8B8A87",
/* pixels */
"hhhhhhhhhkVM,12222122122122222221222222212222112221,VVkahhhhhhhh",
"hhhhhhhhkcCG,5rwwakaaawwjaaaj5aaaaj5jaaajwwaaaawww5,GCxahhhhhhhh",
"hhhhhhhhkkSG><,221422>5,222,51222115,222,4,22214211>GSkkhhhhhhhh",
"hhhhhhhahxSG><1hh14442S1555,m525525v,5551V44542ww,1>GSkkhhhhhhhh",
"hhhhhhhkkvGP,5varVmVCgqgVmVx5jvVmbj5vVbVvwaVVMnrwk51IKvkhahhhhhh",
"hhhhhhakvSE[aPW^/Q/_____^^^(^^((((!W((Y[//Q____Q(WIw[EGkkkhhhhhh",
"hhhhhkkvGY{w:,122233333<22111111111112,44244333321,>y{YSvkahhhhh",
"hhhhhkvSE{a**-;-========&&;,12221441,;**&=======-;=*&a{ESvkkhhhh",
"khgggnDY{a=<63<<6:=====<6g63<:-:;%*;5rhw<===%%:6<<36<=f{ESckkhkh",
"xccgnFY{a=3<%%=$#6#=:6s3<%%=3<<:*XX$=@%:ah4=@.3%&=o+:3=f{YDncxck",
"CZZDKE}f*3:%%36r@6<30<:<363<<%%><@ -%%%:=%3c3o3@r6<  =6&a{EKCCSV",
"MHDKU]f%<>%$%:%:>3633fgq3366hf3><2>2%@%3%@X=7h3::&:o .:<%y]IGGGV",
",,>><f:&6%@@%-<<333g3:@o=<:==<3f3=:<=<<3%@o1 &a4<<:o  O6&>a,>>,,",
"15,1qU<=3@3<=%<6<06:.<;>%-6ga52:773676:=<>>@ X%rq%O=:<o<-,Iw1,51",
"2w<1fQ<:<=3%<<6<f2@1=>$<x3=%@@@@%<f:%33c3=2=@%:-30.<O<=::1Qk11w2",
"1r2hf_<:<%g:36<f<%<:5:h<@ O=<5rw05<f=:=&1k<;<;<%@66<=f@:;1(5a2w2",
"2w2aw/2=6##-336<%%<%5r@ @2yhharr0q63663%o&5w=4%%@os6=XX3=3(rk2r2",
"2a12MQ4*>3636<0:%<=g:<:1aaw<=%%@@+$=q<6q2##<k*1#@<$q333:%3_n11a2",
"2a24V/1=&@%0:f--6=g= =w55=@#%%@@o.oo>q-3ar:o=k&,<. %k@ @*3_Z44h1",
"2a24V[2=$o33<q%<=g:@>a5w@@%%%%o     @g:%,aa: =k$>   <4X@*4[La4k3",
"2j24n[2*@=0%6<:=r>@<kw&24#%%%@.      36o:@rh: ;w%= %,a&@&1G315k3",
"2w<2aQ4*@7<@f<<14@:hw%#%h<@%%%o  @   :f+<.@wa= 31:<% ;w@&4[V71h2",
"2w5Vw(2&=f:&f<=h@%yy&@%#:v=%%&%%%&o  &f%<O@%aa@oh%>  .k=&2(rZ7r1",
"1a,1k(2&36:=f%6; 5k:$%%%@3f%%%%%&%@  %h=<OOO-k4.:5-o  12&2(x1>a2",
"2a24m(1*a*1>q=fo&k3+#%$O.@h6%%@@%&%@o%g=<  oO3h%Xj%,:,;a&2/V41a1",
"2a24V(1-w%<=f3, 5h#o%%@   -v<X   %=%%%f%<   o%h6 ,,,o  w-1(m44a2",
"2j44VQ1,<@<&f3##k4  oo.   @3v=   +&%o:g@<   o+3h@@a=O  1,1(V44a2",
"2w,,v/113:3=q<o>k*       .%%hho  o%%X36@:   O+:h; a%= .;21/v><a2",
"2w5vwQ14%O:3<5o3ao       @%%:c7XX%%%@s<&=..o@++a4 4*2,>>21Qwm5w2",
"2w15w(22#.%<:f=qw     o2..o$%3h1@%%%:g%<@@+@@@ wj >,:  %42(aw1w2",
"2a22v(21@O@333333     5caw1<:-55:%@%s3+:o@@ooo 4ao=4: .%12[Z24a4",
"2a44V(22><>36:g<1     =a<35yah47q6<<6*:+ o.    2aO&4:O#%14Q2j4a2",
"2a24V/21&@@>3=:0>      o    oo=q6<:f:3<31<>-%O 1ko*5>;,,1<KKw4a2",
"2a44C[42%@@:3<@3f:X         ..o-3<q:@<XX    .o 3jo*4: o%11/S42a1",
"2h2wwU,2@X :<<<4<g<#        ..o%363-<o         5w.:1<o@&22_a5<r2",
"2r2a5W22::>3=3@43:qf<#XX   ..%<f6<66&         .a5 2:3=%=22(wV5w2",
"2h<1V(12=. ;%a >q&@<fgq3<<<30gf:#:67qo        %k, a*1:<221Qv,,a2",
"2k44V_1<,  @&k+$f3<#o=<66766<%o%2=>a83        2a$Ok==%#<,1(m52a2",
"2a44n(1;r  X>2;.r0O=<:%X@@@@%:<:###4rr>      oaw.;4<%%ow:1(V44a2",
"1a24V/2&a-,:,&a -f<  o%:<3<:=%$$%%%%r7h=..   ,k- a-42*Of*2WV42a1",
"2a,1k_2&4,  @*w*Xra@   o#%#$$%%$%#$#>r4yh-+X@aw.&y;=%:36*2/k1,a1",
"1w7my^2&-a   ,*wX%h7.  o#%%%%%%%#%%#@w77a#@@yk& y=2%%#y;*2(wV5w2",
"2w,2k(2&@a& %1=5> <h2. o#%%%#%%%%%%%@ahf,@@3k, >5=,@%;f$&2^j2,a1",
"2a24V(4&@:r<% >#k%.1h2oo#%%%%%#@@@#@#1:-%%4k4 %k$:%3=r,=*4(V52a2",
"2a24m(4&#o0-   ,*k@.3aw%@%%%@@o.XXoO@###=5a2o@k&< O$3y%-=4(V42j2",
"2a24V(4&# %go o1:;a@o<ka<%@@O.      o@%<ak1o@w;,*  $f=$==2]V42a2",
"2a11v(2&%<134@,.@;:a&O-wha2=o      o%1hkw;@%a;;@;=X5422-=2(v21a2",
"2w2ah(2&3@o<w5   @,;k1@#:rhaa721<37sxkr:@@<h&>%oo%58<@@w*2/wa2w1",
"2w2aw/1-:o3%3f:  :=1=5y;@@=<7aakaak5,%+@-a5=<<++o,y2=3O::<Q0s3y2",
"2w,1j/1::*6%<@f:=% o,:;ry>$o .o@@O.  +>aw;:<$@3o,h%<&s=::<Qg<<y2",
"151<wI,-<@<@: @h3Xo@*>1:-4ky1;=&&&;1ak3-:13@$@%6g%o:%<@<:<Ps<<5<",
"><:>,j>*5XX% O><77%@2o@*4<-*:<47541;%=<2=@=:@%77<<$o%%@6=:s<,,,,",
"VGGGI[w&3=XX >O=<6h3*@@$1@=<1>:>>::2:=%<##@<:k3<&O:oo@=3*w`IGGGV",
"mGVGGE{y=3@X >>h+3%ha;@:&%$=&o -.  ,+@@2@#:fy=3og>: X%6=h{EKZVSb",
"kklkvGI{q;3%o%<-o6.X;aw5%@$<%@O:@oO<@%@:1aa:@+3.&<@o%6=s{YSvvvch",
"aalajvGI}s=38:==<:@@#&:5hw13*=%<%%&>:1wh4:@%%%<<%&-33=f{YSvjjjjh",
"hhhajkkGT}q&=:<<-&&******;,2421211222<;=****=**;<<,=%a{IZckhhhhh",
"hhhaakkxZT}q:<11144,444221111222221111112244442111,:y{YSvjkhhhhh",
"hhakakkkxDE]hPW~[[EE[((((/W((/(((//QQ(([(((([UE(!WUw]EGvjhhhhhhh",
"hhkakaakgnJU17xq5G5GVj5vVVVvwwvVVMawvMvVcwcG2kGhyjw<UJvkkhhhhhhh",
"hhhhjjjaxxmG>1<hj1a544m1444<v524425m,4441V44kw2hy11>GSkkhhhhhhhh",
"hhhhyjaajxmH>><424444,51414,41244215,424,51444223,<>GSkjhhhhhhhh",
"hhhhjjjkklHH<4rwwaaa5j5aaaaawwajwwwwaaaaawahajwwww5,GVcjhhhhhhhh",
"hhhhjjjyklZm><4122241221222122222222112222122222221,VVcjhhhhhhhh"
};
