/* XPM */
static char *_1825a773e3f4e609b97fe3c9e790bf28u0EIPHQrdHXSaRs[] = {
/* columns rows colors chars-per-pixel */
"64 64 54 1 ",
"  c #5E594C",
". c #645E51",
"X c #666152",
"o c #6B6556",
"O c #6D6758",
"+ c #6F6959",
"@ c #736D5C",
"# c #76705F",
"$ c #756F60",
"% c #777160",
"& c #7B7462",
"* c #7B7463",
"= c #7B7563",
"- c #7C7562",
"; c #7D7763",
": c #797464",
"> c #7B7464",
", c #7B7564",
"< c #7C7665",
"1 c #7D7666",
"2 c #7D7767",
"3 c #7F7967",
"4 c #7E7868",
"5 c #7F7A68",
"6 c #7F7A69",
"7 c #807966",
"8 c #807967",
"9 c #817A67",
"0 c #817B67",
"q c #807B68",
"w c #827B68",
"e c #817C68",
"r c #837D68",
"t c #837D6B",
"y c #847E6A",
"u c #857F6B",
"i c #827C6C",
"p c #837E6C",
"a c #857F6C",
"s c #847E6D",
"d c #857F6E",
"f c #857F6F",
"g c #85806C",
"h c #85806D",
"j c #86806C",
"k c #88826F",
"l c #868070",
"z c #888270",
"x c #888372",
"c c #898473",
"v c #8B8573",
"b c #8B8675",
"n c #8C8676",
"m c #8D8876",
/* pixels */
"@@@@=,epepsueuu<,%@@@+o@$@@qffwsqfssq0<*qqsq<-ss-0<73====###<=#%",
"@@@@@#%,q5euqqqqe<@+oo@$%@@qffw000fst0q<<<q%<qstt<**-3--=-#=335,",
"<%%@#@@@@-<000qsp,+.Xo@%-$$qsfiq0>qstuqseu%=0<sq0-----33-=-=,53<",
"<<%%@@+o$=@%<0qsl%X.o@$%%<<qqqqq0q<qssufkq<qq<qq0770;--;33330<55",
"-=%#@Oo,nzk*@%0qlo .o,<<<000<q8qqe0<qsssu,qqq-<s0000--;;7<7q0q5,",
"-%=@@-pjsusssq<0%o+XO<,%%<<qqqq7q<7<<uus03sue0-q00000-;;*<<7qqq<",
"-%@@-ku3s00qusszlss<+%<%%%-0q7qq78-q<<u0<uuq0q-e00<---3;*07qqqq<",
"<##=ju3300000qqujcnz@%%%%%%qq747480q<-q-3uqu00000<<7-3-;*00qssqq",
"0%jser-r007400qqqskn<@%%>48qq88808400%0<su00000300*000-*07000uqi",
"0<uuse--0<<0uqssfeszn@$,88qiqq88<qe<q3%qsseq000-0<000q07*0000ssu",
"q-see00-70<0uiusqssszs%<8qqsqiq848qq0033suqe000-000qqet0w000qqqu",
"qqu0q-@<**00qsutsssffn<5q8sq8q8807q7003<uu0u000<000qqs0*0000q00u",
"0euq0--0%@7tsssuppisii8848qqiq88<qqqqqq<eu0qu3su0qqutt0000q0uuqt",
"<u00q--ut<qtsq<5q554qi8844iqqqiquiqqqsq<kuueuss-0sustutt0000qqt0",
"-q00q0*007q0<q<qq4>4f4qq<8448iqqs5>5qssqksu00%@O$zzsffu0t7t0q0t0",
"000000-0q<<qq<$<$$$>>>ifqq>q7qssq@oo+@<<ksuu0Oo.O@qzzssstwq0t0u0",
"0-0---#0w<--<%<$@@@@O@@5ittisi07-O.o+OO.@@#w>qsf@.o@<fzfssesuuej",
"%<-##@#--%#-@@++O@OO+@$>wu7>@@+@@#@@@@@O@OOo@qq0s$oo@4sfjsss3-3q",
"suur0que#@@@@@@@@@@o@@@$w7++o.Oo-00ssuu<ks*@@<00qi$oO$$$5pppOesu",
"uur00-qq*@@@<suq@@@@+++@@+o.o++<qq00uksunvnsuft-qiq$oo@$+@$@qese",
"ue0-00000#@@%<<00%@@$@ooo.O@@%q0q0<0qqqqskkjkszu<<q<@@oo+>30q0ur",
"uq0070q707@@#**>7<@@$$+o++@@*sq0<<<00u<fjjjjsuusu<qu<@@O5zzuu0rr",
"00000**0<**@+#%<>>%@@@@++++<qq0<<<70t<quqejussuuss<qps>@iq0errrr",
"uu0000707000@@<-**<@@@$@@@@st7*777q5q%<qq30e7tqsszz<qi@@5q0=000r",
"uu00q00<00<0-@@-**%7<$>#@%szq0<<000%<07qqqqq7q7<=3<%@%%%ss<qu00q",
"uru0qq000*-*t%%%***<<>$@@@susq00<$@<q0qqqqq077q0==3,q0<<qqsuu0su",
"ruu00q0000<0q<@%<-*<<7%++O%0<00%%%<08qq7<0<<<7<<<=,=<s<>qiqqeuus",
"suue000<*<<0q0<%$--*>04++@0q<<**0qt0q7q70<q,q<<*<@-470<@0iqsuuus",
"uujuue000-<000q><<--<0<@+@fqqq707q0tqq88qqq033==@@<055<@-qq00suu",
"ujskuqqq000<qqu><<<-<<%O+%ssqq0stiqq888q<35453%@#-=-0qq@@$0<-eus",
"uuue000q0<00qqs><<<<<<<@+>issqst0tqq88q<<<,,,@@-<3==<sp@@+%<%ueu",
"eq0<00000000qqs%-<<<<0<@o$<sqqsu0tsqqqq<<,%%%@$,333=55p%o@%@@%q0",
"<00*<qqq7770tqs%<<<>>48$+%qsqqfssitt0q<74>>$$$%<0<7<*00@%nmq@O@@",
"%%@#%<iqq7<0tqs@><>>44q%+@<q00qq77qqq>>8<%$@$$%<<07<*<>sczzzzu0<",
"nn>@%<<qi<<00sf@%4qiqqi>@+qi><<q<<*<<%%%%$@O$>><<<<0%>uisuuujzzc",
"vz7++@@@>qw<<q7>iqiqqqq>+.<q<*%%%<<-%>%@@+oo$>><00<4*00tsuqqjjzz",
"kz0@O+++@$q%qqqqqqqqq0>$$@@$<@%@@@%><@+O@@OO$<-<<7<qq0quuuquuusj",
"qsu@@+oooo@<sqqqq<88<>iszzfss%@@@<sssf>@@O@O@@$<<<qqi7qsqq0q0jje",
"qks%@+O+O+$sfqqqqq88<qqisssqq48@@*qqqq<q$@@@@O@-0qqus0qqq<@%%esq",
"uuq%@@%@@@fsqqqqqq<><qsqqsiqqfqz@@<<qq7*q070@O@q<kksuuqqu03quu0e",
"<<<*@@%$<szsseuqqq84<qqfsqs<usssf>@%<00<<000%@O<<0suusq0u0003q03",
"*%$0%*%<qnfssqus44>><qqfwsq<qq0uqn<@-<<00*<qu@X@0skstutq0u30--==",
"#%0%@@<qjzueussq>q8q>08sst>0sw0qqsqO--*0<000s@XX%kusst0q0u-3q-@<",
"<<%@@@@<ssusqsse%fis%-<fsqqtqtsqqs7O#-*-<<<7q@XX0susuuuq003-0<--",
"0>@o@OO#zssupp<$@ff><<8fsqtwqsqqqz<@*-*00<*00<O@ksussuuuq750-===",
"<+oX@O@<nfqfpi>o@$$><qqq0wsstqiqqk<O@*7w707<0<$zsuuustsuq7q4<-=3",
"@oo.@@@szqqp5q>$++>>448i<sffsqqqqzq+@@@#*0<7<00ssesussqqq8q0%<,,",
"oooX@@%jqsf<<<>$$+O$$>4q<0ffsq7qqz<+O@O#<q0<<<00useussq8<<<<55<+",
".Oooo@7iqsf%%%%%%%+O$$%>78iiqq77tu@.O@@$*t<7<<qqqqsqt0%%*%>%$@@X",
"OO@Oo+%iqs7%@%%@@+oooo+$$>i8q8740f#.X#@%*qq<77t0quuq7<%@$%*@@OoO",
"@#@@>7@7fq>@%%%@@@+@$$+$$>s8qq770s0OX@@@#0q7<70tquuq0q><%@O.OOOO",
"@%-%<sq>q>%*%%%<>>%%%%++@%i88q87wf0O+@@@#<qw<q00qqqisq<qs<@OO@@@",
"@@%@>7qt7<877$$>%#@#%@@%++>q8qq8us@O@$@@#-00<qttq0qttwtqq<%$@@@@",
"-ss7@sqqqqiu7>>%%@@@%%%%@+@q1q8qs@.@7<$O%*<77qsqq07qtsfq<q<@@@%%",
"us0sq%47q<-%>%><>>%>8>%%%@o>>qqs#@@004u$@@<77<s0q00q9tu7<qepssjs",
"007qs8@>%%%<*<<q0sfit<%%%@$fq4q7<<--qqqu@o$<qqttqt00tff->qsessuu",
"04q<qq<$%*<07qq0qqssst7<q<<s0<<<0*77q88i8$o><suq0tqqqssq<<qqqq8q",
"<7q7qqq8<<<<7<q<7q7qqissqw%<q07<<0qqiq8qq8%@%zs0wqqqtqq70q7q8q88",
"0<84888<00<048qqq770qtt0qqq%7<0q0qqqiqqqqqi7$sfuwitsq77<ss0<qqi8",
"qqq888q><000q7qqq7q0qqwifs<@qsq<00qq8qqi8q8qq<qtufsq<<<qqqq<$8iq",
"iqqi8q8q7qq0>%qsuqtfsfssq<+@sqss<8qiqqs8iqqqu<%<sq%%<usqqquq$$qi",
">q7qqqi8qqqsq@@>ffsf7%@+@+@%suqqsiqqsqq8qq0qq<*<@#*quqqq7ii<$$%%",
"@%>478qq0q0qsu#O@<qq@@+@ooo%sfqqqsi7qs8$qqqs<*00##qfusussq%>@$>$",
"@@$%7qssqqtqusq%@+%@@+$++@+0fssiquqq<0%>qqqe->0f*<70<%%%<@@@$@@$"
};
