/* XPM */
static char *_6475f68b1db4bf7ace9b4e2d59fe4f4xpEI5uvar02iqMRs[] = {
/* columns rows colors chars-per-pixel */
"64 64 73 1 ",
"  c #32312C",
". c #3D3B35",
"X c #403E37",
"o c #403E38",
"O c #45433C",
"+ c #48463E",
"@ c #494740",
"# c #4C4A43",
"$ c #514E46",
"% c #524F49",
"& c #525047",
"* c #55534A",
"= c #59564D",
"- c #5B594F",
"; c #5E5B52",
": c #615E55",
"> c #636157",
", c #666359",
"< c #6A665C",
"1 c #6D6A5E",
"2 c #6D6A5F",
"3 c #6F6C5F",
"4 c #6C6960",
"5 c #6D6A61",
"6 c #6F6B60",
"7 c #6E6B62",
"8 c #6F6C60",
"9 c #6F6C62",
"0 c #706C61",
"q c #716E61",
"w c #706C63",
"e c #716E62",
"r c #736F63",
"t c #716D64",
"y c #726E64",
"u c #726E65",
"i c #736F65",
"p c #736F66",
"a c #737063",
"s c #737065",
"d c #747164",
"f c #757265",
"g c #747067",
"h c #747167",
"j c #757267",
"k c #777367",
"l c #777466",
"z c #787567",
"x c #767268",
"c c #777368",
"v c #777468",
"b c #787469",
"n c #797668",
"m c #7B7769",
"M c #79766A",
"N c #7B776B",
"B c #7B7869",
"V c #7B786B",
"C c #7D796B",
"Z c #7C796C",
"A c #7E7B6C",
"S c #7F7B6E",
"D c #7F7C6E",
"F c #807C6D",
"G c #807C6E",
"H c #827E6F",
"J c #827E70",
"K c #827E71",
"L c #848071",
"P c #858172",
"I c #888473",
"U c #888474",
"Y c #8A8676",
/* pixels */
"#.=;:;;;=$#O...o............O#=>=:;;=**=;gfssssy<;OOOXO+$&****.O",
"#efffffyfepyyeee62622<<<<<4esssg>sfsysfs8y6882,6fbl2eeeeyffsff8+",
"=ssfffyfffffffffffffsxfxyxgsxgsg4sffvffvxvvseyy688fvbBbbbbllfsa*",
"-fffffbffxfffffffzfzvbVvvvvvvbvVVDDKKKDKKKKADAAvADDKKKFDFFFDBse>",
"#fbAbzfffaaaffffazaabff88sVsss8sxxvxfvxbvxfsbxxyxvxfvyfxbbbBBff6",
"@yFFzeee33ee666f2<2<2<<>6Vs8626466668e66s986y99yy6988yeys6eyfFx6",
"#azIl336e2e3e86ez<<2e<:2vvfe6886647y6y67yy84y886y88989yy823eBLV2",
"#efFzee2e2822888effzxf<lseye888y66687976y94<668y6888886y832eDIV2",
"*fkbz62032223e33888e888ey889y9y888644666y86,897y89888ee6e38sKL2&",
";dfBze0e32333286388883828889888989966689gg7,49sy9888e266esfAKf2*",
";rfBbe02223e6ee233e8888888888988866444yyyxy<<9x98988y8yeefeeBfe&",
"<efBzr2033e3332e3e8888886888y8989868668y8gy4<ys9988sy6yfe23lbfe$",
"2edf<ee02e8e3e23888e8888468889898998989y9yy1<6v689yseff6<2fbbfp$",
">eff6fe03e23e22e888e38386688848866688689yyy6<8ggyyvsf6<e6efffff$",
":ffbABflfe336eee38881as86866666668899888yxvy<94yxbvs<26eyeeffyf*",
":fffbbfzbbzaaaeesas118sy848666868998ys8f88yy<<<6xvs6<2<282eeff0$",
":ysxxyysyfvAx8662eve118ey8688y8ye62ed<*r2<<2ey66bs<8<86ysa8yfs8#",
"<ysxs822646fve6616sy6118yy88889866eeemrp6eeffvysvy6<4yysff6esfs#",
"<yfys62684y9bvff8886688yff88889963e2e2eeeyffxbffx<<<yyysss2sxsy#",
">ysxs66444<7yfbfyyf6468<;sy68888332e2eeeafseeesfy<<4ss88y11sssy#",
";gggy76444<449vgfsyy46yx8x868888e23eeeereeee3238646ssyy61468ssy#",
"=sgg844,><4<4yvgyy8668ssfy8e88862e32eeree3222233648s9ys98889ss2*",
"=sgggg74<444<8gvy7sfysssfxvfsyee0eeeeee32<223223188s9ys88184gg<*",
"=ggxgy964<447;<hsyvyfsxfvffffse82e30e36<<eeesasa8sss98ys8648gg8*",
"=sggp99pp99141;4yyyyee9ep8888a86kbedfee0esffa8e86y9y8889yy6ssgy#",
"=gggh9pehp94774>y99ypp998s4488ssefbbeee0asaesaa8<6664sss884ysg4=",
"*pghhe9pppp99977446<19ppy848svs8yebzey2essa8ae32<68846889<1ygg8*",
"%9hhhpppphpggg9uyy7y939hvv99lsasfpkkffyyssssae826syy988814yss9y&",
";gpphhhhhhghhhhhggggggghgvvxgxssffsffxyxsssssssssgsgssssssssvs8#",
";9pphhhhhhpghhhggggghhgsys9sssssfsfsyfsfssslfsssssss88gsssvsss4#",
"**99848hs8979999869yspp9y68sxaslsseyyyy811,;;=&%#######;ssss1>#;",
".@@@###*%@@......@#%%######*;>;;=*$#+OO.....@##;;;&;;-*+O;=##O@O",
"<4<::;;;=*>2,::,>;*##@#;-;;-#O+=#$;<<22<,2eyffgyyy6yy7ggg;=;,4;4",
"yggxgxfys3sfasssse86yeffffssa$-;=ssysfs8eyfffy<<,<4<4:6gbKKg9xgg",
"ggvvbVvxslffsfffsssfesyysfsfa8-#6svAAbVbBADxe6xbbxxxxxKUPKYYYxgg",
"vvbAKUUUDDBbzVbVvlfsfyysssasss>.8xDULLLIUKFDAAGAKKKKKKSAbVxxPPDb",
"gygsxxvvVFBbVbbllffeyfyee8ysse, yfDLAsffvDvxyyvxxxxxb9797644bxbg",
"69688668eezbvvbVvvfyf62828ssfe2.8sBKv6668xy84666ye9yy8444447ggg9",
"y999xy66e03eyffvbbbfbe6fe2effs,.6<AK86166s8y<<8y8989y966467gg79g",
"9y99866622e0688szBbbbffy222esf>.>yADe64622<4<yv998999yyy7yg54777",
"99g9766646828ey8eefbbVle2<,2sse+;fDKs88,6886yx888899469gg996787y",
"9y9664444848e8y83288fbBB86<2sfs=;fDKs6238866x98999s9668869976776",
"9864466686148868888803abFf0efff>*lFLs22y64ssy8788y6y966497666y67",
"9y76986yy8668888882222esbBbffyf<#2FDl82e44ss88y666699466969y7769",
"99yy9989y66688e882222226efAFBd<<$eBFDe<24yfe68y64484y6y8766y77w7",
"8899986668668838333203s633ebLze=*sbFBe0028f8e69664s,,y6666766660",
"9866967988688e228838ea8ee2abFBe==sfDbye2<es8666888sfbb77666y7670",
"98898666886888288882a88ee23bFbe:$afBfe206se88y88888yb;y967yy0076",
"98y9864644618112333e333re23dGbe6OefBy2608y888y6098yyb>,g66699998",
"868y888646e8811332aee33er62dGbfe.0fbf66eyy88ey8e89886ss8468y9888",
"8886yyy8888e3<3eede323eee23lGGbe.<fbf6eeye886ye3886486<46x998y66",
"8686888y888s3<<33d33e22eee3dBBmd.,ybxyee8e68863664688989yy99yy66",
"888688883a3ae3<33d332e2e666dBBme.<fbbffeys68666246668ssbvssff6y6",
"8y868888333aa3,333d332ee223zGFbf.,fbBVfesfes6ee31184sv9866vs6<48",
"se8888883e3es3<333d33e3d222eBGmd.>slVbf8xf8seed3<68yVy6<6y841<,6",
"48e8y8883333333<2dd332edde2emBb3.3fsbbyybf8spe2>,6xVs6<486616614",
"88y98966383ee33<33d233eeeeefBbb8+efffe6fbke662,2<ebf2<2e46644116",
"88989896e83ee23<3<3d3d332eesbDb8O2yfe22yfzfe22,2<3D822ee66141288",
"y96689e6288eaea<<36zde33eee2zFl8.,ff8686eeBbe<<22ff622e268612eyy",
"vvfvxxxvf8faaaaee3dBddd3eee2LF88 2efsy86eebFbefeybe6eylagsssesVv",
"LLLLLKLULDFFFFFLFzFFdzbbfeeAULse.<saysa8eeezLLLFAKzbDDLLFFFLKKLL",
"bbbVbVbVBLFFBzbBzedfaBDBbFFFLLf8O8as88asdaee2BLIUKFLDbbbblVbvAVv",
"sxxsxfxfebzbzde<22rbBBbbbbbflff,.8lsssssdd2<<:-<bmbmbleefffsysff",
"4,>:;;;;;<222<<,2ededffaeeee2,-. &;;,22;*+OX....#>2ee88>:>,2>,<6"
};
